%TF.GenerationSoftware,KiCad,Pcbnew,6.0.7-f9a2dced07~116~ubuntu20.04.1*%
%TF.CreationDate,2022-08-30T20:59:12+02:00*%
%TF.ProjectId,mc unit,6d632075-6e69-4742-9e6b-696361645f70,rev?*%
%TF.SameCoordinates,Original*%
%TF.FileFunction,Soldermask,Bot*%
%TF.FilePolarity,Negative*%
%FSLAX46Y46*%
G04 Gerber Fmt 4.6, Leading zero omitted, Abs format (unit mm)*
G04 Created by KiCad (PCBNEW 6.0.7-f9a2dced07~116~ubuntu20.04.1) date 2022-08-30 20:59:12*
%MOMM*%
%LPD*%
G01*
G04 APERTURE LIST*
G04 Aperture macros list*
%AMRoundRect*
0 Rectangle with rounded corners*
0 $1 Rounding radius*
0 $2 $3 $4 $5 $6 $7 $8 $9 X,Y pos of 4 corners*
0 Add a 4 corners polygon primitive as box body*
4,1,4,$2,$3,$4,$5,$6,$7,$8,$9,$2,$3,0*
0 Add four circle primitives for the rounded corners*
1,1,$1+$1,$2,$3*
1,1,$1+$1,$4,$5*
1,1,$1+$1,$6,$7*
1,1,$1+$1,$8,$9*
0 Add four rect primitives between the rounded corners*
20,1,$1+$1,$2,$3,$4,$5,0*
20,1,$1+$1,$4,$5,$6,$7,0*
20,1,$1+$1,$6,$7,$8,$9,0*
20,1,$1+$1,$8,$9,$2,$3,0*%
G04 Aperture macros list end*
%ADD10C,4.300000*%
%ADD11R,2.600000X2.600000*%
%ADD12C,2.600000*%
%ADD13R,2.200000X2.200000*%
%ADD14C,2.200000*%
%ADD15RoundRect,0.250000X-0.600000X0.600000X-0.600000X-0.600000X0.600000X-0.600000X0.600000X0.600000X0*%
%ADD16C,1.700000*%
%ADD17C,2.400000*%
%ADD18R,1.905000X2.000000*%
%ADD19O,1.905000X2.000000*%
G04 APERTURE END LIST*
D10*
%TO.C,H1*%
X80000000Y-111500000D03*
%TD*%
%TO.C,H2*%
X34000000Y-179000000D03*
%TD*%
D11*
%TO.C,J1*%
X53955000Y-178805000D03*
D12*
X59035000Y-178805000D03*
%TD*%
D13*
%TO.C,J13*%
X80500000Y-148470000D03*
D14*
X80500000Y-145930000D03*
X80500000Y-143390000D03*
X80500000Y-140850000D03*
X80500000Y-138310000D03*
X80500000Y-135770000D03*
X80500000Y-133230000D03*
X80500000Y-130690000D03*
X80500000Y-128150000D03*
X80500000Y-125610000D03*
X80500000Y-123070000D03*
X80500000Y-120530000D03*
%TD*%
D15*
%TO.C,J8*%
X58045000Y-110747500D03*
D16*
X58045000Y-113287500D03*
X55505000Y-110747500D03*
X55505000Y-113287500D03*
X52965000Y-110747500D03*
X52965000Y-113287500D03*
%TD*%
D17*
%TO.C,J11*%
X82500000Y-170475000D03*
%TD*%
D18*
%TO.C,Q1*%
X62925000Y-152000000D03*
D19*
X65465000Y-152000000D03*
X68005000Y-152000000D03*
%TD*%
D17*
%TO.C,J10*%
X76500000Y-164983300D03*
%TD*%
%TO.C,J6*%
X82500000Y-159491700D03*
%TD*%
D13*
%TO.C,J2*%
X34000000Y-120570000D03*
D14*
X34000000Y-123110000D03*
X34000000Y-125650000D03*
X34000000Y-128190000D03*
X34000000Y-130730000D03*
X34000000Y-133270000D03*
X34000000Y-135810000D03*
X34000000Y-138350000D03*
X34000000Y-140890000D03*
X34000000Y-143430000D03*
%TD*%
D18*
%TO.C,Q2*%
X48900000Y-152000000D03*
D19*
X51440000Y-152000000D03*
X53980000Y-152000000D03*
%TD*%
D17*
%TO.C,J7*%
X76500000Y-159491700D03*
%TD*%
%TO.C,J5*%
X76500000Y-154000000D03*
%TD*%
%TO.C,J12*%
X76500000Y-170475000D03*
%TD*%
D18*
%TO.C,Q3*%
X49075000Y-168000000D03*
D19*
X51615000Y-168000000D03*
X54155000Y-168000000D03*
%TD*%
D18*
%TO.C,Q4*%
X63100000Y-168000000D03*
D19*
X65640000Y-168000000D03*
X68180000Y-168000000D03*
%TD*%
D17*
%TO.C,J9*%
X82500000Y-164983300D03*
%TD*%
D13*
%TO.C,J3*%
X34000000Y-146570000D03*
D14*
X34000000Y-149110000D03*
X34000000Y-151650000D03*
X34000000Y-154190000D03*
X34000000Y-156730000D03*
X34000000Y-159270000D03*
X34000000Y-161810000D03*
X34000000Y-164350000D03*
X34000000Y-166890000D03*
X34000000Y-169430000D03*
%TD*%
D17*
%TO.C,J4*%
X82500000Y-154000000D03*
%TD*%
M02*
