M48
; DRILL file {KiCad 6.0.8-f2edbf62ab~116~ubuntu20.04.1} date Thu 06 Oct 2022 11:30:38 PM CEST
; FORMAT={-:-/ absolute / metric / decimal}
; #@! TF.CreationDate,2022-10-06T23:30:38+02:00
; #@! TF.GenerationSoftware,Kicad,Pcbnew,6.0.8-f2edbf62ab~116~ubuntu20.04.1
; #@! TF.FileFunction,MixedPlating,1,2
FMAT,2
METRIC
; #@! TA.AperFunction,Plated,PTH,ViaDrill
T1C0.400
; #@! TA.AperFunction,Plated,PTH,ComponentDrill
T2C0.800
; #@! TA.AperFunction,Plated,PTH,ComponentDrill
T3C1.000
; #@! TA.AperFunction,Plated,PTH,ComponentDrill
T4C1.100
; #@! TA.AperFunction,Plated,PTH,ComponentDrill
T5C1.300
; #@! TA.AperFunction,NonPlated,NPTH,ComponentDrill
T6C3.200
%
G90
G05
T1
X41.413Y-121.884
X42.513Y-140.1
X43.0Y-121.0
X44.5Y-181.5
X46.0Y-158.0
X46.0Y-162.0
X46.0Y-174.0
X46.326Y-147.234
X46.402Y-150.959
X46.5Y-168.0
X46.855Y-149.187
X49.154Y-145.099
X49.154Y-146.14
X49.402Y-123.721
X50.39Y-143.762
X50.614Y-144.782
X50.8Y-147.983
X51.956Y-146.108
X52.51Y-125.362
X53.5Y-143.5
X53.971Y-138.21
X53.987Y-164.756
X54.764Y-145.0
X56.882Y-128.097
X58.0Y-123.297
X59.49Y-129.445
X59.967Y-146.531
X60.003Y-130.387
X62.494Y-141.614
X65.5Y-163.5
X65.614Y-142.459
X66.0Y-183.0
X66.745Y-132.209
X67.371Y-134.244
X68.599Y-173.5
X70.0Y-163.5
T2
X66.925Y-123.475
X66.925Y-126.015
X66.925Y-128.555
T3
X46.95Y-110.125
X49.49Y-110.125
X52.03Y-110.125
X61.455Y-109.712
X61.455Y-112.252
X63.995Y-109.712
X63.995Y-112.252
X66.535Y-109.712
X66.535Y-112.252
T4
X34.5Y-108.5
X34.5Y-111.04
X34.5Y-116.414
X34.5Y-118.954
X34.5Y-124.329
X34.5Y-126.869
X34.5Y-132.243
X34.5Y-134.783
X34.5Y-140.158
X34.5Y-142.698
X34.5Y-148.072
X34.5Y-150.612
X34.5Y-159.73
X34.5Y-162.27
X34.5Y-166.64
X34.5Y-169.18
X34.5Y-173.55
X34.5Y-176.09
X34.5Y-180.46
X34.5Y-183.0
X78.5Y-108.46
X78.5Y-111.0
X78.5Y-115.5
X78.5Y-118.04
X78.5Y-122.493
X78.5Y-125.033
X78.5Y-129.487
X78.5Y-132.027
X78.5Y-136.48
X78.5Y-139.02
X78.5Y-143.473
X78.5Y-146.013
X78.5Y-150.46
X78.5Y-153.0
X78.5Y-159.73
X78.5Y-162.27
X78.5Y-166.64
X78.5Y-169.18
X78.5Y-173.55
X78.5Y-176.09
X78.5Y-180.46
X78.5Y-183.0
T5
X53.955Y-178.805
X59.035Y-178.805
T6
X49.0Y-134.0
X65.5Y-178.0
T0
M30
