%TF.GenerationSoftware,KiCad,Pcbnew,6.0.8-f2edbf62ab~116~ubuntu20.04.1*%
%TF.CreationDate,2022-10-06T23:30:32+02:00*%
%TF.ProjectId,mc unit,6d632075-6e69-4742-9e6b-696361645f70,rev?*%
%TF.SameCoordinates,Original*%
%TF.FileFunction,Copper,L2,Bot*%
%TF.FilePolarity,Positive*%
%FSLAX46Y46*%
G04 Gerber Fmt 4.6, Leading zero omitted, Abs format (unit mm)*
G04 Created by KiCad (PCBNEW 6.0.8-f2edbf62ab~116~ubuntu20.04.1) date 2022-10-06 23:30:32*
%MOMM*%
%LPD*%
G01*
G04 APERTURE LIST*
G04 Aperture macros list*
%AMRoundRect*
0 Rectangle with rounded corners*
0 $1 Rounding radius*
0 $2 $3 $4 $5 $6 $7 $8 $9 X,Y pos of 4 corners*
0 Add a 4 corners polygon primitive as box body*
4,1,4,$2,$3,$4,$5,$6,$7,$8,$9,$2,$3,0*
0 Add four circle primitives for the rounded corners*
1,1,$1+$1,$2,$3*
1,1,$1+$1,$4,$5*
1,1,$1+$1,$6,$7*
1,1,$1+$1,$8,$9*
0 Add four rect primitives between the rounded corners*
20,1,$1+$1,$2,$3,$4,$5,0*
20,1,$1+$1,$4,$5,$6,$7,0*
20,1,$1+$1,$6,$7,$8,$9,0*
20,1,$1+$1,$8,$9,$2,$3,0*%
G04 Aperture macros list end*
%TA.AperFunction,ComponentPad*%
%ADD10R,2.100000X2.100000*%
%TD*%
%TA.AperFunction,ComponentPad*%
%ADD11C,2.100000*%
%TD*%
%TA.AperFunction,ComponentPad*%
%ADD12R,2.600000X2.600000*%
%TD*%
%TA.AperFunction,ComponentPad*%
%ADD13C,2.600000*%
%TD*%
%TA.AperFunction,ComponentPad*%
%ADD14C,1.440000*%
%TD*%
%TA.AperFunction,ComponentPad*%
%ADD15RoundRect,0.250000X0.600000X-0.600000X0.600000X0.600000X-0.600000X0.600000X-0.600000X-0.600000X0*%
%TD*%
%TA.AperFunction,ComponentPad*%
%ADD16C,1.700000*%
%TD*%
%TA.AperFunction,ComponentPad*%
%ADD17R,1.700000X1.700000*%
%TD*%
%TA.AperFunction,ComponentPad*%
%ADD18O,1.700000X1.700000*%
%TD*%
%TA.AperFunction,ViaPad*%
%ADD19C,0.800000*%
%TD*%
%TA.AperFunction,Conductor*%
%ADD20C,0.250000*%
%TD*%
%TA.AperFunction,Conductor*%
%ADD21C,1.000000*%
%TD*%
G04 APERTURE END LIST*
D10*
%TO.P,J29,1,Pin_1*%
%TO.N,Net-(J29-Pad1)*%
X78500000Y-183000000D03*
D11*
%TO.P,J29,2,Pin_2*%
%TO.N,12 IN*%
X78500000Y-180460000D03*
%TD*%
D12*
%TO.P,J1,1,Pin_1*%
%TO.N,GND*%
X53955000Y-178805000D03*
D13*
%TO.P,J1,2,Pin_2*%
%TO.N,12 IN*%
X59035000Y-178805000D03*
%TD*%
D10*
%TO.P,J8,1,Pin_1*%
%TO.N,Net-(J8-Pad1)*%
X34500000Y-124328900D03*
D11*
%TO.P,J8,2,Pin_2*%
%TO.N,Net-(C5-Pad1)*%
X34500000Y-126868900D03*
%TD*%
D14*
%TO.P,RV1,1,1*%
%TO.N,+5V*%
X66925000Y-123475000D03*
%TO.P,RV1,2,2*%
%TO.N,aref*%
X66925000Y-126015000D03*
%TO.P,RV1,3,3*%
%TO.N,GND*%
X66925000Y-128555000D03*
%TD*%
D10*
%TO.P,J4,1,Pin_1*%
%TO.N,I3*%
X34500000Y-173550000D03*
D11*
%TO.P,J4,2,Pin_2*%
%TO.N,12 IN*%
X34500000Y-176090000D03*
%TD*%
D15*
%TO.P,J12,1,MISO*%
%TO.N,MISO*%
X61455000Y-112252500D03*
D16*
%TO.P,J12,2,VCC*%
%TO.N,+5V*%
X61455000Y-109712500D03*
%TO.P,J12,3,SCK*%
%TO.N,SCK*%
X63995000Y-112252500D03*
%TO.P,J12,4,MOSI*%
%TO.N,MOSI*%
X63995000Y-109712500D03*
%TO.P,J12,5,~{RST}*%
%TO.N,RST*%
X66535000Y-112252500D03*
%TO.P,J12,6,GND*%
%TO.N,GND*%
X66535000Y-109712500D03*
%TD*%
D10*
%TO.P,J10,1,Pin_1*%
%TO.N,Net-(J10-Pad1)*%
X34500000Y-140157800D03*
D11*
%TO.P,J10,2,Pin_2*%
%TO.N,Net-(C7-Pad1)*%
X34500000Y-142697800D03*
%TD*%
D10*
%TO.P,J9,1,Pin_1*%
%TO.N,Net-(J9-Pad1)*%
X34500000Y-132243300D03*
D11*
%TO.P,J9,2,Pin_2*%
%TO.N,Net-(C6-Pad1)*%
X34500000Y-134783300D03*
%TD*%
D10*
%TO.P,J6,1,Pin_1*%
%TO.N,Net-(J6-Pad1)*%
X34500000Y-108500000D03*
D11*
%TO.P,J6,2,Pin_2*%
%TO.N,Net-(C3-Pad1)*%
X34500000Y-111040000D03*
%TD*%
D10*
%TO.P,J27,1,Pin_1*%
%TO.N,Net-(J27-Pad1)*%
X78500000Y-169180000D03*
D11*
%TO.P,J27,2,Pin_2*%
%TO.N,12 IN*%
X78500000Y-166640000D03*
%TD*%
D10*
%TO.P,J17,1,Pin_1*%
%TO.N,B1 Shunt*%
X78500000Y-118040000D03*
D11*
%TO.P,J17,2,Pin_2*%
%TO.N,12 IN*%
X78500000Y-115500000D03*
%TD*%
D10*
%TO.P,J7,1,Pin_1*%
%TO.N,Net-(J7-Pad1)*%
X34500000Y-116414400D03*
D11*
%TO.P,J7,2,Pin_2*%
%TO.N,Net-(C4-Pad1)*%
X34500000Y-118954400D03*
%TD*%
D10*
%TO.P,J18,1,Pin_1*%
%TO.N,B2 shunt*%
X78500000Y-125033300D03*
D11*
%TO.P,J18,2,Pin_2*%
%TO.N,12 IN*%
X78500000Y-122493300D03*
%TD*%
D10*
%TO.P,J5,1,Pin_1*%
%TO.N,I4*%
X34500000Y-180460000D03*
D11*
%TO.P,J5,2,Pin_2*%
%TO.N,12 IN*%
X34500000Y-183000000D03*
%TD*%
D10*
%TO.P,J26,1,Pin_1*%
%TO.N,Net-(Q1-Pad3)*%
X78500000Y-162270000D03*
D11*
%TO.P,J26,2,Pin_2*%
%TO.N,12 IN*%
X78500000Y-159730000D03*
%TD*%
D10*
%TO.P,J2,1,Pin_1*%
%TO.N,I1*%
X34500000Y-159730000D03*
D11*
%TO.P,J2,2,Pin_2*%
%TO.N,12 IN*%
X34500000Y-162270000D03*
%TD*%
D10*
%TO.P,J20,1,Pin_1*%
%TO.N,neutral Ledc*%
X78500000Y-139020000D03*
D11*
%TO.P,J20,2,Pin_2*%
%TO.N,12 IN*%
X78500000Y-136480000D03*
%TD*%
D10*
%TO.P,J28,1,Pin_1*%
%TO.N,Net-(Q3-Pad3)*%
X78500000Y-176090000D03*
D11*
%TO.P,J28,2,Pin_2*%
%TO.N,12 IN*%
X78500000Y-173550000D03*
%TD*%
D10*
%TO.P,J16,1,Pin_1*%
%TO.N,Fuel LEDc*%
X78500000Y-111000000D03*
D11*
%TO.P,J16,2,Pin_2*%
%TO.N,12 IN*%
X78500000Y-108460000D03*
%TD*%
D17*
%TO.P,J24,1,Pin_1*%
%TO.N,GND*%
X46950000Y-110125000D03*
D18*
%TO.P,J24,2,Pin_2*%
%TO.N,TXD*%
X49490000Y-110125000D03*
%TO.P,J24,3,Pin_3*%
%TO.N,RXD*%
X52030000Y-110125000D03*
%TD*%
D10*
%TO.P,J21,1,Pin_1*%
%TO.N,Turn Ledc*%
X78500000Y-146013300D03*
D11*
%TO.P,J21,2,Pin_2*%
%TO.N,12 IN*%
X78500000Y-143473300D03*
%TD*%
D10*
%TO.P,J22,1,Pin_1*%
%TO.N,General c*%
X78500000Y-153000000D03*
D11*
%TO.P,J22,2,Pin_2*%
%TO.N,12 IN*%
X78500000Y-150460000D03*
%TD*%
D10*
%TO.P,J3,1,Pin_1*%
%TO.N,I2*%
X34500000Y-166640000D03*
D11*
%TO.P,J3,2,Pin_2*%
%TO.N,12 IN*%
X34500000Y-169180000D03*
%TD*%
D10*
%TO.P,J11,1,Pin_1*%
%TO.N,Net-(J11-Pad1)*%
X34500000Y-148072200D03*
D11*
%TO.P,J11,2,Pin_2*%
%TO.N,Net-(C8-Pad1)*%
X34500000Y-150612200D03*
%TD*%
D10*
%TO.P,J19,1,Pin_1*%
%TO.N,Oil Ledc*%
X78500000Y-132026700D03*
D11*
%TO.P,J19,2,Pin_2*%
%TO.N,12 IN*%
X78500000Y-129486700D03*
%TD*%
D19*
%TO.N,GND*%
X43000000Y-121000000D03*
%TO.N,Net-(Q4-Pad1)*%
X66000000Y-183000000D03*
X44500000Y-181500000D03*
%TO.N,Net-(Q3-Pad1)*%
X68599500Y-173500000D03*
X46000000Y-174000000D03*
%TO.N,GND*%
X46000000Y-158000000D03*
X46000000Y-162000000D03*
%TO.N,Net-(Q2-Pad1)*%
X65500000Y-163500000D03*
X70000000Y-163500000D03*
%TO.N,+5V*%
X41412500Y-121884200D03*
X49402000Y-123721300D03*
X42512700Y-140100200D03*
X46402500Y-150959400D03*
X53986900Y-164756200D03*
%TO.N,12 IN*%
X46500000Y-168000000D03*
%TO.N,B2 shunt*%
X56882000Y-128097100D03*
%TO.N,B1 Shunt*%
X58000000Y-123297200D03*
%TO.N,GND*%
X54764200Y-145000000D03*
%TO.N,/Blink 1 out*%
X46855300Y-149186600D03*
X65614200Y-142458600D03*
%TO.N,/Blink 2 out*%
X49154200Y-146139600D03*
X59966700Y-146531200D03*
%TO.N,Blink 1 ctrl*%
X52509900Y-125362200D03*
X50800000Y-147983100D03*
%TO.N,Blink 2 ctrl*%
X53500000Y-143500000D03*
X53971500Y-138209800D03*
%TO.N,Turn Sig 2c*%
X66745400Y-132209300D03*
X59489800Y-129445300D03*
%TO.N,Turn Sig 1c*%
X60003200Y-130387200D03*
X67371200Y-134243800D03*
%TO.N,/Fuel LED out*%
X62493600Y-141613700D03*
X49154200Y-145099000D03*
%TO.N,MISO*%
X50389800Y-143761800D03*
%TO.N,MOSI*%
X46326000Y-147233700D03*
%TO.N,SCK*%
X50613700Y-144782300D03*
%TO.N,aref*%
X51956000Y-146107700D03*
%TD*%
D20*
%TO.N,GND*%
X43000000Y-121000000D02*
X46950000Y-117050000D01*
X46950000Y-117050000D02*
X46950000Y-110125000D01*
%TO.N,Net-(Q4-Pad1)*%
X64500000Y-181500000D02*
X66000000Y-183000000D01*
X44500000Y-181500000D02*
X64500000Y-181500000D01*
%TO.N,Net-(Q3-Pad1)*%
X46000000Y-174000000D02*
X68099500Y-174000000D01*
X68099500Y-174000000D02*
X68599500Y-173500000D01*
%TO.N,GND*%
X46000000Y-162000000D02*
X46000000Y-158000000D01*
%TO.N,Net-(Q2-Pad1)*%
X65500000Y-163500000D02*
X70000000Y-163500000D01*
D21*
%TO.N,12 IN*%
X78500000Y-180460000D02*
X60690000Y-180460000D01*
X60690000Y-180460000D02*
X59035000Y-178805000D01*
D20*
X79875000Y-158355000D02*
X78500000Y-159730000D01*
%TO.N,+5V*%
X45481000Y-150037900D02*
X46402500Y-150959400D01*
X49402000Y-128598000D02*
X49402000Y-123721300D01*
X49402000Y-121646200D02*
X61335700Y-109712500D01*
X45481000Y-132519000D02*
X49402000Y-128598000D01*
X45481000Y-140876200D02*
X43288700Y-140876200D01*
X45481000Y-140876200D02*
X45481000Y-132519000D01*
X61335700Y-109712500D02*
X61455000Y-109712500D01*
X53986900Y-158543800D02*
X46402500Y-150959400D01*
X49402000Y-123721300D02*
X49402000Y-121884200D01*
X49402000Y-121884200D02*
X49402000Y-121646200D01*
X53986900Y-164756200D02*
X53986900Y-158543800D01*
X43288700Y-140876200D02*
X42512700Y-140100200D01*
X49402000Y-121884200D02*
X41412500Y-121884200D01*
X45481000Y-140876200D02*
X45481000Y-150037900D01*
%TO.N,12 IN*%
X78586100Y-136480000D02*
X78500000Y-136480000D01*
X79875000Y-151375000D02*
X78960000Y-150460000D01*
X78520200Y-143473400D02*
X78500000Y-143473400D01*
X36430400Y-182554524D02*
X35984924Y-183000000D01*
X36430400Y-180430400D02*
X36430400Y-178569600D01*
X78960000Y-150460000D02*
X78500000Y-150460000D01*
X79875400Y-128111300D02*
X78539500Y-129447200D01*
X78500000Y-150460000D02*
X80000000Y-148960000D01*
X79875400Y-109749300D02*
X79875400Y-114210700D01*
X46500000Y-168000000D02*
X45320000Y-169180000D01*
X79875400Y-135190700D02*
X78586100Y-136480000D01*
X36430400Y-178020400D02*
X36430400Y-178569600D01*
X78586100Y-122493300D02*
X79875400Y-123782600D01*
X57409600Y-180430400D02*
X36430400Y-180430400D01*
X79875400Y-114210700D02*
X78586100Y-115500000D01*
X45320000Y-169180000D02*
X34500000Y-169180000D01*
X79875400Y-130783200D02*
X79875400Y-135190700D01*
X35455000Y-177045000D02*
X36430400Y-178020400D01*
X80000000Y-144953200D02*
X78520200Y-143473400D01*
X78539500Y-129447200D02*
X79875400Y-130783200D01*
X79875000Y-158355000D02*
X79875000Y-151375000D01*
X78539500Y-129447200D02*
X78500000Y-129486700D01*
X79875400Y-121204000D02*
X78586100Y-122493300D01*
X36430400Y-180430400D02*
X36430400Y-182554524D01*
X78586100Y-108460000D02*
X79875400Y-109749300D01*
X35984924Y-183000000D02*
X34500000Y-183000000D01*
X59035000Y-178805000D02*
X57409600Y-180430400D01*
X78500000Y-143473400D02*
X78500000Y-143473300D01*
X79875400Y-123782600D02*
X79875400Y-128111300D01*
X35455000Y-177045000D02*
X35245000Y-177045000D01*
X80000000Y-148960000D02*
X80000000Y-144953200D01*
X33000000Y-174800000D02*
X33000000Y-170680000D01*
X78500000Y-115500000D02*
X78586100Y-115500000D01*
X78500000Y-108460000D02*
X78586100Y-108460000D01*
X33000000Y-170680000D02*
X34500000Y-169180000D01*
X78586100Y-115500000D02*
X79875400Y-116789300D01*
X35245000Y-177045000D02*
X33000000Y-174800000D01*
X78500000Y-122493300D02*
X78586100Y-122493300D01*
X79875400Y-116789300D02*
X79875400Y-121204000D01*
X34500000Y-176090000D02*
X35455000Y-177045000D01*
%TO.N,B2 shunt*%
X60017900Y-124961200D02*
X77052600Y-124961200D01*
X77052600Y-124961200D02*
X77124700Y-125033300D01*
X56882000Y-128097100D02*
X60017900Y-124961200D01*
X78500000Y-125033300D02*
X77124700Y-125033300D01*
%TO.N,B1 Shunt*%
X63257200Y-118040000D02*
X78500000Y-118040000D01*
X58000000Y-123297200D02*
X63257200Y-118040000D01*
%TO.N,GND*%
X65348500Y-108526000D02*
X66535000Y-109712500D01*
X47545200Y-110125000D02*
X46950000Y-110125000D01*
X47545200Y-110125000D02*
X48140300Y-110125000D01*
X49218500Y-108526000D02*
X65348500Y-108526000D01*
X48140300Y-110125000D02*
X48140300Y-109604200D01*
X66925000Y-128555000D02*
X68147600Y-129777600D01*
X68147600Y-134543100D02*
X57690700Y-145000000D01*
X68147600Y-129777600D02*
X68147600Y-134543100D01*
X48140300Y-109604200D02*
X49218500Y-108526000D01*
X57690700Y-145000000D02*
X54764200Y-145000000D01*
%TO.N,/Blink 1 out*%
X58886200Y-149186600D02*
X46855300Y-149186600D01*
X65614200Y-142458600D02*
X58886200Y-149186600D01*
%TO.N,/Blink 2 out*%
X50171500Y-146139600D02*
X49154200Y-146139600D01*
X59207300Y-147290600D02*
X51322500Y-147290600D01*
X59966700Y-146531200D02*
X59207300Y-147290600D01*
X51322500Y-147290600D02*
X50171500Y-146139600D01*
%TO.N,Blink 1 ctrl*%
X52249300Y-140796600D02*
X52249300Y-125622800D01*
X52249300Y-125622800D02*
X52509900Y-125362200D01*
X50800000Y-147983000D02*
X49960600Y-147983000D01*
X48428500Y-144617400D02*
X52249300Y-140796600D01*
X50800000Y-147983100D02*
X50800000Y-147983000D01*
X49960600Y-147983000D02*
X48428500Y-146450900D01*
X48428500Y-146450900D02*
X48428500Y-144617400D01*
%TO.N,Blink 2 ctrl*%
X53971500Y-143028500D02*
X53500000Y-143500000D01*
X53971500Y-138209800D02*
X53971500Y-143028500D01*
%TO.N,Turn Sig 2c*%
X63981400Y-129445300D02*
X66745400Y-132209300D01*
X59489800Y-129445300D02*
X63981400Y-129445300D01*
%TO.N,Turn Sig 1c*%
X63859800Y-134243800D02*
X60003200Y-130387200D01*
X67371200Y-134243800D02*
X63859800Y-134243800D01*
%TO.N,/Fuel LED out*%
X62493600Y-141613700D02*
X57267100Y-146840200D01*
X51509000Y-146840200D02*
X49767800Y-145099000D01*
X57267100Y-146840200D02*
X51509000Y-146840200D01*
X49767800Y-145099000D02*
X49154200Y-145099000D01*
%TO.N,MISO*%
X61455000Y-117786100D02*
X52699700Y-126541400D01*
X52699700Y-141451900D02*
X50389800Y-143761800D01*
X52699700Y-126541400D02*
X52699700Y-141451900D01*
X61455000Y-112252500D02*
X61455000Y-117786100D01*
%TO.N,MOSI*%
X46326000Y-145807000D02*
X46326000Y-147233700D01*
X51784600Y-140348400D02*
X46326000Y-145807000D01*
X62778400Y-110929100D02*
X60756000Y-110929100D01*
X63995000Y-109712500D02*
X62778400Y-110929100D01*
X51784600Y-119900500D02*
X51784600Y-140348400D01*
X60756000Y-110929100D02*
X51784600Y-119900500D01*
%TO.N,SCK*%
X63995000Y-115959800D02*
X53221000Y-126733800D01*
X63995000Y-112252500D02*
X63995000Y-115959800D01*
X53221000Y-142175000D02*
X50613700Y-144782300D01*
X53221000Y-126733800D02*
X53221000Y-142175000D01*
%TO.N,aref*%
X66925000Y-126015000D02*
X61894400Y-126015000D01*
X61894400Y-126015000D02*
X57857600Y-130051800D01*
X57857600Y-140206100D02*
X51956000Y-146107700D01*
X57857600Y-130051800D02*
X57857600Y-140206100D01*
%TD*%
M02*
