%TF.GenerationSoftware,KiCad,Pcbnew,6.0.8-f2edbf62ab~116~ubuntu20.04.1*%
%TF.CreationDate,2022-10-06T23:30:32+02:00*%
%TF.ProjectId,mc unit,6d632075-6e69-4742-9e6b-696361645f70,rev?*%
%TF.SameCoordinates,Original*%
%TF.FileFunction,Soldermask,Top*%
%TF.FilePolarity,Negative*%
%FSLAX46Y46*%
G04 Gerber Fmt 4.6, Leading zero omitted, Abs format (unit mm)*
G04 Created by KiCad (PCBNEW 6.0.8-f2edbf62ab~116~ubuntu20.04.1) date 2022-10-06 23:30:32*
%MOMM*%
%LPD*%
G01*
G04 APERTURE LIST*
G04 Aperture macros list*
%AMRoundRect*
0 Rectangle with rounded corners*
0 $1 Rounding radius*
0 $2 $3 $4 $5 $6 $7 $8 $9 X,Y pos of 4 corners*
0 Add a 4 corners polygon primitive as box body*
4,1,4,$2,$3,$4,$5,$6,$7,$8,$9,$2,$3,0*
0 Add four circle primitives for the rounded corners*
1,1,$1+$1,$2,$3*
1,1,$1+$1,$4,$5*
1,1,$1+$1,$6,$7*
1,1,$1+$1,$8,$9*
0 Add four rect primitives between the rounded corners*
20,1,$1+$1,$2,$3,$4,$5,0*
20,1,$1+$1,$4,$5,$6,$7,0*
20,1,$1+$1,$6,$7,$8,$9,0*
20,1,$1+$1,$8,$9,$2,$3,0*%
G04 Aperture macros list end*
%ADD10R,2.100000X2.100000*%
%ADD11C,2.100000*%
%ADD12RoundRect,0.150000X-0.587500X-0.150000X0.587500X-0.150000X0.587500X0.150000X-0.587500X0.150000X0*%
%ADD13RoundRect,0.250000X-0.337500X-0.475000X0.337500X-0.475000X0.337500X0.475000X-0.337500X0.475000X0*%
%ADD14R,2.600000X2.600000*%
%ADD15C,2.600000*%
%ADD16RoundRect,0.250000X0.450000X-0.325000X0.450000X0.325000X-0.450000X0.325000X-0.450000X-0.325000X0*%
%ADD17C,1.440000*%
%ADD18RoundRect,0.237500X-0.250000X-0.237500X0.250000X-0.237500X0.250000X0.237500X-0.250000X0.237500X0*%
%ADD19RoundRect,0.250000X-0.350000X-0.450000X0.350000X-0.450000X0.350000X0.450000X-0.350000X0.450000X0*%
%ADD20RoundRect,0.150000X-0.825000X-0.150000X0.825000X-0.150000X0.825000X0.150000X-0.825000X0.150000X0*%
%ADD21RoundRect,0.250000X0.475000X-0.337500X0.475000X0.337500X-0.475000X0.337500X-0.475000X-0.337500X0*%
%ADD22RoundRect,0.250000X0.600000X-0.600000X0.600000X0.600000X-0.600000X0.600000X-0.600000X-0.600000X0*%
%ADD23C,1.700000*%
%ADD24R,0.550000X1.600000*%
%ADD25R,1.600000X0.550000*%
%ADD26RoundRect,0.237500X-0.237500X0.250000X-0.237500X-0.250000X0.237500X-0.250000X0.237500X0.250000X0*%
%ADD27RoundRect,0.250000X-0.475000X0.337500X-0.475000X-0.337500X0.475000X-0.337500X0.475000X0.337500X0*%
%ADD28R,0.650000X0.400000*%
%ADD29R,1.500000X2.000000*%
%ADD30R,3.800000X2.000000*%
%ADD31RoundRect,0.250000X0.625000X-0.400000X0.625000X0.400000X-0.625000X0.400000X-0.625000X-0.400000X0*%
%ADD32C,3.200000*%
%ADD33R,1.500000X1.500000*%
%ADD34R,1.700000X1.700000*%
%ADD35O,1.700000X1.700000*%
G04 APERTURE END LIST*
D10*
%TO.C,J29*%
X78500000Y-183000000D03*
D11*
X78500000Y-180460000D03*
%TD*%
D12*
%TO.C,Q3*%
X70062500Y-173293300D03*
X70062500Y-175193300D03*
X71937500Y-174243300D03*
%TD*%
%TO.C,Q4*%
X70062500Y-180050000D03*
X70062500Y-181950000D03*
X71937500Y-181000000D03*
%TD*%
D13*
%TO.C,C8*%
X39462500Y-152000000D03*
X41537500Y-152000000D03*
%TD*%
%TO.C,C6*%
X39462500Y-136000000D03*
X41537500Y-136000000D03*
%TD*%
D14*
%TO.C,J1*%
X53955000Y-178805000D03*
D15*
X59035000Y-178805000D03*
%TD*%
D10*
%TO.C,J8*%
X34500000Y-124328900D03*
D11*
X34500000Y-126868900D03*
%TD*%
D16*
%TO.C,D1*%
X48500000Y-182525000D03*
X48500000Y-180475000D03*
%TD*%
D17*
%TO.C,RV1*%
X66925000Y-123475000D03*
X66925000Y-126015000D03*
X66925000Y-128555000D03*
%TD*%
D18*
%TO.C,R2*%
X39587500Y-108500000D03*
X41412500Y-108500000D03*
%TD*%
D19*
%TO.C,R27*%
X39475000Y-182475000D03*
X41475000Y-182475000D03*
%TD*%
D20*
%TO.C,U5*%
X64025000Y-141055000D03*
X64025000Y-142325000D03*
X64025000Y-143595000D03*
X64025000Y-144865000D03*
X64025000Y-146135000D03*
X64025000Y-147405000D03*
X64025000Y-148675000D03*
X64025000Y-149945000D03*
X68975000Y-149945000D03*
X68975000Y-148675000D03*
X68975000Y-147405000D03*
X68975000Y-146135000D03*
X68975000Y-144865000D03*
X68975000Y-143595000D03*
X68975000Y-142325000D03*
X68975000Y-141055000D03*
%TD*%
D10*
%TO.C,J4*%
X34500000Y-173550000D03*
D11*
X34500000Y-176090000D03*
%TD*%
D18*
%TO.C,R9*%
X39587500Y-126000000D03*
X41412500Y-126000000D03*
%TD*%
D19*
%TO.C,R23*%
X39500000Y-169000000D03*
X41500000Y-169000000D03*
%TD*%
D18*
%TO.C,R14*%
X39587500Y-140500000D03*
X41412500Y-140500000D03*
%TD*%
D21*
%TO.C,C11*%
X52000000Y-154537500D03*
X52000000Y-152462500D03*
%TD*%
D18*
%TO.C,R6*%
X39587500Y-118000000D03*
X41412500Y-118000000D03*
%TD*%
D22*
%TO.C,J12*%
X61455000Y-112252500D03*
D23*
X61455000Y-109712500D03*
X63995000Y-112252500D03*
X63995000Y-109712500D03*
X66535000Y-112252500D03*
X66535000Y-109712500D03*
%TD*%
D10*
%TO.C,J10*%
X34500000Y-140157800D03*
D11*
X34500000Y-142697800D03*
%TD*%
D10*
%TO.C,J9*%
X34500000Y-132243300D03*
D11*
X34500000Y-134783300D03*
%TD*%
D18*
%TO.C,R17*%
X39587500Y-148500000D03*
X41412500Y-148500000D03*
%TD*%
D10*
%TO.C,J6*%
X34500000Y-108500000D03*
D11*
X34500000Y-111040000D03*
%TD*%
D13*
%TO.C,C5*%
X39425000Y-128000000D03*
X41500000Y-128000000D03*
%TD*%
D10*
%TO.C,J27*%
X78500000Y-169180000D03*
D11*
X78500000Y-166640000D03*
%TD*%
D21*
%TO.C,C1*%
X62000000Y-172075000D03*
X62000000Y-170000000D03*
%TD*%
D18*
%TO.C,R8*%
X39587500Y-124500000D03*
X41412500Y-124500000D03*
%TD*%
D19*
%TO.C,R24*%
X39500000Y-160000000D03*
X41500000Y-160000000D03*
%TD*%
D10*
%TO.C,J17*%
X78500000Y-118040000D03*
D11*
X78500000Y-115500000D03*
%TD*%
D10*
%TO.C,J7*%
X34500000Y-116414400D03*
D11*
X34500000Y-118954400D03*
%TD*%
D24*
%TO.C,U4*%
X54800000Y-141250000D03*
X54000000Y-141250000D03*
X53200000Y-141250000D03*
X52400000Y-141250000D03*
X51600000Y-141250000D03*
X50800000Y-141250000D03*
X50000000Y-141250000D03*
X49200000Y-141250000D03*
D25*
X47750000Y-142700000D03*
X47750000Y-143500000D03*
X47750000Y-144300000D03*
X47750000Y-145100000D03*
X47750000Y-145900000D03*
X47750000Y-146700000D03*
X47750000Y-147500000D03*
X47750000Y-148300000D03*
D24*
X49200000Y-149750000D03*
X50000000Y-149750000D03*
X50800000Y-149750000D03*
X51600000Y-149750000D03*
X52400000Y-149750000D03*
X53200000Y-149750000D03*
X54000000Y-149750000D03*
X54800000Y-149750000D03*
D25*
X56250000Y-148300000D03*
X56250000Y-147500000D03*
X56250000Y-146700000D03*
X56250000Y-145900000D03*
X56250000Y-145100000D03*
X56250000Y-144300000D03*
X56250000Y-143500000D03*
X56250000Y-142700000D03*
%TD*%
D19*
%TO.C,R22*%
X39500000Y-162000000D03*
X41500000Y-162000000D03*
%TD*%
D26*
%TO.C,R20*%
X47500000Y-152587500D03*
X47500000Y-154412500D03*
%TD*%
D19*
%TO.C,R28*%
X39500000Y-174000000D03*
X41500000Y-174000000D03*
%TD*%
D13*
%TO.C,C3*%
X39462500Y-112000000D03*
X41537500Y-112000000D03*
%TD*%
D16*
%TO.C,D2*%
X49500000Y-154525000D03*
X49500000Y-152475000D03*
%TD*%
D18*
%TO.C,R12*%
X39587500Y-134000000D03*
X41412500Y-134000000D03*
%TD*%
%TO.C,R1*%
X39587500Y-107000000D03*
X41412500Y-107000000D03*
%TD*%
D27*
%TO.C,C12*%
X46500000Y-121962500D03*
X46500000Y-124037500D03*
%TD*%
D26*
%TO.C,R21*%
X56500000Y-152587500D03*
X56500000Y-154412500D03*
%TD*%
D12*
%TO.C,Q2*%
X70062500Y-166536700D03*
X70062500Y-168436700D03*
X71937500Y-167486700D03*
%TD*%
D28*
%TO.C,U2*%
X50550000Y-122350000D03*
X50550000Y-123000000D03*
X50550000Y-123650000D03*
X52450000Y-123650000D03*
X52450000Y-123000000D03*
X52450000Y-122350000D03*
%TD*%
D16*
%TO.C,D3*%
X54500000Y-154500000D03*
X54500000Y-152450000D03*
%TD*%
D26*
%TO.C,R19*%
X48500000Y-176587500D03*
X48500000Y-178412500D03*
%TD*%
D10*
%TO.C,J18*%
X78500000Y-125033300D03*
D11*
X78500000Y-122493300D03*
%TD*%
D10*
%TO.C,J5*%
X34500000Y-180460000D03*
D11*
X34500000Y-183000000D03*
%TD*%
D19*
%TO.C,R29*%
X39475000Y-180475000D03*
X41475000Y-180475000D03*
%TD*%
D10*
%TO.C,J26*%
X78500000Y-162270000D03*
D11*
X78500000Y-159730000D03*
%TD*%
D18*
%TO.C,R11*%
X39587500Y-132500000D03*
X41412500Y-132500000D03*
%TD*%
D29*
%TO.C,U1*%
X54200000Y-171650000D03*
X56500000Y-171650000D03*
D30*
X56500000Y-165350000D03*
D29*
X58800000Y-171650000D03*
%TD*%
D10*
%TO.C,J2*%
X34500000Y-159730000D03*
D11*
X34500000Y-162270000D03*
%TD*%
D10*
%TO.C,J20*%
X78500000Y-139020000D03*
D11*
X78500000Y-136480000D03*
%TD*%
D10*
%TO.C,J28*%
X78500000Y-176090000D03*
D11*
X78500000Y-173550000D03*
%TD*%
D18*
%TO.C,R15*%
X39587500Y-142000000D03*
X41412500Y-142000000D03*
%TD*%
D12*
%TO.C,Q1*%
X70062500Y-159780000D03*
X70062500Y-161680000D03*
X71937500Y-160730000D03*
%TD*%
D31*
%TO.C,Rshunt1*%
X58000000Y-124550000D03*
X58000000Y-121450000D03*
%TD*%
D10*
%TO.C,J16*%
X78500000Y-111000000D03*
D11*
X78500000Y-108460000D03*
%TD*%
D27*
%TO.C,C2*%
X51000000Y-165962500D03*
X51000000Y-168037500D03*
%TD*%
D18*
%TO.C,R18*%
X39587500Y-150000000D03*
X41412500Y-150000000D03*
%TD*%
%TO.C,R4*%
X39587500Y-115000000D03*
X41412500Y-115000000D03*
%TD*%
D19*
%TO.C,R25*%
X39500000Y-167000000D03*
X41500000Y-167000000D03*
%TD*%
D18*
%TO.C,R10*%
X39587500Y-131000000D03*
X41412500Y-131000000D03*
%TD*%
D19*
%TO.C,R26*%
X39500000Y-176000000D03*
X41500000Y-176000000D03*
%TD*%
D32*
%TO.C,H1*%
X65500000Y-178000000D03*
%TD*%
D18*
%TO.C,R16*%
X39587500Y-147000000D03*
X41412500Y-147000000D03*
%TD*%
D31*
%TO.C,Rshunt2*%
X58000000Y-130050000D03*
X58000000Y-126950000D03*
%TD*%
D27*
%TO.C,C9*%
X62000000Y-165962500D03*
X62000000Y-168037500D03*
%TD*%
%TO.C,C13*%
X46500000Y-126962500D03*
X46500000Y-129037500D03*
%TD*%
D13*
%TO.C,C7*%
X39462500Y-144000000D03*
X41537500Y-144000000D03*
%TD*%
D33*
%TO.C,SW1*%
X70400000Y-155000000D03*
X62600000Y-155000000D03*
%TD*%
D18*
%TO.C,R5*%
X39587500Y-116500000D03*
X41412500Y-116500000D03*
%TD*%
D34*
%TO.C,J24*%
X46950000Y-110125000D03*
D35*
X49490000Y-110125000D03*
X52030000Y-110125000D03*
%TD*%
D10*
%TO.C,J21*%
X78500000Y-146013300D03*
D11*
X78500000Y-143473300D03*
%TD*%
D10*
%TO.C,J22*%
X78500000Y-153000000D03*
D11*
X78500000Y-150460000D03*
%TD*%
D32*
%TO.C,H2*%
X49000000Y-134000000D03*
%TD*%
D10*
%TO.C,J3*%
X34500000Y-166640000D03*
D11*
X34500000Y-169180000D03*
%TD*%
D18*
%TO.C,R13*%
X39587500Y-139000000D03*
X41412500Y-139000000D03*
%TD*%
D10*
%TO.C,J11*%
X34500000Y-148072200D03*
D11*
X34500000Y-150612200D03*
%TD*%
D13*
%TO.C,C4*%
X39425000Y-120000000D03*
X41500000Y-120000000D03*
%TD*%
D18*
%TO.C,R3*%
X39587500Y-110000000D03*
X41412500Y-110000000D03*
%TD*%
%TO.C,R7*%
X39587500Y-123000000D03*
X41412500Y-123000000D03*
%TD*%
D10*
%TO.C,J19*%
X78500000Y-132026700D03*
D11*
X78500000Y-129486700D03*
%TD*%
D28*
%TO.C,U3*%
X50550000Y-126850000D03*
X50550000Y-127500000D03*
X50550000Y-128150000D03*
X52450000Y-128150000D03*
X52450000Y-127500000D03*
X52450000Y-126850000D03*
%TD*%
D21*
%TO.C,C10*%
X51000000Y-172037500D03*
X51000000Y-169962500D03*
%TD*%
M02*
