%TF.GenerationSoftware,KiCad,Pcbnew,6.0.8-f2edbf62ab~116~ubuntu20.04.1*%
%TF.CreationDate,2022-10-06T23:30:32+02:00*%
%TF.ProjectId,mc unit,6d632075-6e69-4742-9e6b-696361645f70,rev?*%
%TF.SameCoordinates,Original*%
%TF.FileFunction,Soldermask,Bot*%
%TF.FilePolarity,Negative*%
%FSLAX46Y46*%
G04 Gerber Fmt 4.6, Leading zero omitted, Abs format (unit mm)*
G04 Created by KiCad (PCBNEW 6.0.8-f2edbf62ab~116~ubuntu20.04.1) date 2022-10-06 23:30:32*
%MOMM*%
%LPD*%
G01*
G04 APERTURE LIST*
G04 Aperture macros list*
%AMRoundRect*
0 Rectangle with rounded corners*
0 $1 Rounding radius*
0 $2 $3 $4 $5 $6 $7 $8 $9 X,Y pos of 4 corners*
0 Add a 4 corners polygon primitive as box body*
4,1,4,$2,$3,$4,$5,$6,$7,$8,$9,$2,$3,0*
0 Add four circle primitives for the rounded corners*
1,1,$1+$1,$2,$3*
1,1,$1+$1,$4,$5*
1,1,$1+$1,$6,$7*
1,1,$1+$1,$8,$9*
0 Add four rect primitives between the rounded corners*
20,1,$1+$1,$2,$3,$4,$5,0*
20,1,$1+$1,$4,$5,$6,$7,0*
20,1,$1+$1,$6,$7,$8,$9,0*
20,1,$1+$1,$8,$9,$2,$3,0*%
G04 Aperture macros list end*
%ADD10R,2.100000X2.100000*%
%ADD11C,2.100000*%
%ADD12R,2.600000X2.600000*%
%ADD13C,2.600000*%
%ADD14C,1.440000*%
%ADD15RoundRect,0.250000X0.600000X-0.600000X0.600000X0.600000X-0.600000X0.600000X-0.600000X-0.600000X0*%
%ADD16C,1.700000*%
%ADD17C,3.200000*%
%ADD18R,1.700000X1.700000*%
%ADD19O,1.700000X1.700000*%
G04 APERTURE END LIST*
D10*
%TO.C,J29*%
X78500000Y-183000000D03*
D11*
X78500000Y-180460000D03*
%TD*%
D12*
%TO.C,J1*%
X53955000Y-178805000D03*
D13*
X59035000Y-178805000D03*
%TD*%
D10*
%TO.C,J8*%
X34500000Y-124328900D03*
D11*
X34500000Y-126868900D03*
%TD*%
D14*
%TO.C,RV1*%
X66925000Y-123475000D03*
X66925000Y-126015000D03*
X66925000Y-128555000D03*
%TD*%
D10*
%TO.C,J4*%
X34500000Y-173550000D03*
D11*
X34500000Y-176090000D03*
%TD*%
D15*
%TO.C,J12*%
X61455000Y-112252500D03*
D16*
X61455000Y-109712500D03*
X63995000Y-112252500D03*
X63995000Y-109712500D03*
X66535000Y-112252500D03*
X66535000Y-109712500D03*
%TD*%
D10*
%TO.C,J10*%
X34500000Y-140157800D03*
D11*
X34500000Y-142697800D03*
%TD*%
D10*
%TO.C,J9*%
X34500000Y-132243300D03*
D11*
X34500000Y-134783300D03*
%TD*%
D10*
%TO.C,J6*%
X34500000Y-108500000D03*
D11*
X34500000Y-111040000D03*
%TD*%
D10*
%TO.C,J27*%
X78500000Y-169180000D03*
D11*
X78500000Y-166640000D03*
%TD*%
D10*
%TO.C,J17*%
X78500000Y-118040000D03*
D11*
X78500000Y-115500000D03*
%TD*%
D10*
%TO.C,J7*%
X34500000Y-116414400D03*
D11*
X34500000Y-118954400D03*
%TD*%
D10*
%TO.C,J18*%
X78500000Y-125033300D03*
D11*
X78500000Y-122493300D03*
%TD*%
D10*
%TO.C,J5*%
X34500000Y-180460000D03*
D11*
X34500000Y-183000000D03*
%TD*%
D10*
%TO.C,J26*%
X78500000Y-162270000D03*
D11*
X78500000Y-159730000D03*
%TD*%
D10*
%TO.C,J2*%
X34500000Y-159730000D03*
D11*
X34500000Y-162270000D03*
%TD*%
D10*
%TO.C,J20*%
X78500000Y-139020000D03*
D11*
X78500000Y-136480000D03*
%TD*%
D10*
%TO.C,J28*%
X78500000Y-176090000D03*
D11*
X78500000Y-173550000D03*
%TD*%
D10*
%TO.C,J16*%
X78500000Y-111000000D03*
D11*
X78500000Y-108460000D03*
%TD*%
D17*
%TO.C,H1*%
X65500000Y-178000000D03*
%TD*%
D18*
%TO.C,J24*%
X46950000Y-110125000D03*
D19*
X49490000Y-110125000D03*
X52030000Y-110125000D03*
%TD*%
D10*
%TO.C,J21*%
X78500000Y-146013300D03*
D11*
X78500000Y-143473300D03*
%TD*%
D10*
%TO.C,J22*%
X78500000Y-153000000D03*
D11*
X78500000Y-150460000D03*
%TD*%
D17*
%TO.C,H2*%
X49000000Y-134000000D03*
%TD*%
D10*
%TO.C,J3*%
X34500000Y-166640000D03*
D11*
X34500000Y-169180000D03*
%TD*%
D10*
%TO.C,J11*%
X34500000Y-148072200D03*
D11*
X34500000Y-150612200D03*
%TD*%
D10*
%TO.C,J19*%
X78500000Y-132026700D03*
D11*
X78500000Y-129486700D03*
%TD*%
M02*
