M48
; DRILL file {KiCad 6.0.7-f9a2dced07~116~ubuntu20.04.1} date Tue Aug 30 20:59:09 2022
; FORMAT={-:-/ absolute / metric / decimal}
; #@! TF.CreationDate,2022-08-30T20:59:09+02:00
; #@! TF.GenerationSoftware,Kicad,Pcbnew,6.0.7-f9a2dced07~116~ubuntu20.04.1
; #@! TF.FileFunction,MixedPlating,1,2
FMAT,2
METRIC
; #@! TA.AperFunction,Plated,PTH,ViaDrill
T1C0.400
; #@! TA.AperFunction,Plated,PTH,ComponentDrill
T2C1.000
; #@! TA.AperFunction,Plated,PTH,ComponentDrill
T3C1.100
; #@! TA.AperFunction,Plated,PTH,ComponentDrill
T4C1.200
; #@! TA.AperFunction,Plated,PTH,ComponentDrill
T5C1.300
; #@! TA.AperFunction,NonPlated,NPTH,ComponentDrill
T6C4.300
%
G90
G05
T1
X36.35Y-149.966
X38.525Y-154.012
X40.167Y-135.022
X42.548Y-139.073
X43.338Y-136.9
X44.242Y-149.95
X44.837Y-126.828
X44.867Y-125.146
X45.229Y-153.326
X46.642Y-136.156
X46.756Y-129.199
X47.442Y-138.783
X47.654Y-137.782
X47.984Y-135.499
X50.62Y-134.24
X51.511Y-133.7
X54.675Y-136.178
X55.175Y-118.497
X55.314Y-138.307
X55.531Y-128.886
X55.847Y-135.49
X56.264Y-136.721
X57.089Y-131.152
X59.464Y-136.508
X61.033Y-131.96
X64.412Y-132.663
X64.551Y-137.233
X64.626Y-133.712
X64.816Y-131.53
X65.671Y-127.867
X65.826Y-135.112
X67.112Y-136.397
X67.277Y-135.397
X72.287Y-126.732
T2
X52.965Y-110.747
X52.965Y-113.287
X55.505Y-110.747
X55.505Y-113.287
X58.045Y-110.747
X58.045Y-113.287
T3
X34.0Y-120.57
X34.0Y-123.11
X34.0Y-125.65
X34.0Y-128.19
X34.0Y-130.73
X34.0Y-133.27
X34.0Y-135.81
X34.0Y-138.35
X34.0Y-140.89
X34.0Y-143.43
X34.0Y-146.57
X34.0Y-149.11
X34.0Y-151.65
X34.0Y-154.19
X34.0Y-156.73
X34.0Y-159.27
X34.0Y-161.81
X34.0Y-164.35
X34.0Y-166.89
X34.0Y-169.43
X48.9Y-152.0
X49.075Y-168.0
X51.44Y-152.0
X51.615Y-168.0
X53.98Y-152.0
X54.155Y-168.0
X62.925Y-152.0
X63.1Y-168.0
X65.465Y-152.0
X65.64Y-168.0
X68.005Y-152.0
X68.18Y-168.0
X80.5Y-120.53
X80.5Y-123.07
X80.5Y-125.61
X80.5Y-128.15
X80.5Y-130.69
X80.5Y-133.23
X80.5Y-135.77
X80.5Y-138.31
X80.5Y-140.85
X80.5Y-143.39
X80.5Y-145.93
X80.5Y-148.47
T4
X76.5Y-154.0
X76.5Y-159.492
X76.5Y-164.983
X76.5Y-170.475
X82.5Y-154.0
X82.5Y-159.492
X82.5Y-164.983
X82.5Y-170.475
T5
X53.955Y-178.805
X59.035Y-178.805
T6
X34.0Y-179.0
X80.0Y-111.5
T0
M30
