%TF.GenerationSoftware,KiCad,Pcbnew,6.0.8-f2edbf62ab~116~ubuntu20.04.1*%
%TF.CreationDate,2022-10-06T23:30:32+02:00*%
%TF.ProjectId,mc unit,6d632075-6e69-4742-9e6b-696361645f70,rev?*%
%TF.SameCoordinates,Original*%
%TF.FileFunction,Legend,Top*%
%TF.FilePolarity,Positive*%
%FSLAX46Y46*%
G04 Gerber Fmt 4.6, Leading zero omitted, Abs format (unit mm)*
G04 Created by KiCad (PCBNEW 6.0.8-f2edbf62ab~116~ubuntu20.04.1) date 2022-10-06 23:30:32*
%MOMM*%
%LPD*%
G01*
G04 APERTURE LIST*
%ADD10C,0.150000*%
%ADD11C,0.120000*%
G04 APERTURE END LIST*
D10*
X57285714Y-184571428D02*
X58047619Y-184571428D01*
X57666666Y-184952380D02*
X57666666Y-184190476D01*
X59047619Y-184952380D02*
X58476190Y-184952380D01*
X58761904Y-184952380D02*
X58761904Y-183952380D01*
X58666666Y-184095238D01*
X58571428Y-184190476D01*
X58476190Y-184238095D01*
X59428571Y-184047619D02*
X59476190Y-184000000D01*
X59571428Y-183952380D01*
X59809523Y-183952380D01*
X59904761Y-184000000D01*
X59952380Y-184047619D01*
X60000000Y-184142857D01*
X60000000Y-184238095D01*
X59952380Y-184380952D01*
X59380952Y-184952380D01*
X60000000Y-184952380D01*
X60333333Y-184285714D02*
X60571428Y-184952380D01*
X60809523Y-184285714D01*
X48952380Y-108190476D02*
X48952380Y-107619047D01*
X49952380Y-107904761D02*
X48952380Y-107904761D01*
X49952380Y-107380952D02*
X49285714Y-106857142D01*
X49285714Y-107380952D02*
X49952380Y-106857142D01*
X49952380Y-106476190D02*
X48952380Y-106476190D01*
X48952380Y-106238095D01*
X49000000Y-106095238D01*
X49095238Y-106000000D01*
X49190476Y-105952380D01*
X49380952Y-105904761D01*
X49523809Y-105904761D01*
X49714285Y-105952380D01*
X49809523Y-106000000D01*
X49904761Y-106095238D01*
X49952380Y-106238095D01*
X49952380Y-106476190D01*
X52482380Y-107595238D02*
X52006190Y-107928571D01*
X52482380Y-108166666D02*
X51482380Y-108166666D01*
X51482380Y-107785714D01*
X51530000Y-107690476D01*
X51577619Y-107642857D01*
X51672857Y-107595238D01*
X51815714Y-107595238D01*
X51910952Y-107642857D01*
X51958571Y-107690476D01*
X52006190Y-107785714D01*
X52006190Y-108166666D01*
X52482380Y-107261904D02*
X51815714Y-106738095D01*
X51815714Y-107261904D02*
X52482380Y-106738095D01*
X52482380Y-106357142D02*
X51482380Y-106357142D01*
X51482380Y-106119047D01*
X51530000Y-105976190D01*
X51625238Y-105880952D01*
X51720476Y-105833333D01*
X51910952Y-105785714D01*
X52053809Y-105785714D01*
X52244285Y-105833333D01*
X52339523Y-105880952D01*
X52434761Y-105976190D01*
X52482380Y-106119047D01*
X52482380Y-106357142D01*
X52357142Y-184000000D02*
X52261904Y-183952380D01*
X52119047Y-183952380D01*
X51976190Y-184000000D01*
X51880952Y-184095238D01*
X51833333Y-184190476D01*
X51785714Y-184380952D01*
X51785714Y-184523809D01*
X51833333Y-184714285D01*
X51880952Y-184809523D01*
X51976190Y-184904761D01*
X52119047Y-184952380D01*
X52214285Y-184952380D01*
X52357142Y-184904761D01*
X52404761Y-184857142D01*
X52404761Y-184523809D01*
X52214285Y-184523809D01*
X52833333Y-184285714D02*
X52833333Y-184952380D01*
X52833333Y-184380952D02*
X52880952Y-184333333D01*
X52976190Y-184285714D01*
X53119047Y-184285714D01*
X53214285Y-184333333D01*
X53261904Y-184428571D01*
X53261904Y-184952380D01*
X54166666Y-184952380D02*
X54166666Y-183952380D01*
X54166666Y-184904761D02*
X54071428Y-184952380D01*
X53880952Y-184952380D01*
X53785714Y-184904761D01*
X53738095Y-184857142D01*
X53690476Y-184761904D01*
X53690476Y-184476190D01*
X53738095Y-184380952D01*
X53785714Y-184333333D01*
X53880952Y-184285714D01*
X54071428Y-184285714D01*
X54166666Y-184333333D01*
X46500000Y-107642857D02*
X46452380Y-107738095D01*
X46452380Y-107880952D01*
X46500000Y-108023809D01*
X46595238Y-108119047D01*
X46690476Y-108166666D01*
X46880952Y-108214285D01*
X47023809Y-108214285D01*
X47214285Y-108166666D01*
X47309523Y-108119047D01*
X47404761Y-108023809D01*
X47452380Y-107880952D01*
X47452380Y-107785714D01*
X47404761Y-107642857D01*
X47357142Y-107595238D01*
X47023809Y-107595238D01*
X47023809Y-107785714D01*
X46785714Y-107166666D02*
X47452380Y-107166666D01*
X46880952Y-107166666D02*
X46833333Y-107119047D01*
X46785714Y-107023809D01*
X46785714Y-106880952D01*
X46833333Y-106785714D01*
X46928571Y-106738095D01*
X47452380Y-106738095D01*
X47452380Y-105833333D02*
X46452380Y-105833333D01*
X47404761Y-105833333D02*
X47452380Y-105928571D01*
X47452380Y-106119047D01*
X47404761Y-106214285D01*
X47357142Y-106261904D01*
X47261904Y-106309523D01*
X46976190Y-106309523D01*
X46880952Y-106261904D01*
X46833333Y-106214285D01*
X46785714Y-106119047D01*
X46785714Y-105928571D01*
X46833333Y-105833333D01*
X51904761Y-194802380D02*
X51428571Y-194802380D01*
X51380952Y-195278571D01*
X51428571Y-195230952D01*
X51523809Y-195183333D01*
X51761904Y-195183333D01*
X51857142Y-195230952D01*
X51904761Y-195278571D01*
X51952380Y-195373809D01*
X51952380Y-195611904D01*
X51904761Y-195707142D01*
X51857142Y-195754761D01*
X51761904Y-195802380D01*
X51523809Y-195802380D01*
X51428571Y-195754761D01*
X51380952Y-195707142D01*
X52285714Y-194802380D02*
X52904761Y-194802380D01*
X52571428Y-195183333D01*
X52714285Y-195183333D01*
X52809523Y-195230952D01*
X52857142Y-195278571D01*
X52904761Y-195373809D01*
X52904761Y-195611904D01*
X52857142Y-195707142D01*
X52809523Y-195754761D01*
X52714285Y-195802380D01*
X52428571Y-195802380D01*
X52333333Y-195754761D01*
X52285714Y-195707142D01*
X53380952Y-195754761D02*
X53380952Y-195802380D01*
X53333333Y-195897619D01*
X53285714Y-195945238D01*
X53999999Y-194802380D02*
X54095238Y-194802380D01*
X54190476Y-194850000D01*
X54238095Y-194897619D01*
X54285714Y-194992857D01*
X54333333Y-195183333D01*
X54333333Y-195421428D01*
X54285714Y-195611904D01*
X54238095Y-195707142D01*
X54190476Y-195754761D01*
X54095238Y-195802380D01*
X53999999Y-195802380D01*
X53904761Y-195754761D01*
X53857142Y-195707142D01*
X53809523Y-195611904D01*
X53761904Y-195421428D01*
X53761904Y-195183333D01*
X53809523Y-194992857D01*
X53857142Y-194897619D01*
X53904761Y-194850000D01*
X53999999Y-194802380D01*
X54952380Y-194802380D02*
X55047619Y-194802380D01*
X55142857Y-194850000D01*
X55190476Y-194897619D01*
X55238095Y-194992857D01*
X55285714Y-195183333D01*
X55285714Y-195421428D01*
X55238095Y-195611904D01*
X55190476Y-195707142D01*
X55142857Y-195754761D01*
X55047619Y-195802380D01*
X54952380Y-195802380D01*
X54857142Y-195754761D01*
X54809523Y-195707142D01*
X54761904Y-195611904D01*
X54714285Y-195421428D01*
X54714285Y-195183333D01*
X54761904Y-194992857D01*
X54809523Y-194897619D01*
X54857142Y-194850000D01*
X54952380Y-194802380D01*
X55904761Y-194802380D02*
X55999999Y-194802380D01*
X56095238Y-194850000D01*
X56142857Y-194897619D01*
X56190476Y-194992857D01*
X56238095Y-195183333D01*
X56238095Y-195421428D01*
X56190476Y-195611904D01*
X56142857Y-195707142D01*
X56095238Y-195754761D01*
X55999999Y-195802380D01*
X55904761Y-195802380D01*
X55809523Y-195754761D01*
X55761904Y-195707142D01*
X55714285Y-195611904D01*
X55666666Y-195421428D01*
X55666666Y-195183333D01*
X55714285Y-194992857D01*
X55761904Y-194897619D01*
X55809523Y-194850000D01*
X55904761Y-194802380D01*
X56857142Y-194802380D02*
X56952380Y-194802380D01*
X57047619Y-194850000D01*
X57095238Y-194897619D01*
X57142857Y-194992857D01*
X57190476Y-195183333D01*
X57190476Y-195421428D01*
X57142857Y-195611904D01*
X57095238Y-195707142D01*
X57047619Y-195754761D01*
X56952380Y-195802380D01*
X56857142Y-195802380D01*
X56761904Y-195754761D01*
X56714285Y-195707142D01*
X56666666Y-195611904D01*
X56619047Y-195421428D01*
X56619047Y-195183333D01*
X56666666Y-194992857D01*
X56714285Y-194897619D01*
X56761904Y-194850000D01*
X56857142Y-194802380D01*
X58380952Y-195802380D02*
X58380952Y-195135714D01*
X58380952Y-195230952D02*
X58428571Y-195183333D01*
X58523809Y-195135714D01*
X58666666Y-195135714D01*
X58761904Y-195183333D01*
X58809523Y-195278571D01*
X58809523Y-195802380D01*
X58809523Y-195278571D02*
X58857142Y-195183333D01*
X58952380Y-195135714D01*
X59095238Y-195135714D01*
X59190476Y-195183333D01*
X59238095Y-195278571D01*
X59238095Y-195802380D01*
X59714285Y-195802380D02*
X59714285Y-195135714D01*
X59714285Y-195230952D02*
X59761904Y-195183333D01*
X59857142Y-195135714D01*
X60000000Y-195135714D01*
X60095238Y-195183333D01*
X60142857Y-195278571D01*
X60142857Y-195802380D01*
X60142857Y-195278571D02*
X60190476Y-195183333D01*
X60285714Y-195135714D01*
X60428571Y-195135714D01*
X60523809Y-195183333D01*
X60571428Y-195278571D01*
X60571428Y-195802380D01*
X29500000Y-193500000D02*
X29500000Y-197086420D01*
X82500000Y-193500000D02*
X82500000Y-197086420D01*
X29500000Y-196500000D02*
X82500000Y-196500000D01*
X29500000Y-196500000D02*
X82500000Y-196500000D01*
X29500000Y-196500000D02*
X30626504Y-197086421D01*
X29500000Y-196500000D02*
X30626504Y-195913579D01*
X82500000Y-196500000D02*
X81373496Y-195913579D01*
X82500000Y-196500000D02*
X81373496Y-197086421D01*
%TO.C,J29*%
X73582380Y-182539523D02*
X74296666Y-182539523D01*
X74439523Y-182587142D01*
X74534761Y-182682380D01*
X74582380Y-182825238D01*
X74582380Y-182920476D01*
X73677619Y-182110952D02*
X73630000Y-182063333D01*
X73582380Y-181968095D01*
X73582380Y-181730000D01*
X73630000Y-181634761D01*
X73677619Y-181587142D01*
X73772857Y-181539523D01*
X73868095Y-181539523D01*
X74010952Y-181587142D01*
X74582380Y-182158571D01*
X74582380Y-181539523D01*
X74582380Y-181063333D02*
X74582380Y-180872857D01*
X74534761Y-180777619D01*
X74487142Y-180730000D01*
X74344285Y-180634761D01*
X74153809Y-180587142D01*
X73772857Y-180587142D01*
X73677619Y-180634761D01*
X73630000Y-180682380D01*
X73582380Y-180777619D01*
X73582380Y-180968095D01*
X73630000Y-181063333D01*
X73677619Y-181110952D01*
X73772857Y-181158571D01*
X74010952Y-181158571D01*
X74106190Y-181110952D01*
X74153809Y-181063333D01*
X74201428Y-180968095D01*
X74201428Y-180777619D01*
X74153809Y-180682380D01*
X74106190Y-180634761D01*
X74010952Y-180587142D01*
%TO.C,Q3*%
X70904761Y-172390919D02*
X70809523Y-172343300D01*
X70714285Y-172248061D01*
X70571428Y-172105204D01*
X70476190Y-172057585D01*
X70380952Y-172057585D01*
X70428571Y-172295680D02*
X70333333Y-172248061D01*
X70238095Y-172152823D01*
X70190476Y-171962347D01*
X70190476Y-171629014D01*
X70238095Y-171438538D01*
X70333333Y-171343300D01*
X70428571Y-171295680D01*
X70619047Y-171295680D01*
X70714285Y-171343300D01*
X70809523Y-171438538D01*
X70857142Y-171629014D01*
X70857142Y-171962347D01*
X70809523Y-172152823D01*
X70714285Y-172248061D01*
X70619047Y-172295680D01*
X70428571Y-172295680D01*
X71190476Y-171295680D02*
X71809523Y-171295680D01*
X71476190Y-171676633D01*
X71619047Y-171676633D01*
X71714285Y-171724252D01*
X71761904Y-171771871D01*
X71809523Y-171867109D01*
X71809523Y-172105204D01*
X71761904Y-172200442D01*
X71714285Y-172248061D01*
X71619047Y-172295680D01*
X71333333Y-172295680D01*
X71238095Y-172248061D01*
X71190476Y-172200442D01*
%TO.C,Q4*%
X70904761Y-179147619D02*
X70809523Y-179100000D01*
X70714285Y-179004761D01*
X70571428Y-178861904D01*
X70476190Y-178814285D01*
X70380952Y-178814285D01*
X70428571Y-179052380D02*
X70333333Y-179004761D01*
X70238095Y-178909523D01*
X70190476Y-178719047D01*
X70190476Y-178385714D01*
X70238095Y-178195238D01*
X70333333Y-178100000D01*
X70428571Y-178052380D01*
X70619047Y-178052380D01*
X70714285Y-178100000D01*
X70809523Y-178195238D01*
X70857142Y-178385714D01*
X70857142Y-178719047D01*
X70809523Y-178909523D01*
X70714285Y-179004761D01*
X70619047Y-179052380D01*
X70428571Y-179052380D01*
X71714285Y-178385714D02*
X71714285Y-179052380D01*
X71476190Y-178004761D02*
X71238095Y-178719047D01*
X71857142Y-178719047D01*
%TO.C,C8*%
X43333333Y-152357142D02*
X43285714Y-152404761D01*
X43142857Y-152452380D01*
X43047619Y-152452380D01*
X42904761Y-152404761D01*
X42809523Y-152309523D01*
X42761904Y-152214285D01*
X42714285Y-152023809D01*
X42714285Y-151880952D01*
X42761904Y-151690476D01*
X42809523Y-151595238D01*
X42904761Y-151500000D01*
X43047619Y-151452380D01*
X43142857Y-151452380D01*
X43285714Y-151500000D01*
X43333333Y-151547619D01*
X43904761Y-151880952D02*
X43809523Y-151833333D01*
X43761904Y-151785714D01*
X43714285Y-151690476D01*
X43714285Y-151642857D01*
X43761904Y-151547619D01*
X43809523Y-151500000D01*
X43904761Y-151452380D01*
X44095238Y-151452380D01*
X44190476Y-151500000D01*
X44238095Y-151547619D01*
X44285714Y-151642857D01*
X44285714Y-151690476D01*
X44238095Y-151785714D01*
X44190476Y-151833333D01*
X44095238Y-151880952D01*
X43904761Y-151880952D01*
X43809523Y-151928571D01*
X43761904Y-151976190D01*
X43714285Y-152071428D01*
X43714285Y-152261904D01*
X43761904Y-152357142D01*
X43809523Y-152404761D01*
X43904761Y-152452380D01*
X44095238Y-152452380D01*
X44190476Y-152404761D01*
X44238095Y-152357142D01*
X44285714Y-152261904D01*
X44285714Y-152071428D01*
X44238095Y-151976190D01*
X44190476Y-151928571D01*
X44095238Y-151880952D01*
%TO.C,C6*%
X43333333Y-136357142D02*
X43285714Y-136404761D01*
X43142857Y-136452380D01*
X43047619Y-136452380D01*
X42904761Y-136404761D01*
X42809523Y-136309523D01*
X42761904Y-136214285D01*
X42714285Y-136023809D01*
X42714285Y-135880952D01*
X42761904Y-135690476D01*
X42809523Y-135595238D01*
X42904761Y-135500000D01*
X43047619Y-135452380D01*
X43142857Y-135452380D01*
X43285714Y-135500000D01*
X43333333Y-135547619D01*
X44190476Y-135452380D02*
X44000000Y-135452380D01*
X43904761Y-135500000D01*
X43857142Y-135547619D01*
X43761904Y-135690476D01*
X43714285Y-135880952D01*
X43714285Y-136261904D01*
X43761904Y-136357142D01*
X43809523Y-136404761D01*
X43904761Y-136452380D01*
X44095238Y-136452380D01*
X44190476Y-136404761D01*
X44238095Y-136357142D01*
X44285714Y-136261904D01*
X44285714Y-136023809D01*
X44238095Y-135928571D01*
X44190476Y-135880952D01*
X44095238Y-135833333D01*
X43904761Y-135833333D01*
X43809523Y-135880952D01*
X43761904Y-135928571D01*
X43714285Y-136023809D01*
%TO.C,J1*%
X56166666Y-179952380D02*
X56166666Y-180666666D01*
X56119047Y-180809523D01*
X56023809Y-180904761D01*
X55880952Y-180952380D01*
X55785714Y-180952380D01*
X57166666Y-180952380D02*
X56595238Y-180952380D01*
X56880952Y-180952380D02*
X56880952Y-179952380D01*
X56785714Y-180095238D01*
X56690476Y-180190476D01*
X56595238Y-180238095D01*
%TO.C,J8*%
X29952380Y-125932233D02*
X30666666Y-125932233D01*
X30809523Y-125979852D01*
X30904761Y-126075090D01*
X30952380Y-126217947D01*
X30952380Y-126313185D01*
X30380952Y-125313185D02*
X30333333Y-125408423D01*
X30285714Y-125456042D01*
X30190476Y-125503661D01*
X30142857Y-125503661D01*
X30047619Y-125456042D01*
X30000000Y-125408423D01*
X29952380Y-125313185D01*
X29952380Y-125122709D01*
X30000000Y-125027471D01*
X30047619Y-124979852D01*
X30142857Y-124932233D01*
X30190476Y-124932233D01*
X30285714Y-124979852D01*
X30333333Y-125027471D01*
X30380952Y-125122709D01*
X30380952Y-125313185D01*
X30428571Y-125408423D01*
X30476190Y-125456042D01*
X30571428Y-125503661D01*
X30761904Y-125503661D01*
X30857142Y-125456042D01*
X30904761Y-125408423D01*
X30952380Y-125313185D01*
X30952380Y-125122709D01*
X30904761Y-125027471D01*
X30857142Y-124979852D01*
X30761904Y-124932233D01*
X30571428Y-124932233D01*
X30476190Y-124979852D01*
X30428571Y-125027471D01*
X30380952Y-125122709D01*
%TO.C,D1*%
X47302380Y-182238095D02*
X46302380Y-182238095D01*
X46302380Y-182000000D01*
X46350000Y-181857142D01*
X46445238Y-181761904D01*
X46540476Y-181714285D01*
X46730952Y-181666666D01*
X46873809Y-181666666D01*
X47064285Y-181714285D01*
X47159523Y-181761904D01*
X47254761Y-181857142D01*
X47302380Y-182000000D01*
X47302380Y-182238095D01*
X47302380Y-180714285D02*
X47302380Y-181285714D01*
X47302380Y-181000000D02*
X46302380Y-181000000D01*
X46445238Y-181095238D01*
X46540476Y-181190476D01*
X46588095Y-181285714D01*
%TO.C,RV1*%
X63452380Y-126095238D02*
X62976190Y-126428571D01*
X63452380Y-126666666D02*
X62452380Y-126666666D01*
X62452380Y-126285714D01*
X62500000Y-126190476D01*
X62547619Y-126142857D01*
X62642857Y-126095238D01*
X62785714Y-126095238D01*
X62880952Y-126142857D01*
X62928571Y-126190476D01*
X62976190Y-126285714D01*
X62976190Y-126666666D01*
X62452380Y-125809523D02*
X63452380Y-125476190D01*
X62452380Y-125142857D01*
X63452380Y-124285714D02*
X63452380Y-124857142D01*
X63452380Y-124571428D02*
X62452380Y-124571428D01*
X62595238Y-124666666D01*
X62690476Y-124761904D01*
X62738095Y-124857142D01*
%TO.C,R2*%
X43333333Y-108952380D02*
X43000000Y-108476190D01*
X42761904Y-108952380D02*
X42761904Y-107952380D01*
X43142857Y-107952380D01*
X43238095Y-108000000D01*
X43285714Y-108047619D01*
X43333333Y-108142857D01*
X43333333Y-108285714D01*
X43285714Y-108380952D01*
X43238095Y-108428571D01*
X43142857Y-108476190D01*
X42761904Y-108476190D01*
X43714285Y-108047619D02*
X43761904Y-108000000D01*
X43857142Y-107952380D01*
X44095238Y-107952380D01*
X44190476Y-108000000D01*
X44238095Y-108047619D01*
X44285714Y-108142857D01*
X44285714Y-108238095D01*
X44238095Y-108380952D01*
X43666666Y-108952380D01*
X44285714Y-108952380D01*
%TO.C,R27*%
X43332142Y-182927380D02*
X42998809Y-182451190D01*
X42760714Y-182927380D02*
X42760714Y-181927380D01*
X43141666Y-181927380D01*
X43236904Y-181975000D01*
X43284523Y-182022619D01*
X43332142Y-182117857D01*
X43332142Y-182260714D01*
X43284523Y-182355952D01*
X43236904Y-182403571D01*
X43141666Y-182451190D01*
X42760714Y-182451190D01*
X43713095Y-182022619D02*
X43760714Y-181975000D01*
X43855952Y-181927380D01*
X44094047Y-181927380D01*
X44189285Y-181975000D01*
X44236904Y-182022619D01*
X44284523Y-182117857D01*
X44284523Y-182213095D01*
X44236904Y-182355952D01*
X43665476Y-182927380D01*
X44284523Y-182927380D01*
X44617857Y-181927380D02*
X45284523Y-181927380D01*
X44855952Y-182927380D01*
%TO.C,U5*%
X65738095Y-144952380D02*
X65738095Y-145761904D01*
X65785714Y-145857142D01*
X65833333Y-145904761D01*
X65928571Y-145952380D01*
X66119047Y-145952380D01*
X66214285Y-145904761D01*
X66261904Y-145857142D01*
X66309523Y-145761904D01*
X66309523Y-144952380D01*
X67261904Y-144952380D02*
X66785714Y-144952380D01*
X66738095Y-145428571D01*
X66785714Y-145380952D01*
X66880952Y-145333333D01*
X67119047Y-145333333D01*
X67214285Y-145380952D01*
X67261904Y-145428571D01*
X67309523Y-145523809D01*
X67309523Y-145761904D01*
X67261904Y-145857142D01*
X67214285Y-145904761D01*
X67119047Y-145952380D01*
X66880952Y-145952380D01*
X66785714Y-145904761D01*
X66738095Y-145857142D01*
%TO.C,J4*%
X29952380Y-175153333D02*
X30666666Y-175153333D01*
X30809523Y-175200952D01*
X30904761Y-175296190D01*
X30952380Y-175439047D01*
X30952380Y-175534285D01*
X30285714Y-174248571D02*
X30952380Y-174248571D01*
X29904761Y-174486666D02*
X30619047Y-174724761D01*
X30619047Y-174105714D01*
%TO.C,R9*%
X43333333Y-126452380D02*
X43000000Y-125976190D01*
X42761904Y-126452380D02*
X42761904Y-125452380D01*
X43142857Y-125452380D01*
X43238095Y-125500000D01*
X43285714Y-125547619D01*
X43333333Y-125642857D01*
X43333333Y-125785714D01*
X43285714Y-125880952D01*
X43238095Y-125928571D01*
X43142857Y-125976190D01*
X42761904Y-125976190D01*
X43809523Y-126452380D02*
X44000000Y-126452380D01*
X44095238Y-126404761D01*
X44142857Y-126357142D01*
X44238095Y-126214285D01*
X44285714Y-126023809D01*
X44285714Y-125642857D01*
X44238095Y-125547619D01*
X44190476Y-125500000D01*
X44095238Y-125452380D01*
X43904761Y-125452380D01*
X43809523Y-125500000D01*
X43761904Y-125547619D01*
X43714285Y-125642857D01*
X43714285Y-125880952D01*
X43761904Y-125976190D01*
X43809523Y-126023809D01*
X43904761Y-126071428D01*
X44095238Y-126071428D01*
X44190476Y-126023809D01*
X44238095Y-125976190D01*
X44285714Y-125880952D01*
%TO.C,R23*%
X43357142Y-169452380D02*
X43023809Y-168976190D01*
X42785714Y-169452380D02*
X42785714Y-168452380D01*
X43166666Y-168452380D01*
X43261904Y-168500000D01*
X43309523Y-168547619D01*
X43357142Y-168642857D01*
X43357142Y-168785714D01*
X43309523Y-168880952D01*
X43261904Y-168928571D01*
X43166666Y-168976190D01*
X42785714Y-168976190D01*
X43738095Y-168547619D02*
X43785714Y-168500000D01*
X43880952Y-168452380D01*
X44119047Y-168452380D01*
X44214285Y-168500000D01*
X44261904Y-168547619D01*
X44309523Y-168642857D01*
X44309523Y-168738095D01*
X44261904Y-168880952D01*
X43690476Y-169452380D01*
X44309523Y-169452380D01*
X44642857Y-168452380D02*
X45261904Y-168452380D01*
X44928571Y-168833333D01*
X45071428Y-168833333D01*
X45166666Y-168880952D01*
X45214285Y-168928571D01*
X45261904Y-169023809D01*
X45261904Y-169261904D01*
X45214285Y-169357142D01*
X45166666Y-169404761D01*
X45071428Y-169452380D01*
X44785714Y-169452380D01*
X44690476Y-169404761D01*
X44642857Y-169357142D01*
%TO.C,R14*%
X43357142Y-140952380D02*
X43023809Y-140476190D01*
X42785714Y-140952380D02*
X42785714Y-139952380D01*
X43166666Y-139952380D01*
X43261904Y-140000000D01*
X43309523Y-140047619D01*
X43357142Y-140142857D01*
X43357142Y-140285714D01*
X43309523Y-140380952D01*
X43261904Y-140428571D01*
X43166666Y-140476190D01*
X42785714Y-140476190D01*
X44309523Y-140952380D02*
X43738095Y-140952380D01*
X44023809Y-140952380D02*
X44023809Y-139952380D01*
X43928571Y-140095238D01*
X43833333Y-140190476D01*
X43738095Y-140238095D01*
X45166666Y-140285714D02*
X45166666Y-140952380D01*
X44928571Y-139904761D02*
X44690476Y-140619047D01*
X45309523Y-140619047D01*
%TO.C,C11*%
X52357142Y-157642857D02*
X52404761Y-157690476D01*
X52452380Y-157833333D01*
X52452380Y-157928571D01*
X52404761Y-158071428D01*
X52309523Y-158166666D01*
X52214285Y-158214285D01*
X52023809Y-158261904D01*
X51880952Y-158261904D01*
X51690476Y-158214285D01*
X51595238Y-158166666D01*
X51500000Y-158071428D01*
X51452380Y-157928571D01*
X51452380Y-157833333D01*
X51500000Y-157690476D01*
X51547619Y-157642857D01*
X52452380Y-156690476D02*
X52452380Y-157261904D01*
X52452380Y-156976190D02*
X51452380Y-156976190D01*
X51595238Y-157071428D01*
X51690476Y-157166666D01*
X51738095Y-157261904D01*
X52452380Y-155738095D02*
X52452380Y-156309523D01*
X52452380Y-156023809D02*
X51452380Y-156023809D01*
X51595238Y-156119047D01*
X51690476Y-156214285D01*
X51738095Y-156309523D01*
%TO.C,R6*%
X43333333Y-118452380D02*
X43000000Y-117976190D01*
X42761904Y-118452380D02*
X42761904Y-117452380D01*
X43142857Y-117452380D01*
X43238095Y-117500000D01*
X43285714Y-117547619D01*
X43333333Y-117642857D01*
X43333333Y-117785714D01*
X43285714Y-117880952D01*
X43238095Y-117928571D01*
X43142857Y-117976190D01*
X42761904Y-117976190D01*
X44190476Y-117452380D02*
X44000000Y-117452380D01*
X43904761Y-117500000D01*
X43857142Y-117547619D01*
X43761904Y-117690476D01*
X43714285Y-117880952D01*
X43714285Y-118261904D01*
X43761904Y-118357142D01*
X43809523Y-118404761D01*
X43904761Y-118452380D01*
X44095238Y-118452380D01*
X44190476Y-118404761D01*
X44238095Y-118357142D01*
X44285714Y-118261904D01*
X44285714Y-118023809D01*
X44238095Y-117928571D01*
X44190476Y-117880952D01*
X44095238Y-117833333D01*
X43904761Y-117833333D01*
X43809523Y-117880952D01*
X43761904Y-117928571D01*
X43714285Y-118023809D01*
%TO.C,J12*%
X58452380Y-111792023D02*
X59166666Y-111792023D01*
X59309523Y-111839642D01*
X59404761Y-111934880D01*
X59452380Y-112077738D01*
X59452380Y-112172976D01*
X59452380Y-110792023D02*
X59452380Y-111363452D01*
X59452380Y-111077738D02*
X58452380Y-111077738D01*
X58595238Y-111172976D01*
X58690476Y-111268214D01*
X58738095Y-111363452D01*
X58547619Y-110411071D02*
X58500000Y-110363452D01*
X58452380Y-110268214D01*
X58452380Y-110030119D01*
X58500000Y-109934880D01*
X58547619Y-109887261D01*
X58642857Y-109839642D01*
X58738095Y-109839642D01*
X58880952Y-109887261D01*
X59452380Y-110458690D01*
X59452380Y-109839642D01*
%TO.C,J10*%
X29952380Y-142237323D02*
X30666666Y-142237323D01*
X30809523Y-142284942D01*
X30904761Y-142380180D01*
X30952380Y-142523038D01*
X30952380Y-142618276D01*
X30952380Y-141237323D02*
X30952380Y-141808752D01*
X30952380Y-141523038D02*
X29952380Y-141523038D01*
X30095238Y-141618276D01*
X30190476Y-141713514D01*
X30238095Y-141808752D01*
X29952380Y-140618276D02*
X29952380Y-140523038D01*
X30000000Y-140427800D01*
X30047619Y-140380180D01*
X30142857Y-140332561D01*
X30333333Y-140284942D01*
X30571428Y-140284942D01*
X30761904Y-140332561D01*
X30857142Y-140380180D01*
X30904761Y-140427800D01*
X30952380Y-140523038D01*
X30952380Y-140618276D01*
X30904761Y-140713514D01*
X30857142Y-140761133D01*
X30761904Y-140808752D01*
X30571428Y-140856371D01*
X30333333Y-140856371D01*
X30142857Y-140808752D01*
X30047619Y-140761133D01*
X30000000Y-140713514D01*
X29952380Y-140618276D01*
%TO.C,J9*%
X29952380Y-133846633D02*
X30666666Y-133846633D01*
X30809523Y-133894252D01*
X30904761Y-133989490D01*
X30952380Y-134132347D01*
X30952380Y-134227585D01*
X30952380Y-133322823D02*
X30952380Y-133132347D01*
X30904761Y-133037109D01*
X30857142Y-132989490D01*
X30714285Y-132894252D01*
X30523809Y-132846633D01*
X30142857Y-132846633D01*
X30047619Y-132894252D01*
X30000000Y-132941871D01*
X29952380Y-133037109D01*
X29952380Y-133227585D01*
X30000000Y-133322823D01*
X30047619Y-133370442D01*
X30142857Y-133418061D01*
X30380952Y-133418061D01*
X30476190Y-133370442D01*
X30523809Y-133322823D01*
X30571428Y-133227585D01*
X30571428Y-133037109D01*
X30523809Y-132941871D01*
X30476190Y-132894252D01*
X30380952Y-132846633D01*
%TO.C,R17*%
X43357142Y-148952380D02*
X43023809Y-148476190D01*
X42785714Y-148952380D02*
X42785714Y-147952380D01*
X43166666Y-147952380D01*
X43261904Y-148000000D01*
X43309523Y-148047619D01*
X43357142Y-148142857D01*
X43357142Y-148285714D01*
X43309523Y-148380952D01*
X43261904Y-148428571D01*
X43166666Y-148476190D01*
X42785714Y-148476190D01*
X44309523Y-148952380D02*
X43738095Y-148952380D01*
X44023809Y-148952380D02*
X44023809Y-147952380D01*
X43928571Y-148095238D01*
X43833333Y-148190476D01*
X43738095Y-148238095D01*
X44642857Y-147952380D02*
X45309523Y-147952380D01*
X44880952Y-148952380D01*
%TO.C,J6*%
X29952380Y-110103333D02*
X30666666Y-110103333D01*
X30809523Y-110150952D01*
X30904761Y-110246190D01*
X30952380Y-110389047D01*
X30952380Y-110484285D01*
X29952380Y-109198571D02*
X29952380Y-109389047D01*
X30000000Y-109484285D01*
X30047619Y-109531904D01*
X30190476Y-109627142D01*
X30380952Y-109674761D01*
X30761904Y-109674761D01*
X30857142Y-109627142D01*
X30904761Y-109579523D01*
X30952380Y-109484285D01*
X30952380Y-109293809D01*
X30904761Y-109198571D01*
X30857142Y-109150952D01*
X30761904Y-109103333D01*
X30523809Y-109103333D01*
X30428571Y-109150952D01*
X30380952Y-109198571D01*
X30333333Y-109293809D01*
X30333333Y-109484285D01*
X30380952Y-109579523D01*
X30428571Y-109627142D01*
X30523809Y-109674761D01*
%TO.C,C5*%
X43333333Y-128357142D02*
X43285714Y-128404761D01*
X43142857Y-128452380D01*
X43047619Y-128452380D01*
X42904761Y-128404761D01*
X42809523Y-128309523D01*
X42761904Y-128214285D01*
X42714285Y-128023809D01*
X42714285Y-127880952D01*
X42761904Y-127690476D01*
X42809523Y-127595238D01*
X42904761Y-127500000D01*
X43047619Y-127452380D01*
X43142857Y-127452380D01*
X43285714Y-127500000D01*
X43333333Y-127547619D01*
X44238095Y-127452380D02*
X43761904Y-127452380D01*
X43714285Y-127928571D01*
X43761904Y-127880952D01*
X43857142Y-127833333D01*
X44095238Y-127833333D01*
X44190476Y-127880952D01*
X44238095Y-127928571D01*
X44285714Y-128023809D01*
X44285714Y-128261904D01*
X44238095Y-128357142D01*
X44190476Y-128404761D01*
X44095238Y-128452380D01*
X43857142Y-128452380D01*
X43761904Y-128404761D01*
X43714285Y-128357142D01*
%TO.C,J27*%
X73582380Y-168719523D02*
X74296666Y-168719523D01*
X74439523Y-168767142D01*
X74534761Y-168862380D01*
X74582380Y-169005238D01*
X74582380Y-169100476D01*
X73677619Y-168290952D02*
X73630000Y-168243333D01*
X73582380Y-168148095D01*
X73582380Y-167910000D01*
X73630000Y-167814761D01*
X73677619Y-167767142D01*
X73772857Y-167719523D01*
X73868095Y-167719523D01*
X74010952Y-167767142D01*
X74582380Y-168338571D01*
X74582380Y-167719523D01*
X73582380Y-167386190D02*
X73582380Y-166719523D01*
X74582380Y-167148095D01*
%TO.C,C1*%
X64357142Y-171204166D02*
X64404761Y-171251785D01*
X64452380Y-171394642D01*
X64452380Y-171489880D01*
X64404761Y-171632738D01*
X64309523Y-171727976D01*
X64214285Y-171775595D01*
X64023809Y-171823214D01*
X63880952Y-171823214D01*
X63690476Y-171775595D01*
X63595238Y-171727976D01*
X63500000Y-171632738D01*
X63452380Y-171489880D01*
X63452380Y-171394642D01*
X63500000Y-171251785D01*
X63547619Y-171204166D01*
X64452380Y-170251785D02*
X64452380Y-170823214D01*
X64452380Y-170537500D02*
X63452380Y-170537500D01*
X63595238Y-170632738D01*
X63690476Y-170727976D01*
X63738095Y-170823214D01*
%TO.C,R8*%
X43333333Y-124952380D02*
X43000000Y-124476190D01*
X42761904Y-124952380D02*
X42761904Y-123952380D01*
X43142857Y-123952380D01*
X43238095Y-124000000D01*
X43285714Y-124047619D01*
X43333333Y-124142857D01*
X43333333Y-124285714D01*
X43285714Y-124380952D01*
X43238095Y-124428571D01*
X43142857Y-124476190D01*
X42761904Y-124476190D01*
X43904761Y-124380952D02*
X43809523Y-124333333D01*
X43761904Y-124285714D01*
X43714285Y-124190476D01*
X43714285Y-124142857D01*
X43761904Y-124047619D01*
X43809523Y-124000000D01*
X43904761Y-123952380D01*
X44095238Y-123952380D01*
X44190476Y-124000000D01*
X44238095Y-124047619D01*
X44285714Y-124142857D01*
X44285714Y-124190476D01*
X44238095Y-124285714D01*
X44190476Y-124333333D01*
X44095238Y-124380952D01*
X43904761Y-124380952D01*
X43809523Y-124428571D01*
X43761904Y-124476190D01*
X43714285Y-124571428D01*
X43714285Y-124761904D01*
X43761904Y-124857142D01*
X43809523Y-124904761D01*
X43904761Y-124952380D01*
X44095238Y-124952380D01*
X44190476Y-124904761D01*
X44238095Y-124857142D01*
X44285714Y-124761904D01*
X44285714Y-124571428D01*
X44238095Y-124476190D01*
X44190476Y-124428571D01*
X44095238Y-124380952D01*
%TO.C,R24*%
X43357142Y-160452380D02*
X43023809Y-159976190D01*
X42785714Y-160452380D02*
X42785714Y-159452380D01*
X43166666Y-159452380D01*
X43261904Y-159500000D01*
X43309523Y-159547619D01*
X43357142Y-159642857D01*
X43357142Y-159785714D01*
X43309523Y-159880952D01*
X43261904Y-159928571D01*
X43166666Y-159976190D01*
X42785714Y-159976190D01*
X43738095Y-159547619D02*
X43785714Y-159500000D01*
X43880952Y-159452380D01*
X44119047Y-159452380D01*
X44214285Y-159500000D01*
X44261904Y-159547619D01*
X44309523Y-159642857D01*
X44309523Y-159738095D01*
X44261904Y-159880952D01*
X43690476Y-160452380D01*
X44309523Y-160452380D01*
X45166666Y-159785714D02*
X45166666Y-160452380D01*
X44928571Y-159404761D02*
X44690476Y-160119047D01*
X45309523Y-160119047D01*
%TO.C,J17*%
X73582380Y-117579523D02*
X74296666Y-117579523D01*
X74439523Y-117627142D01*
X74534761Y-117722380D01*
X74582380Y-117865238D01*
X74582380Y-117960476D01*
X74582380Y-116579523D02*
X74582380Y-117150952D01*
X74582380Y-116865238D02*
X73582380Y-116865238D01*
X73725238Y-116960476D01*
X73820476Y-117055714D01*
X73868095Y-117150952D01*
X73582380Y-116246190D02*
X73582380Y-115579523D01*
X74582380Y-116008095D01*
%TO.C,J7*%
X29952380Y-118017733D02*
X30666666Y-118017733D01*
X30809523Y-118065352D01*
X30904761Y-118160590D01*
X30952380Y-118303447D01*
X30952380Y-118398685D01*
X29952380Y-117636780D02*
X29952380Y-116970114D01*
X30952380Y-117398685D01*
%TO.C,U4*%
X51452380Y-146261904D02*
X52261904Y-146261904D01*
X52357142Y-146214285D01*
X52404761Y-146166666D01*
X52452380Y-146071428D01*
X52452380Y-145880952D01*
X52404761Y-145785714D01*
X52357142Y-145738095D01*
X52261904Y-145690476D01*
X51452380Y-145690476D01*
X51785714Y-144785714D02*
X52452380Y-144785714D01*
X51404761Y-145023809D02*
X52119047Y-145261904D01*
X52119047Y-144642857D01*
%TO.C,R22*%
X43357142Y-162452380D02*
X43023809Y-161976190D01*
X42785714Y-162452380D02*
X42785714Y-161452380D01*
X43166666Y-161452380D01*
X43261904Y-161500000D01*
X43309523Y-161547619D01*
X43357142Y-161642857D01*
X43357142Y-161785714D01*
X43309523Y-161880952D01*
X43261904Y-161928571D01*
X43166666Y-161976190D01*
X42785714Y-161976190D01*
X43738095Y-161547619D02*
X43785714Y-161500000D01*
X43880952Y-161452380D01*
X44119047Y-161452380D01*
X44214285Y-161500000D01*
X44261904Y-161547619D01*
X44309523Y-161642857D01*
X44309523Y-161738095D01*
X44261904Y-161880952D01*
X43690476Y-162452380D01*
X44309523Y-162452380D01*
X44690476Y-161547619D02*
X44738095Y-161500000D01*
X44833333Y-161452380D01*
X45071428Y-161452380D01*
X45166666Y-161500000D01*
X45214285Y-161547619D01*
X45261904Y-161642857D01*
X45261904Y-161738095D01*
X45214285Y-161880952D01*
X44642857Y-162452380D01*
X45261904Y-162452380D01*
%TO.C,R20*%
X46452380Y-154142857D02*
X45976190Y-154476190D01*
X46452380Y-154714285D02*
X45452380Y-154714285D01*
X45452380Y-154333333D01*
X45500000Y-154238095D01*
X45547619Y-154190476D01*
X45642857Y-154142857D01*
X45785714Y-154142857D01*
X45880952Y-154190476D01*
X45928571Y-154238095D01*
X45976190Y-154333333D01*
X45976190Y-154714285D01*
X45547619Y-153761904D02*
X45500000Y-153714285D01*
X45452380Y-153619047D01*
X45452380Y-153380952D01*
X45500000Y-153285714D01*
X45547619Y-153238095D01*
X45642857Y-153190476D01*
X45738095Y-153190476D01*
X45880952Y-153238095D01*
X46452380Y-153809523D01*
X46452380Y-153190476D01*
X45452380Y-152571428D02*
X45452380Y-152476190D01*
X45500000Y-152380952D01*
X45547619Y-152333333D01*
X45642857Y-152285714D01*
X45833333Y-152238095D01*
X46071428Y-152238095D01*
X46261904Y-152285714D01*
X46357142Y-152333333D01*
X46404761Y-152380952D01*
X46452380Y-152476190D01*
X46452380Y-152571428D01*
X46404761Y-152666666D01*
X46357142Y-152714285D01*
X46261904Y-152761904D01*
X46071428Y-152809523D01*
X45833333Y-152809523D01*
X45642857Y-152761904D01*
X45547619Y-152714285D01*
X45500000Y-152666666D01*
X45452380Y-152571428D01*
%TO.C,R28*%
X43357142Y-174452380D02*
X43023809Y-173976190D01*
X42785714Y-174452380D02*
X42785714Y-173452380D01*
X43166666Y-173452380D01*
X43261904Y-173500000D01*
X43309523Y-173547619D01*
X43357142Y-173642857D01*
X43357142Y-173785714D01*
X43309523Y-173880952D01*
X43261904Y-173928571D01*
X43166666Y-173976190D01*
X42785714Y-173976190D01*
X43738095Y-173547619D02*
X43785714Y-173500000D01*
X43880952Y-173452380D01*
X44119047Y-173452380D01*
X44214285Y-173500000D01*
X44261904Y-173547619D01*
X44309523Y-173642857D01*
X44309523Y-173738095D01*
X44261904Y-173880952D01*
X43690476Y-174452380D01*
X44309523Y-174452380D01*
X44880952Y-173880952D02*
X44785714Y-173833333D01*
X44738095Y-173785714D01*
X44690476Y-173690476D01*
X44690476Y-173642857D01*
X44738095Y-173547619D01*
X44785714Y-173500000D01*
X44880952Y-173452380D01*
X45071428Y-173452380D01*
X45166666Y-173500000D01*
X45214285Y-173547619D01*
X45261904Y-173642857D01*
X45261904Y-173690476D01*
X45214285Y-173785714D01*
X45166666Y-173833333D01*
X45071428Y-173880952D01*
X44880952Y-173880952D01*
X44785714Y-173928571D01*
X44738095Y-173976190D01*
X44690476Y-174071428D01*
X44690476Y-174261904D01*
X44738095Y-174357142D01*
X44785714Y-174404761D01*
X44880952Y-174452380D01*
X45071428Y-174452380D01*
X45166666Y-174404761D01*
X45214285Y-174357142D01*
X45261904Y-174261904D01*
X45261904Y-174071428D01*
X45214285Y-173976190D01*
X45166666Y-173928571D01*
X45071428Y-173880952D01*
%TO.C,C3*%
X43333333Y-112357142D02*
X43285714Y-112404761D01*
X43142857Y-112452380D01*
X43047619Y-112452380D01*
X42904761Y-112404761D01*
X42809523Y-112309523D01*
X42761904Y-112214285D01*
X42714285Y-112023809D01*
X42714285Y-111880952D01*
X42761904Y-111690476D01*
X42809523Y-111595238D01*
X42904761Y-111500000D01*
X43047619Y-111452380D01*
X43142857Y-111452380D01*
X43285714Y-111500000D01*
X43333333Y-111547619D01*
X43666666Y-111452380D02*
X44285714Y-111452380D01*
X43952380Y-111833333D01*
X44095238Y-111833333D01*
X44190476Y-111880952D01*
X44238095Y-111928571D01*
X44285714Y-112023809D01*
X44285714Y-112261904D01*
X44238095Y-112357142D01*
X44190476Y-112404761D01*
X44095238Y-112452380D01*
X43809523Y-112452380D01*
X43714285Y-112404761D01*
X43666666Y-112357142D01*
%TO.C,D2*%
X48761904Y-156952380D02*
X48761904Y-155952380D01*
X49000000Y-155952380D01*
X49142857Y-156000000D01*
X49238095Y-156095238D01*
X49285714Y-156190476D01*
X49333333Y-156380952D01*
X49333333Y-156523809D01*
X49285714Y-156714285D01*
X49238095Y-156809523D01*
X49142857Y-156904761D01*
X49000000Y-156952380D01*
X48761904Y-156952380D01*
X49714285Y-156047619D02*
X49761904Y-156000000D01*
X49857142Y-155952380D01*
X50095238Y-155952380D01*
X50190476Y-156000000D01*
X50238095Y-156047619D01*
X50285714Y-156142857D01*
X50285714Y-156238095D01*
X50238095Y-156380952D01*
X49666666Y-156952380D01*
X50285714Y-156952380D01*
%TO.C,R12*%
X43357142Y-134452380D02*
X43023809Y-133976190D01*
X42785714Y-134452380D02*
X42785714Y-133452380D01*
X43166666Y-133452380D01*
X43261904Y-133500000D01*
X43309523Y-133547619D01*
X43357142Y-133642857D01*
X43357142Y-133785714D01*
X43309523Y-133880952D01*
X43261904Y-133928571D01*
X43166666Y-133976190D01*
X42785714Y-133976190D01*
X44309523Y-134452380D02*
X43738095Y-134452380D01*
X44023809Y-134452380D02*
X44023809Y-133452380D01*
X43928571Y-133595238D01*
X43833333Y-133690476D01*
X43738095Y-133738095D01*
X44690476Y-133547619D02*
X44738095Y-133500000D01*
X44833333Y-133452380D01*
X45071428Y-133452380D01*
X45166666Y-133500000D01*
X45214285Y-133547619D01*
X45261904Y-133642857D01*
X45261904Y-133738095D01*
X45214285Y-133880952D01*
X44642857Y-134452380D01*
X45261904Y-134452380D01*
%TO.C,R1*%
X43333333Y-107452380D02*
X43000000Y-106976190D01*
X42761904Y-107452380D02*
X42761904Y-106452380D01*
X43142857Y-106452380D01*
X43238095Y-106500000D01*
X43285714Y-106547619D01*
X43333333Y-106642857D01*
X43333333Y-106785714D01*
X43285714Y-106880952D01*
X43238095Y-106928571D01*
X43142857Y-106976190D01*
X42761904Y-106976190D01*
X44285714Y-107452380D02*
X43714285Y-107452380D01*
X44000000Y-107452380D02*
X44000000Y-106452380D01*
X43904761Y-106595238D01*
X43809523Y-106690476D01*
X43714285Y-106738095D01*
%TO.C,C12*%
X48537142Y-123642857D02*
X48584761Y-123690476D01*
X48632380Y-123833333D01*
X48632380Y-123928571D01*
X48584761Y-124071428D01*
X48489523Y-124166666D01*
X48394285Y-124214285D01*
X48203809Y-124261904D01*
X48060952Y-124261904D01*
X47870476Y-124214285D01*
X47775238Y-124166666D01*
X47680000Y-124071428D01*
X47632380Y-123928571D01*
X47632380Y-123833333D01*
X47680000Y-123690476D01*
X47727619Y-123642857D01*
X48632380Y-122690476D02*
X48632380Y-123261904D01*
X48632380Y-122976190D02*
X47632380Y-122976190D01*
X47775238Y-123071428D01*
X47870476Y-123166666D01*
X47918095Y-123261904D01*
X47727619Y-122309523D02*
X47680000Y-122261904D01*
X47632380Y-122166666D01*
X47632380Y-121928571D01*
X47680000Y-121833333D01*
X47727619Y-121785714D01*
X47822857Y-121738095D01*
X47918095Y-121738095D01*
X48060952Y-121785714D01*
X48632380Y-122357142D01*
X48632380Y-121738095D01*
%TO.C,R21*%
X58382380Y-154142857D02*
X57906190Y-154476190D01*
X58382380Y-154714285D02*
X57382380Y-154714285D01*
X57382380Y-154333333D01*
X57430000Y-154238095D01*
X57477619Y-154190476D01*
X57572857Y-154142857D01*
X57715714Y-154142857D01*
X57810952Y-154190476D01*
X57858571Y-154238095D01*
X57906190Y-154333333D01*
X57906190Y-154714285D01*
X57477619Y-153761904D02*
X57430000Y-153714285D01*
X57382380Y-153619047D01*
X57382380Y-153380952D01*
X57430000Y-153285714D01*
X57477619Y-153238095D01*
X57572857Y-153190476D01*
X57668095Y-153190476D01*
X57810952Y-153238095D01*
X58382380Y-153809523D01*
X58382380Y-153190476D01*
X58382380Y-152238095D02*
X58382380Y-152809523D01*
X58382380Y-152523809D02*
X57382380Y-152523809D01*
X57525238Y-152619047D01*
X57620476Y-152714285D01*
X57668095Y-152809523D01*
%TO.C,Q2*%
X70904761Y-165634319D02*
X70809523Y-165586700D01*
X70714285Y-165491461D01*
X70571428Y-165348604D01*
X70476190Y-165300985D01*
X70380952Y-165300985D01*
X70428571Y-165539080D02*
X70333333Y-165491461D01*
X70238095Y-165396223D01*
X70190476Y-165205747D01*
X70190476Y-164872414D01*
X70238095Y-164681938D01*
X70333333Y-164586700D01*
X70428571Y-164539080D01*
X70619047Y-164539080D01*
X70714285Y-164586700D01*
X70809523Y-164681938D01*
X70857142Y-164872414D01*
X70857142Y-165205747D01*
X70809523Y-165396223D01*
X70714285Y-165491461D01*
X70619047Y-165539080D01*
X70428571Y-165539080D01*
X71238095Y-164634319D02*
X71285714Y-164586700D01*
X71380952Y-164539080D01*
X71619047Y-164539080D01*
X71714285Y-164586700D01*
X71761904Y-164634319D01*
X71809523Y-164729557D01*
X71809523Y-164824795D01*
X71761904Y-164967652D01*
X71190476Y-165539080D01*
X71809523Y-165539080D01*
%TO.C,U2*%
X50738095Y-120452380D02*
X50738095Y-121261904D01*
X50785714Y-121357142D01*
X50833333Y-121404761D01*
X50928571Y-121452380D01*
X51119047Y-121452380D01*
X51214285Y-121404761D01*
X51261904Y-121357142D01*
X51309523Y-121261904D01*
X51309523Y-120452380D01*
X51738095Y-120547619D02*
X51785714Y-120500000D01*
X51880952Y-120452380D01*
X52119047Y-120452380D01*
X52214285Y-120500000D01*
X52261904Y-120547619D01*
X52309523Y-120642857D01*
X52309523Y-120738095D01*
X52261904Y-120880952D01*
X51690476Y-121452380D01*
X52309523Y-121452380D01*
%TO.C,D3*%
X53761904Y-156927380D02*
X53761904Y-155927380D01*
X54000000Y-155927380D01*
X54142857Y-155975000D01*
X54238095Y-156070238D01*
X54285714Y-156165476D01*
X54333333Y-156355952D01*
X54333333Y-156498809D01*
X54285714Y-156689285D01*
X54238095Y-156784523D01*
X54142857Y-156879761D01*
X54000000Y-156927380D01*
X53761904Y-156927380D01*
X54666666Y-155927380D02*
X55285714Y-155927380D01*
X54952380Y-156308333D01*
X55095238Y-156308333D01*
X55190476Y-156355952D01*
X55238095Y-156403571D01*
X55285714Y-156498809D01*
X55285714Y-156736904D01*
X55238095Y-156832142D01*
X55190476Y-156879761D01*
X55095238Y-156927380D01*
X54809523Y-156927380D01*
X54714285Y-156879761D01*
X54666666Y-156832142D01*
%TO.C,R19*%
X47452380Y-178142857D02*
X46976190Y-178476190D01*
X47452380Y-178714285D02*
X46452380Y-178714285D01*
X46452380Y-178333333D01*
X46500000Y-178238095D01*
X46547619Y-178190476D01*
X46642857Y-178142857D01*
X46785714Y-178142857D01*
X46880952Y-178190476D01*
X46928571Y-178238095D01*
X46976190Y-178333333D01*
X46976190Y-178714285D01*
X47452380Y-177190476D02*
X47452380Y-177761904D01*
X47452380Y-177476190D02*
X46452380Y-177476190D01*
X46595238Y-177571428D01*
X46690476Y-177666666D01*
X46738095Y-177761904D01*
X47452380Y-176714285D02*
X47452380Y-176523809D01*
X47404761Y-176428571D01*
X47357142Y-176380952D01*
X47214285Y-176285714D01*
X47023809Y-176238095D01*
X46642857Y-176238095D01*
X46547619Y-176285714D01*
X46500000Y-176333333D01*
X46452380Y-176428571D01*
X46452380Y-176619047D01*
X46500000Y-176714285D01*
X46547619Y-176761904D01*
X46642857Y-176809523D01*
X46880952Y-176809523D01*
X46976190Y-176761904D01*
X47023809Y-176714285D01*
X47071428Y-176619047D01*
X47071428Y-176428571D01*
X47023809Y-176333333D01*
X46976190Y-176285714D01*
X46880952Y-176238095D01*
%TO.C,J18*%
X73452380Y-123973934D02*
X74166666Y-123973934D01*
X74309523Y-124021553D01*
X74404761Y-124116791D01*
X74452380Y-124259649D01*
X74452380Y-124354887D01*
X74452380Y-122973934D02*
X74452380Y-123545363D01*
X74452380Y-123259649D02*
X73452380Y-123259649D01*
X73595238Y-123354887D01*
X73690476Y-123450125D01*
X73738095Y-123545363D01*
X73880952Y-122402506D02*
X73833333Y-122497744D01*
X73785714Y-122545363D01*
X73690476Y-122592982D01*
X73642857Y-122592982D01*
X73547619Y-122545363D01*
X73500000Y-122497744D01*
X73452380Y-122402506D01*
X73452380Y-122212030D01*
X73500000Y-122116791D01*
X73547619Y-122069172D01*
X73642857Y-122021553D01*
X73690476Y-122021553D01*
X73785714Y-122069172D01*
X73833333Y-122116791D01*
X73880952Y-122212030D01*
X73880952Y-122402506D01*
X73928571Y-122497744D01*
X73976190Y-122545363D01*
X74071428Y-122592982D01*
X74261904Y-122592982D01*
X74357142Y-122545363D01*
X74404761Y-122497744D01*
X74452380Y-122402506D01*
X74452380Y-122212030D01*
X74404761Y-122116791D01*
X74357142Y-122069172D01*
X74261904Y-122021553D01*
X74071428Y-122021553D01*
X73976190Y-122069172D01*
X73928571Y-122116791D01*
X73880952Y-122212030D01*
%TO.C,J5*%
X29952380Y-182063333D02*
X30666666Y-182063333D01*
X30809523Y-182110952D01*
X30904761Y-182206190D01*
X30952380Y-182349047D01*
X30952380Y-182444285D01*
X29952380Y-181110952D02*
X29952380Y-181587142D01*
X30428571Y-181634761D01*
X30380952Y-181587142D01*
X30333333Y-181491904D01*
X30333333Y-181253809D01*
X30380952Y-181158571D01*
X30428571Y-181110952D01*
X30523809Y-181063333D01*
X30761904Y-181063333D01*
X30857142Y-181110952D01*
X30904761Y-181158571D01*
X30952380Y-181253809D01*
X30952380Y-181491904D01*
X30904761Y-181587142D01*
X30857142Y-181634761D01*
%TO.C,R29*%
X43332142Y-180927380D02*
X42998809Y-180451190D01*
X42760714Y-180927380D02*
X42760714Y-179927380D01*
X43141666Y-179927380D01*
X43236904Y-179975000D01*
X43284523Y-180022619D01*
X43332142Y-180117857D01*
X43332142Y-180260714D01*
X43284523Y-180355952D01*
X43236904Y-180403571D01*
X43141666Y-180451190D01*
X42760714Y-180451190D01*
X43713095Y-180022619D02*
X43760714Y-179975000D01*
X43855952Y-179927380D01*
X44094047Y-179927380D01*
X44189285Y-179975000D01*
X44236904Y-180022619D01*
X44284523Y-180117857D01*
X44284523Y-180213095D01*
X44236904Y-180355952D01*
X43665476Y-180927380D01*
X44284523Y-180927380D01*
X44760714Y-180927380D02*
X44951190Y-180927380D01*
X45046428Y-180879761D01*
X45094047Y-180832142D01*
X45189285Y-180689285D01*
X45236904Y-180498809D01*
X45236904Y-180117857D01*
X45189285Y-180022619D01*
X45141666Y-179975000D01*
X45046428Y-179927380D01*
X44855952Y-179927380D01*
X44760714Y-179975000D01*
X44713095Y-180022619D01*
X44665476Y-180117857D01*
X44665476Y-180355952D01*
X44713095Y-180451190D01*
X44760714Y-180498809D01*
X44855952Y-180546428D01*
X45046428Y-180546428D01*
X45141666Y-180498809D01*
X45189285Y-180451190D01*
X45236904Y-180355952D01*
%TO.C,J26*%
X73582380Y-161809523D02*
X74296666Y-161809523D01*
X74439523Y-161857142D01*
X74534761Y-161952380D01*
X74582380Y-162095238D01*
X74582380Y-162190476D01*
X73677619Y-161380952D02*
X73630000Y-161333333D01*
X73582380Y-161238095D01*
X73582380Y-161000000D01*
X73630000Y-160904761D01*
X73677619Y-160857142D01*
X73772857Y-160809523D01*
X73868095Y-160809523D01*
X74010952Y-160857142D01*
X74582380Y-161428571D01*
X74582380Y-160809523D01*
X73582380Y-159952380D02*
X73582380Y-160142857D01*
X73630000Y-160238095D01*
X73677619Y-160285714D01*
X73820476Y-160380952D01*
X74010952Y-160428571D01*
X74391904Y-160428571D01*
X74487142Y-160380952D01*
X74534761Y-160333333D01*
X74582380Y-160238095D01*
X74582380Y-160047619D01*
X74534761Y-159952380D01*
X74487142Y-159904761D01*
X74391904Y-159857142D01*
X74153809Y-159857142D01*
X74058571Y-159904761D01*
X74010952Y-159952380D01*
X73963333Y-160047619D01*
X73963333Y-160238095D01*
X74010952Y-160333333D01*
X74058571Y-160380952D01*
X74153809Y-160428571D01*
%TO.C,R11*%
X43357142Y-132952380D02*
X43023809Y-132476190D01*
X42785714Y-132952380D02*
X42785714Y-131952380D01*
X43166666Y-131952380D01*
X43261904Y-132000000D01*
X43309523Y-132047619D01*
X43357142Y-132142857D01*
X43357142Y-132285714D01*
X43309523Y-132380952D01*
X43261904Y-132428571D01*
X43166666Y-132476190D01*
X42785714Y-132476190D01*
X44309523Y-132952380D02*
X43738095Y-132952380D01*
X44023809Y-132952380D02*
X44023809Y-131952380D01*
X43928571Y-132095238D01*
X43833333Y-132190476D01*
X43738095Y-132238095D01*
X45261904Y-132952380D02*
X44690476Y-132952380D01*
X44976190Y-132952380D02*
X44976190Y-131952380D01*
X44880952Y-132095238D01*
X44785714Y-132190476D01*
X44690476Y-132238095D01*
%TO.C,U1*%
X55738095Y-167952380D02*
X55738095Y-168761904D01*
X55785714Y-168857142D01*
X55833333Y-168904761D01*
X55928571Y-168952380D01*
X56119047Y-168952380D01*
X56214285Y-168904761D01*
X56261904Y-168857142D01*
X56309523Y-168761904D01*
X56309523Y-167952380D01*
X57309523Y-168952380D02*
X56738095Y-168952380D01*
X57023809Y-168952380D02*
X57023809Y-167952380D01*
X56928571Y-168095238D01*
X56833333Y-168190476D01*
X56738095Y-168238095D01*
%TO.C,J2*%
X29952380Y-161333333D02*
X30666666Y-161333333D01*
X30809523Y-161380952D01*
X30904761Y-161476190D01*
X30952380Y-161619047D01*
X30952380Y-161714285D01*
X30047619Y-160904761D02*
X30000000Y-160857142D01*
X29952380Y-160761904D01*
X29952380Y-160523809D01*
X30000000Y-160428571D01*
X30047619Y-160380952D01*
X30142857Y-160333333D01*
X30238095Y-160333333D01*
X30380952Y-160380952D01*
X30952380Y-160952380D01*
X30952380Y-160333333D01*
%TO.C,J20*%
X73452380Y-137960634D02*
X74166666Y-137960634D01*
X74309523Y-138008253D01*
X74404761Y-138103491D01*
X74452380Y-138246349D01*
X74452380Y-138341587D01*
X73547619Y-137532063D02*
X73500000Y-137484444D01*
X73452380Y-137389206D01*
X73452380Y-137151111D01*
X73500000Y-137055872D01*
X73547619Y-137008253D01*
X73642857Y-136960634D01*
X73738095Y-136960634D01*
X73880952Y-137008253D01*
X74452380Y-137579682D01*
X74452380Y-136960634D01*
X73452380Y-136341587D02*
X73452380Y-136246349D01*
X73500000Y-136151111D01*
X73547619Y-136103491D01*
X73642857Y-136055872D01*
X73833333Y-136008253D01*
X74071428Y-136008253D01*
X74261904Y-136055872D01*
X74357142Y-136103491D01*
X74404761Y-136151111D01*
X74452380Y-136246349D01*
X74452380Y-136341587D01*
X74404761Y-136436825D01*
X74357142Y-136484444D01*
X74261904Y-136532063D01*
X74071428Y-136579682D01*
X73833333Y-136579682D01*
X73642857Y-136532063D01*
X73547619Y-136484444D01*
X73500000Y-136436825D01*
X73452380Y-136341587D01*
%TO.C,J28*%
X73582380Y-175629523D02*
X74296666Y-175629523D01*
X74439523Y-175677142D01*
X74534761Y-175772380D01*
X74582380Y-175915238D01*
X74582380Y-176010476D01*
X73677619Y-175200952D02*
X73630000Y-175153333D01*
X73582380Y-175058095D01*
X73582380Y-174820000D01*
X73630000Y-174724761D01*
X73677619Y-174677142D01*
X73772857Y-174629523D01*
X73868095Y-174629523D01*
X74010952Y-174677142D01*
X74582380Y-175248571D01*
X74582380Y-174629523D01*
X74010952Y-174058095D02*
X73963333Y-174153333D01*
X73915714Y-174200952D01*
X73820476Y-174248571D01*
X73772857Y-174248571D01*
X73677619Y-174200952D01*
X73630000Y-174153333D01*
X73582380Y-174058095D01*
X73582380Y-173867619D01*
X73630000Y-173772380D01*
X73677619Y-173724761D01*
X73772857Y-173677142D01*
X73820476Y-173677142D01*
X73915714Y-173724761D01*
X73963333Y-173772380D01*
X74010952Y-173867619D01*
X74010952Y-174058095D01*
X74058571Y-174153333D01*
X74106190Y-174200952D01*
X74201428Y-174248571D01*
X74391904Y-174248571D01*
X74487142Y-174200952D01*
X74534761Y-174153333D01*
X74582380Y-174058095D01*
X74582380Y-173867619D01*
X74534761Y-173772380D01*
X74487142Y-173724761D01*
X74391904Y-173677142D01*
X74201428Y-173677142D01*
X74106190Y-173724761D01*
X74058571Y-173772380D01*
X74010952Y-173867619D01*
%TO.C,R15*%
X43357142Y-142452380D02*
X43023809Y-141976190D01*
X42785714Y-142452380D02*
X42785714Y-141452380D01*
X43166666Y-141452380D01*
X43261904Y-141500000D01*
X43309523Y-141547619D01*
X43357142Y-141642857D01*
X43357142Y-141785714D01*
X43309523Y-141880952D01*
X43261904Y-141928571D01*
X43166666Y-141976190D01*
X42785714Y-141976190D01*
X44309523Y-142452380D02*
X43738095Y-142452380D01*
X44023809Y-142452380D02*
X44023809Y-141452380D01*
X43928571Y-141595238D01*
X43833333Y-141690476D01*
X43738095Y-141738095D01*
X45214285Y-141452380D02*
X44738095Y-141452380D01*
X44690476Y-141928571D01*
X44738095Y-141880952D01*
X44833333Y-141833333D01*
X45071428Y-141833333D01*
X45166666Y-141880952D01*
X45214285Y-141928571D01*
X45261904Y-142023809D01*
X45261904Y-142261904D01*
X45214285Y-142357142D01*
X45166666Y-142404761D01*
X45071428Y-142452380D01*
X44833333Y-142452380D01*
X44738095Y-142404761D01*
X44690476Y-142357142D01*
%TO.C,Q1*%
X70904761Y-158877619D02*
X70809523Y-158830000D01*
X70714285Y-158734761D01*
X70571428Y-158591904D01*
X70476190Y-158544285D01*
X70380952Y-158544285D01*
X70428571Y-158782380D02*
X70333333Y-158734761D01*
X70238095Y-158639523D01*
X70190476Y-158449047D01*
X70190476Y-158115714D01*
X70238095Y-157925238D01*
X70333333Y-157830000D01*
X70428571Y-157782380D01*
X70619047Y-157782380D01*
X70714285Y-157830000D01*
X70809523Y-157925238D01*
X70857142Y-158115714D01*
X70857142Y-158449047D01*
X70809523Y-158639523D01*
X70714285Y-158734761D01*
X70619047Y-158782380D01*
X70428571Y-158782380D01*
X71809523Y-158782380D02*
X71238095Y-158782380D01*
X71523809Y-158782380D02*
X71523809Y-157782380D01*
X71428571Y-157925238D01*
X71333333Y-158020476D01*
X71238095Y-158068095D01*
%TO.C,Rshunt1*%
X55785714Y-120452380D02*
X55452380Y-119976190D01*
X55214285Y-120452380D02*
X55214285Y-119452380D01*
X55595238Y-119452380D01*
X55690476Y-119500000D01*
X55738095Y-119547619D01*
X55785714Y-119642857D01*
X55785714Y-119785714D01*
X55738095Y-119880952D01*
X55690476Y-119928571D01*
X55595238Y-119976190D01*
X55214285Y-119976190D01*
X56166666Y-120404761D02*
X56261904Y-120452380D01*
X56452380Y-120452380D01*
X56547619Y-120404761D01*
X56595238Y-120309523D01*
X56595238Y-120261904D01*
X56547619Y-120166666D01*
X56452380Y-120119047D01*
X56309523Y-120119047D01*
X56214285Y-120071428D01*
X56166666Y-119976190D01*
X56166666Y-119928571D01*
X56214285Y-119833333D01*
X56309523Y-119785714D01*
X56452380Y-119785714D01*
X56547619Y-119833333D01*
X57023809Y-120452380D02*
X57023809Y-119452380D01*
X57452380Y-120452380D02*
X57452380Y-119928571D01*
X57404761Y-119833333D01*
X57309523Y-119785714D01*
X57166666Y-119785714D01*
X57071428Y-119833333D01*
X57023809Y-119880952D01*
X58357142Y-119785714D02*
X58357142Y-120452380D01*
X57928571Y-119785714D02*
X57928571Y-120309523D01*
X57976190Y-120404761D01*
X58071428Y-120452380D01*
X58214285Y-120452380D01*
X58309523Y-120404761D01*
X58357142Y-120357142D01*
X58833333Y-119785714D02*
X58833333Y-120452380D01*
X58833333Y-119880952D02*
X58880952Y-119833333D01*
X58976190Y-119785714D01*
X59119047Y-119785714D01*
X59214285Y-119833333D01*
X59261904Y-119928571D01*
X59261904Y-120452380D01*
X59595238Y-119785714D02*
X59976190Y-119785714D01*
X59738095Y-119452380D02*
X59738095Y-120309523D01*
X59785714Y-120404761D01*
X59880952Y-120452380D01*
X59976190Y-120452380D01*
X60833333Y-120452380D02*
X60261904Y-120452380D01*
X60547619Y-120452380D02*
X60547619Y-119452380D01*
X60452380Y-119595238D01*
X60357142Y-119690476D01*
X60261904Y-119738095D01*
%TO.C,J16*%
X73582380Y-110539523D02*
X74296666Y-110539523D01*
X74439523Y-110587142D01*
X74534761Y-110682380D01*
X74582380Y-110825238D01*
X74582380Y-110920476D01*
X74582380Y-109539523D02*
X74582380Y-110110952D01*
X74582380Y-109825238D02*
X73582380Y-109825238D01*
X73725238Y-109920476D01*
X73820476Y-110015714D01*
X73868095Y-110110952D01*
X73582380Y-108682380D02*
X73582380Y-108872857D01*
X73630000Y-108968095D01*
X73677619Y-109015714D01*
X73820476Y-109110952D01*
X74010952Y-109158571D01*
X74391904Y-109158571D01*
X74487142Y-109110952D01*
X74534761Y-109063333D01*
X74582380Y-108968095D01*
X74582380Y-108777619D01*
X74534761Y-108682380D01*
X74487142Y-108634761D01*
X74391904Y-108587142D01*
X74153809Y-108587142D01*
X74058571Y-108634761D01*
X74010952Y-108682380D01*
X73963333Y-108777619D01*
X73963333Y-108968095D01*
X74010952Y-109063333D01*
X74058571Y-109110952D01*
X74153809Y-109158571D01*
%TO.C,C2*%
X49357142Y-166905414D02*
X49404761Y-166953033D01*
X49452380Y-167095890D01*
X49452380Y-167191128D01*
X49404761Y-167333986D01*
X49309523Y-167429224D01*
X49214285Y-167476843D01*
X49023809Y-167524462D01*
X48880952Y-167524462D01*
X48690476Y-167476843D01*
X48595238Y-167429224D01*
X48500000Y-167333986D01*
X48452380Y-167191128D01*
X48452380Y-167095890D01*
X48500000Y-166953033D01*
X48547619Y-166905414D01*
X48547619Y-166524462D02*
X48500000Y-166476843D01*
X48452380Y-166381605D01*
X48452380Y-166143509D01*
X48500000Y-166048271D01*
X48547619Y-166000652D01*
X48642857Y-165953033D01*
X48738095Y-165953033D01*
X48880952Y-166000652D01*
X49452380Y-166572081D01*
X49452380Y-165953033D01*
%TO.C,R18*%
X43357142Y-150452380D02*
X43023809Y-149976190D01*
X42785714Y-150452380D02*
X42785714Y-149452380D01*
X43166666Y-149452380D01*
X43261904Y-149500000D01*
X43309523Y-149547619D01*
X43357142Y-149642857D01*
X43357142Y-149785714D01*
X43309523Y-149880952D01*
X43261904Y-149928571D01*
X43166666Y-149976190D01*
X42785714Y-149976190D01*
X44309523Y-150452380D02*
X43738095Y-150452380D01*
X44023809Y-150452380D02*
X44023809Y-149452380D01*
X43928571Y-149595238D01*
X43833333Y-149690476D01*
X43738095Y-149738095D01*
X44880952Y-149880952D02*
X44785714Y-149833333D01*
X44738095Y-149785714D01*
X44690476Y-149690476D01*
X44690476Y-149642857D01*
X44738095Y-149547619D01*
X44785714Y-149500000D01*
X44880952Y-149452380D01*
X45071428Y-149452380D01*
X45166666Y-149500000D01*
X45214285Y-149547619D01*
X45261904Y-149642857D01*
X45261904Y-149690476D01*
X45214285Y-149785714D01*
X45166666Y-149833333D01*
X45071428Y-149880952D01*
X44880952Y-149880952D01*
X44785714Y-149928571D01*
X44738095Y-149976190D01*
X44690476Y-150071428D01*
X44690476Y-150261904D01*
X44738095Y-150357142D01*
X44785714Y-150404761D01*
X44880952Y-150452380D01*
X45071428Y-150452380D01*
X45166666Y-150404761D01*
X45214285Y-150357142D01*
X45261904Y-150261904D01*
X45261904Y-150071428D01*
X45214285Y-149976190D01*
X45166666Y-149928571D01*
X45071428Y-149880952D01*
%TO.C,R4*%
X43333333Y-115452380D02*
X43000000Y-114976190D01*
X42761904Y-115452380D02*
X42761904Y-114452380D01*
X43142857Y-114452380D01*
X43238095Y-114500000D01*
X43285714Y-114547619D01*
X43333333Y-114642857D01*
X43333333Y-114785714D01*
X43285714Y-114880952D01*
X43238095Y-114928571D01*
X43142857Y-114976190D01*
X42761904Y-114976190D01*
X44190476Y-114785714D02*
X44190476Y-115452380D01*
X43952380Y-114404761D02*
X43714285Y-115119047D01*
X44333333Y-115119047D01*
%TO.C,R25*%
X43357142Y-167452380D02*
X43023809Y-166976190D01*
X42785714Y-167452380D02*
X42785714Y-166452380D01*
X43166666Y-166452380D01*
X43261904Y-166500000D01*
X43309523Y-166547619D01*
X43357142Y-166642857D01*
X43357142Y-166785714D01*
X43309523Y-166880952D01*
X43261904Y-166928571D01*
X43166666Y-166976190D01*
X42785714Y-166976190D01*
X43738095Y-166547619D02*
X43785714Y-166500000D01*
X43880952Y-166452380D01*
X44119047Y-166452380D01*
X44214285Y-166500000D01*
X44261904Y-166547619D01*
X44309523Y-166642857D01*
X44309523Y-166738095D01*
X44261904Y-166880952D01*
X43690476Y-167452380D01*
X44309523Y-167452380D01*
X45214285Y-166452380D02*
X44738095Y-166452380D01*
X44690476Y-166928571D01*
X44738095Y-166880952D01*
X44833333Y-166833333D01*
X45071428Y-166833333D01*
X45166666Y-166880952D01*
X45214285Y-166928571D01*
X45261904Y-167023809D01*
X45261904Y-167261904D01*
X45214285Y-167357142D01*
X45166666Y-167404761D01*
X45071428Y-167452380D01*
X44833333Y-167452380D01*
X44738095Y-167404761D01*
X44690476Y-167357142D01*
%TO.C,R10*%
X43357142Y-131452380D02*
X43023809Y-130976190D01*
X42785714Y-131452380D02*
X42785714Y-130452380D01*
X43166666Y-130452380D01*
X43261904Y-130500000D01*
X43309523Y-130547619D01*
X43357142Y-130642857D01*
X43357142Y-130785714D01*
X43309523Y-130880952D01*
X43261904Y-130928571D01*
X43166666Y-130976190D01*
X42785714Y-130976190D01*
X44309523Y-131452380D02*
X43738095Y-131452380D01*
X44023809Y-131452380D02*
X44023809Y-130452380D01*
X43928571Y-130595238D01*
X43833333Y-130690476D01*
X43738095Y-130738095D01*
X44928571Y-130452380D02*
X45023809Y-130452380D01*
X45119047Y-130500000D01*
X45166666Y-130547619D01*
X45214285Y-130642857D01*
X45261904Y-130833333D01*
X45261904Y-131071428D01*
X45214285Y-131261904D01*
X45166666Y-131357142D01*
X45119047Y-131404761D01*
X45023809Y-131452380D01*
X44928571Y-131452380D01*
X44833333Y-131404761D01*
X44785714Y-131357142D01*
X44738095Y-131261904D01*
X44690476Y-131071428D01*
X44690476Y-130833333D01*
X44738095Y-130642857D01*
X44785714Y-130547619D01*
X44833333Y-130500000D01*
X44928571Y-130452380D01*
%TO.C,R26*%
X43357142Y-176452380D02*
X43023809Y-175976190D01*
X42785714Y-176452380D02*
X42785714Y-175452380D01*
X43166666Y-175452380D01*
X43261904Y-175500000D01*
X43309523Y-175547619D01*
X43357142Y-175642857D01*
X43357142Y-175785714D01*
X43309523Y-175880952D01*
X43261904Y-175928571D01*
X43166666Y-175976190D01*
X42785714Y-175976190D01*
X43738095Y-175547619D02*
X43785714Y-175500000D01*
X43880952Y-175452380D01*
X44119047Y-175452380D01*
X44214285Y-175500000D01*
X44261904Y-175547619D01*
X44309523Y-175642857D01*
X44309523Y-175738095D01*
X44261904Y-175880952D01*
X43690476Y-176452380D01*
X44309523Y-176452380D01*
X45166666Y-175452380D02*
X44976190Y-175452380D01*
X44880952Y-175500000D01*
X44833333Y-175547619D01*
X44738095Y-175690476D01*
X44690476Y-175880952D01*
X44690476Y-176261904D01*
X44738095Y-176357142D01*
X44785714Y-176404761D01*
X44880952Y-176452380D01*
X45071428Y-176452380D01*
X45166666Y-176404761D01*
X45214285Y-176357142D01*
X45261904Y-176261904D01*
X45261904Y-176023809D01*
X45214285Y-175928571D01*
X45166666Y-175880952D01*
X45071428Y-175833333D01*
X44880952Y-175833333D01*
X44785714Y-175880952D01*
X44738095Y-175928571D01*
X44690476Y-176023809D01*
%TO.C,H1*%
X64738095Y-174652380D02*
X64738095Y-173652380D01*
X64738095Y-174128571D02*
X65309523Y-174128571D01*
X65309523Y-174652380D02*
X65309523Y-173652380D01*
X66309523Y-174652380D02*
X65738095Y-174652380D01*
X66023809Y-174652380D02*
X66023809Y-173652380D01*
X65928571Y-173795238D01*
X65833333Y-173890476D01*
X65738095Y-173938095D01*
%TO.C,R16*%
X43357142Y-147452380D02*
X43023809Y-146976190D01*
X42785714Y-147452380D02*
X42785714Y-146452380D01*
X43166666Y-146452380D01*
X43261904Y-146500000D01*
X43309523Y-146547619D01*
X43357142Y-146642857D01*
X43357142Y-146785714D01*
X43309523Y-146880952D01*
X43261904Y-146928571D01*
X43166666Y-146976190D01*
X42785714Y-146976190D01*
X44309523Y-147452380D02*
X43738095Y-147452380D01*
X44023809Y-147452380D02*
X44023809Y-146452380D01*
X43928571Y-146595238D01*
X43833333Y-146690476D01*
X43738095Y-146738095D01*
X45166666Y-146452380D02*
X44976190Y-146452380D01*
X44880952Y-146500000D01*
X44833333Y-146547619D01*
X44738095Y-146690476D01*
X44690476Y-146880952D01*
X44690476Y-147261904D01*
X44738095Y-147357142D01*
X44785714Y-147404761D01*
X44880952Y-147452380D01*
X45071428Y-147452380D01*
X45166666Y-147404761D01*
X45214285Y-147357142D01*
X45261904Y-147261904D01*
X45261904Y-147023809D01*
X45214285Y-146928571D01*
X45166666Y-146880952D01*
X45071428Y-146833333D01*
X44880952Y-146833333D01*
X44785714Y-146880952D01*
X44738095Y-146928571D01*
X44690476Y-147023809D01*
%TO.C,Rshunt2*%
X55785714Y-131952380D02*
X55452380Y-131476190D01*
X55214285Y-131952380D02*
X55214285Y-130952380D01*
X55595238Y-130952380D01*
X55690476Y-131000000D01*
X55738095Y-131047619D01*
X55785714Y-131142857D01*
X55785714Y-131285714D01*
X55738095Y-131380952D01*
X55690476Y-131428571D01*
X55595238Y-131476190D01*
X55214285Y-131476190D01*
X56166666Y-131904761D02*
X56261904Y-131952380D01*
X56452380Y-131952380D01*
X56547619Y-131904761D01*
X56595238Y-131809523D01*
X56595238Y-131761904D01*
X56547619Y-131666666D01*
X56452380Y-131619047D01*
X56309523Y-131619047D01*
X56214285Y-131571428D01*
X56166666Y-131476190D01*
X56166666Y-131428571D01*
X56214285Y-131333333D01*
X56309523Y-131285714D01*
X56452380Y-131285714D01*
X56547619Y-131333333D01*
X57023809Y-131952380D02*
X57023809Y-130952380D01*
X57452380Y-131952380D02*
X57452380Y-131428571D01*
X57404761Y-131333333D01*
X57309523Y-131285714D01*
X57166666Y-131285714D01*
X57071428Y-131333333D01*
X57023809Y-131380952D01*
X58357142Y-131285714D02*
X58357142Y-131952380D01*
X57928571Y-131285714D02*
X57928571Y-131809523D01*
X57976190Y-131904761D01*
X58071428Y-131952380D01*
X58214285Y-131952380D01*
X58309523Y-131904761D01*
X58357142Y-131857142D01*
X58833333Y-131285714D02*
X58833333Y-131952380D01*
X58833333Y-131380952D02*
X58880952Y-131333333D01*
X58976190Y-131285714D01*
X59119047Y-131285714D01*
X59214285Y-131333333D01*
X59261904Y-131428571D01*
X59261904Y-131952380D01*
X59595238Y-131285714D02*
X59976190Y-131285714D01*
X59738095Y-130952380D02*
X59738095Y-131809523D01*
X59785714Y-131904761D01*
X59880952Y-131952380D01*
X59976190Y-131952380D01*
X60261904Y-131047619D02*
X60309523Y-131000000D01*
X60404761Y-130952380D01*
X60642857Y-130952380D01*
X60738095Y-131000000D01*
X60785714Y-131047619D01*
X60833333Y-131142857D01*
X60833333Y-131238095D01*
X60785714Y-131380952D01*
X60214285Y-131952380D01*
X60833333Y-131952380D01*
%TO.C,C9*%
X64357142Y-167166666D02*
X64404761Y-167214285D01*
X64452380Y-167357142D01*
X64452380Y-167452380D01*
X64404761Y-167595238D01*
X64309523Y-167690476D01*
X64214285Y-167738095D01*
X64023809Y-167785714D01*
X63880952Y-167785714D01*
X63690476Y-167738095D01*
X63595238Y-167690476D01*
X63500000Y-167595238D01*
X63452380Y-167452380D01*
X63452380Y-167357142D01*
X63500000Y-167214285D01*
X63547619Y-167166666D01*
X64452380Y-166690476D02*
X64452380Y-166500000D01*
X64404761Y-166404761D01*
X64357142Y-166357142D01*
X64214285Y-166261904D01*
X64023809Y-166214285D01*
X63642857Y-166214285D01*
X63547619Y-166261904D01*
X63500000Y-166309523D01*
X63452380Y-166404761D01*
X63452380Y-166595238D01*
X63500000Y-166690476D01*
X63547619Y-166738095D01*
X63642857Y-166785714D01*
X63880952Y-166785714D01*
X63976190Y-166738095D01*
X64023809Y-166690476D01*
X64071428Y-166595238D01*
X64071428Y-166404761D01*
X64023809Y-166309523D01*
X63976190Y-166261904D01*
X63880952Y-166214285D01*
%TO.C,C13*%
X48537142Y-128642857D02*
X48584761Y-128690476D01*
X48632380Y-128833333D01*
X48632380Y-128928571D01*
X48584761Y-129071428D01*
X48489523Y-129166666D01*
X48394285Y-129214285D01*
X48203809Y-129261904D01*
X48060952Y-129261904D01*
X47870476Y-129214285D01*
X47775238Y-129166666D01*
X47680000Y-129071428D01*
X47632380Y-128928571D01*
X47632380Y-128833333D01*
X47680000Y-128690476D01*
X47727619Y-128642857D01*
X48632380Y-127690476D02*
X48632380Y-128261904D01*
X48632380Y-127976190D02*
X47632380Y-127976190D01*
X47775238Y-128071428D01*
X47870476Y-128166666D01*
X47918095Y-128261904D01*
X47632380Y-127357142D02*
X47632380Y-126738095D01*
X48013333Y-127071428D01*
X48013333Y-126928571D01*
X48060952Y-126833333D01*
X48108571Y-126785714D01*
X48203809Y-126738095D01*
X48441904Y-126738095D01*
X48537142Y-126785714D01*
X48584761Y-126833333D01*
X48632380Y-126928571D01*
X48632380Y-127214285D01*
X48584761Y-127309523D01*
X48537142Y-127357142D01*
%TO.C,C7*%
X43333333Y-144357142D02*
X43285714Y-144404761D01*
X43142857Y-144452380D01*
X43047619Y-144452380D01*
X42904761Y-144404761D01*
X42809523Y-144309523D01*
X42761904Y-144214285D01*
X42714285Y-144023809D01*
X42714285Y-143880952D01*
X42761904Y-143690476D01*
X42809523Y-143595238D01*
X42904761Y-143500000D01*
X43047619Y-143452380D01*
X43142857Y-143452380D01*
X43285714Y-143500000D01*
X43333333Y-143547619D01*
X43666666Y-143452380D02*
X44333333Y-143452380D01*
X43904761Y-144452380D01*
%TO.C,SW1*%
X65166666Y-158004761D02*
X65309523Y-158052380D01*
X65547619Y-158052380D01*
X65642857Y-158004761D01*
X65690476Y-157957142D01*
X65738095Y-157861904D01*
X65738095Y-157766666D01*
X65690476Y-157671428D01*
X65642857Y-157623809D01*
X65547619Y-157576190D01*
X65357142Y-157528571D01*
X65261904Y-157480952D01*
X65214285Y-157433333D01*
X65166666Y-157338095D01*
X65166666Y-157242857D01*
X65214285Y-157147619D01*
X65261904Y-157100000D01*
X65357142Y-157052380D01*
X65595238Y-157052380D01*
X65738095Y-157100000D01*
X66071428Y-157052380D02*
X66309523Y-158052380D01*
X66500000Y-157338095D01*
X66690476Y-158052380D01*
X66928571Y-157052380D01*
X67833333Y-158052380D02*
X67261904Y-158052380D01*
X67547619Y-158052380D02*
X67547619Y-157052380D01*
X67452380Y-157195238D01*
X67357142Y-157290476D01*
X67261904Y-157338095D01*
%TO.C,R5*%
X43333333Y-116952380D02*
X43000000Y-116476190D01*
X42761904Y-116952380D02*
X42761904Y-115952380D01*
X43142857Y-115952380D01*
X43238095Y-116000000D01*
X43285714Y-116047619D01*
X43333333Y-116142857D01*
X43333333Y-116285714D01*
X43285714Y-116380952D01*
X43238095Y-116428571D01*
X43142857Y-116476190D01*
X42761904Y-116476190D01*
X44238095Y-115952380D02*
X43761904Y-115952380D01*
X43714285Y-116428571D01*
X43761904Y-116380952D01*
X43857142Y-116333333D01*
X44095238Y-116333333D01*
X44190476Y-116380952D01*
X44238095Y-116428571D01*
X44285714Y-116523809D01*
X44285714Y-116761904D01*
X44238095Y-116857142D01*
X44190476Y-116904761D01*
X44095238Y-116952380D01*
X43857142Y-116952380D01*
X43761904Y-116904761D01*
X43714285Y-116857142D01*
%TO.C,J24*%
X48690476Y-112452380D02*
X48690476Y-113166666D01*
X48642857Y-113309523D01*
X48547619Y-113404761D01*
X48404761Y-113452380D01*
X48309523Y-113452380D01*
X49119047Y-112547619D02*
X49166666Y-112500000D01*
X49261904Y-112452380D01*
X49500000Y-112452380D01*
X49595238Y-112500000D01*
X49642857Y-112547619D01*
X49690476Y-112642857D01*
X49690476Y-112738095D01*
X49642857Y-112880952D01*
X49071428Y-113452380D01*
X49690476Y-113452380D01*
X50547619Y-112785714D02*
X50547619Y-113452380D01*
X50309523Y-112404761D02*
X50071428Y-113119047D01*
X50690476Y-113119047D01*
%TO.C,J21*%
X73452380Y-144953934D02*
X74166666Y-144953934D01*
X74309523Y-145001553D01*
X74404761Y-145096791D01*
X74452380Y-145239649D01*
X74452380Y-145334887D01*
X73547619Y-144525363D02*
X73500000Y-144477744D01*
X73452380Y-144382506D01*
X73452380Y-144144411D01*
X73500000Y-144049172D01*
X73547619Y-144001553D01*
X73642857Y-143953934D01*
X73738095Y-143953934D01*
X73880952Y-144001553D01*
X74452380Y-144572982D01*
X74452380Y-143953934D01*
X74452380Y-143001553D02*
X74452380Y-143572982D01*
X74452380Y-143287268D02*
X73452380Y-143287268D01*
X73595238Y-143382506D01*
X73690476Y-143477744D01*
X73738095Y-143572982D01*
%TO.C,J22*%
X73452380Y-151940634D02*
X74166666Y-151940634D01*
X74309523Y-151988253D01*
X74404761Y-152083491D01*
X74452380Y-152226349D01*
X74452380Y-152321587D01*
X73547619Y-151512063D02*
X73500000Y-151464444D01*
X73452380Y-151369206D01*
X73452380Y-151131111D01*
X73500000Y-151035872D01*
X73547619Y-150988253D01*
X73642857Y-150940634D01*
X73738095Y-150940634D01*
X73880952Y-150988253D01*
X74452380Y-151559682D01*
X74452380Y-150940634D01*
X73547619Y-150559682D02*
X73500000Y-150512063D01*
X73452380Y-150416825D01*
X73452380Y-150178730D01*
X73500000Y-150083491D01*
X73547619Y-150035872D01*
X73642857Y-149988253D01*
X73738095Y-149988253D01*
X73880952Y-150035872D01*
X74452380Y-150607301D01*
X74452380Y-149988253D01*
%TO.C,H2*%
X52238095Y-134452380D02*
X52238095Y-133452380D01*
X52238095Y-133928571D02*
X52809523Y-133928571D01*
X52809523Y-134452380D02*
X52809523Y-133452380D01*
X53238095Y-133547619D02*
X53285714Y-133500000D01*
X53380952Y-133452380D01*
X53619047Y-133452380D01*
X53714285Y-133500000D01*
X53761904Y-133547619D01*
X53809523Y-133642857D01*
X53809523Y-133738095D01*
X53761904Y-133880952D01*
X53190476Y-134452380D01*
X53809523Y-134452380D01*
%TO.C,J3*%
X29952380Y-168243333D02*
X30666666Y-168243333D01*
X30809523Y-168290952D01*
X30904761Y-168386190D01*
X30952380Y-168529047D01*
X30952380Y-168624285D01*
X29952380Y-167862380D02*
X29952380Y-167243333D01*
X30333333Y-167576666D01*
X30333333Y-167433809D01*
X30380952Y-167338571D01*
X30428571Y-167290952D01*
X30523809Y-167243333D01*
X30761904Y-167243333D01*
X30857142Y-167290952D01*
X30904761Y-167338571D01*
X30952380Y-167433809D01*
X30952380Y-167719523D01*
X30904761Y-167814761D01*
X30857142Y-167862380D01*
%TO.C,R13*%
X43357142Y-139452380D02*
X43023809Y-138976190D01*
X42785714Y-139452380D02*
X42785714Y-138452380D01*
X43166666Y-138452380D01*
X43261904Y-138500000D01*
X43309523Y-138547619D01*
X43357142Y-138642857D01*
X43357142Y-138785714D01*
X43309523Y-138880952D01*
X43261904Y-138928571D01*
X43166666Y-138976190D01*
X42785714Y-138976190D01*
X44309523Y-139452380D02*
X43738095Y-139452380D01*
X44023809Y-139452380D02*
X44023809Y-138452380D01*
X43928571Y-138595238D01*
X43833333Y-138690476D01*
X43738095Y-138738095D01*
X44642857Y-138452380D02*
X45261904Y-138452380D01*
X44928571Y-138833333D01*
X45071428Y-138833333D01*
X45166666Y-138880952D01*
X45214285Y-138928571D01*
X45261904Y-139023809D01*
X45261904Y-139261904D01*
X45214285Y-139357142D01*
X45166666Y-139404761D01*
X45071428Y-139452380D01*
X44785714Y-139452380D01*
X44690476Y-139404761D01*
X44642857Y-139357142D01*
%TO.C,J11*%
X29952380Y-150151723D02*
X30666666Y-150151723D01*
X30809523Y-150199342D01*
X30904761Y-150294580D01*
X30952380Y-150437438D01*
X30952380Y-150532676D01*
X30952380Y-149151723D02*
X30952380Y-149723152D01*
X30952380Y-149437438D02*
X29952380Y-149437438D01*
X30095238Y-149532676D01*
X30190476Y-149627914D01*
X30238095Y-149723152D01*
X30952380Y-148199342D02*
X30952380Y-148770771D01*
X30952380Y-148485057D02*
X29952380Y-148485057D01*
X30095238Y-148580295D01*
X30190476Y-148675533D01*
X30238095Y-148770771D01*
%TO.C,C4*%
X43333333Y-120357142D02*
X43285714Y-120404761D01*
X43142857Y-120452380D01*
X43047619Y-120452380D01*
X42904761Y-120404761D01*
X42809523Y-120309523D01*
X42761904Y-120214285D01*
X42714285Y-120023809D01*
X42714285Y-119880952D01*
X42761904Y-119690476D01*
X42809523Y-119595238D01*
X42904761Y-119500000D01*
X43047619Y-119452380D01*
X43142857Y-119452380D01*
X43285714Y-119500000D01*
X43333333Y-119547619D01*
X44190476Y-119785714D02*
X44190476Y-120452380D01*
X43952380Y-119404761D02*
X43714285Y-120119047D01*
X44333333Y-120119047D01*
%TO.C,R3*%
X43333333Y-110452380D02*
X43000000Y-109976190D01*
X42761904Y-110452380D02*
X42761904Y-109452380D01*
X43142857Y-109452380D01*
X43238095Y-109500000D01*
X43285714Y-109547619D01*
X43333333Y-109642857D01*
X43333333Y-109785714D01*
X43285714Y-109880952D01*
X43238095Y-109928571D01*
X43142857Y-109976190D01*
X42761904Y-109976190D01*
X43666666Y-109452380D02*
X44285714Y-109452380D01*
X43952380Y-109833333D01*
X44095238Y-109833333D01*
X44190476Y-109880952D01*
X44238095Y-109928571D01*
X44285714Y-110023809D01*
X44285714Y-110261904D01*
X44238095Y-110357142D01*
X44190476Y-110404761D01*
X44095238Y-110452380D01*
X43809523Y-110452380D01*
X43714285Y-110404761D01*
X43666666Y-110357142D01*
%TO.C,R7*%
X43333333Y-123452380D02*
X43000000Y-122976190D01*
X42761904Y-123452380D02*
X42761904Y-122452380D01*
X43142857Y-122452380D01*
X43238095Y-122500000D01*
X43285714Y-122547619D01*
X43333333Y-122642857D01*
X43333333Y-122785714D01*
X43285714Y-122880952D01*
X43238095Y-122928571D01*
X43142857Y-122976190D01*
X42761904Y-122976190D01*
X43666666Y-122452380D02*
X44333333Y-122452380D01*
X43904761Y-123452380D01*
%TO.C,J19*%
X73452380Y-130967334D02*
X74166666Y-130967334D01*
X74309523Y-131014953D01*
X74404761Y-131110191D01*
X74452380Y-131253049D01*
X74452380Y-131348287D01*
X74452380Y-129967334D02*
X74452380Y-130538763D01*
X74452380Y-130253049D02*
X73452380Y-130253049D01*
X73595238Y-130348287D01*
X73690476Y-130443525D01*
X73738095Y-130538763D01*
X74452380Y-129491144D02*
X74452380Y-129300668D01*
X74404761Y-129205430D01*
X74357142Y-129157811D01*
X74214285Y-129062572D01*
X74023809Y-129014953D01*
X73642857Y-129014953D01*
X73547619Y-129062572D01*
X73500000Y-129110191D01*
X73452380Y-129205430D01*
X73452380Y-129395906D01*
X73500000Y-129491144D01*
X73547619Y-129538763D01*
X73642857Y-129586382D01*
X73880952Y-129586382D01*
X73976190Y-129538763D01*
X74023809Y-129491144D01*
X74071428Y-129395906D01*
X74071428Y-129205430D01*
X74023809Y-129110191D01*
X73976190Y-129062572D01*
X73880952Y-129014953D01*
%TO.C,U3*%
X50738095Y-129452380D02*
X50738095Y-130261904D01*
X50785714Y-130357142D01*
X50833333Y-130404761D01*
X50928571Y-130452380D01*
X51119047Y-130452380D01*
X51214285Y-130404761D01*
X51261904Y-130357142D01*
X51309523Y-130261904D01*
X51309523Y-129452380D01*
X51690476Y-129452380D02*
X52309523Y-129452380D01*
X51976190Y-129833333D01*
X52119047Y-129833333D01*
X52214285Y-129880952D01*
X52261904Y-129928571D01*
X52309523Y-130023809D01*
X52309523Y-130261904D01*
X52261904Y-130357142D01*
X52214285Y-130404761D01*
X52119047Y-130452380D01*
X51833333Y-130452380D01*
X51738095Y-130404761D01*
X51690476Y-130357142D01*
%TO.C,C10*%
X49357142Y-171642857D02*
X49404761Y-171690476D01*
X49452380Y-171833333D01*
X49452380Y-171928571D01*
X49404761Y-172071428D01*
X49309523Y-172166666D01*
X49214285Y-172214285D01*
X49023809Y-172261904D01*
X48880952Y-172261904D01*
X48690476Y-172214285D01*
X48595238Y-172166666D01*
X48500000Y-172071428D01*
X48452380Y-171928571D01*
X48452380Y-171833333D01*
X48500000Y-171690476D01*
X48547619Y-171642857D01*
X49452380Y-170690476D02*
X49452380Y-171261904D01*
X49452380Y-170976190D02*
X48452380Y-170976190D01*
X48595238Y-171071428D01*
X48690476Y-171166666D01*
X48738095Y-171261904D01*
X48452380Y-170071428D02*
X48452380Y-169976190D01*
X48500000Y-169880952D01*
X48547619Y-169833333D01*
X48642857Y-169785714D01*
X48833333Y-169738095D01*
X49071428Y-169738095D01*
X49261904Y-169785714D01*
X49357142Y-169833333D01*
X49404761Y-169880952D01*
X49452380Y-169976190D01*
X49452380Y-170071428D01*
X49404761Y-170166666D01*
X49357142Y-170214285D01*
X49261904Y-170261904D01*
X49071428Y-170309523D01*
X48833333Y-170309523D01*
X48642857Y-170261904D01*
X48547619Y-170214285D01*
X48500000Y-170166666D01*
X48452380Y-170071428D01*
D11*
%TO.C,J29*%
X82110000Y-184860000D02*
X82110000Y-184460000D01*
X81870000Y-184620000D02*
X81870000Y-178840000D01*
X75130000Y-178840000D02*
X81870000Y-178840000D01*
X76250000Y-184620000D02*
X76250000Y-178840000D01*
X81470000Y-184860000D02*
X82110000Y-184860000D01*
X75130000Y-184620000D02*
X81870000Y-184620000D01*
X81350000Y-184620000D02*
X81350000Y-178840000D01*
X75130000Y-184620000D02*
X75130000Y-178840000D01*
%TO.C,Q3*%
X71000000Y-172683300D02*
X69325000Y-172683300D01*
X71000000Y-175803300D02*
X71650000Y-175803300D01*
X71000000Y-175803300D02*
X70350000Y-175803300D01*
X71000000Y-172683300D02*
X71650000Y-172683300D01*
%TO.C,Q4*%
X71000000Y-179440000D02*
X71650000Y-179440000D01*
X71000000Y-182560000D02*
X70350000Y-182560000D01*
X71000000Y-182560000D02*
X71650000Y-182560000D01*
X71000000Y-179440000D02*
X69325000Y-179440000D01*
%TO.C,C8*%
X40238748Y-152735000D02*
X40761252Y-152735000D01*
X40238748Y-151265000D02*
X40761252Y-151265000D01*
%TO.C,C6*%
X40238748Y-136735000D02*
X40761252Y-136735000D01*
X40238748Y-135265000D02*
X40761252Y-135265000D01*
%TO.C,J1*%
X51355000Y-176504000D02*
X61635000Y-176504000D01*
X51355000Y-173544000D02*
X51355000Y-183465000D01*
X60310000Y-177736000D02*
X60263000Y-177782000D01*
X51355000Y-181405000D02*
X61635000Y-181405000D01*
X51355000Y-183465000D02*
X61635000Y-183465000D01*
X51355000Y-173544000D02*
X61635000Y-173544000D01*
X51115000Y-182965000D02*
X51115000Y-183705000D01*
X60105000Y-177530000D02*
X60070000Y-177566000D01*
X57808000Y-179828000D02*
X57761000Y-179874000D01*
X51355000Y-182905000D02*
X61635000Y-182905000D01*
X61635000Y-173544000D02*
X61635000Y-183465000D01*
X51115000Y-183705000D02*
X51615000Y-183705000D01*
X58001000Y-180044000D02*
X57966000Y-180079000D01*
X53271000Y-180340000D02*
G75*
G03*
X53983805Y-180485253I683999J1535001D01*
G01*
X55490001Y-179489000D02*
G75*
G03*
X55490427Y-178121958I-1535001J684000D01*
G01*
X52420000Y-178121000D02*
G75*
G03*
X52419573Y-179488042I1534993J-684001D01*
G01*
X54639000Y-177270000D02*
G75*
G03*
X53271958Y-177269573I-684001J-1534993D01*
G01*
X53955000Y-180485000D02*
G75*
G03*
X54638318Y-180339756I0J1680000D01*
G01*
X60715000Y-178805000D02*
G75*
G03*
X60715000Y-178805000I-1680000J0D01*
G01*
%TO.C,J8*%
X36750000Y-122708900D02*
X36750000Y-128488900D01*
X31650000Y-122708900D02*
X31650000Y-128488900D01*
X31530000Y-122468900D02*
X30890000Y-122468900D01*
X37870000Y-122708900D02*
X37870000Y-128488900D01*
X30890000Y-122468900D02*
X30890000Y-122868900D01*
X37870000Y-122708900D02*
X31130000Y-122708900D01*
X31130000Y-122708900D02*
X31130000Y-128488900D01*
X37870000Y-128488900D02*
X31130000Y-128488900D01*
%TO.C,D1*%
X47540000Y-183360000D02*
X49460000Y-183360000D01*
X49460000Y-183360000D02*
X49460000Y-180500000D01*
X47540000Y-180500000D02*
X47540000Y-183360000D01*
%TO.C,RV1*%
X67421000Y-122540000D02*
X69385000Y-122540000D01*
X64645000Y-129490000D02*
X64645000Y-122540000D01*
X67421000Y-129490000D02*
X69385000Y-129490000D01*
X64645000Y-122540000D02*
X66431000Y-122540000D01*
X69385000Y-129490000D02*
X69385000Y-122540000D01*
X64645000Y-129490000D02*
X66431000Y-129490000D01*
%TO.C,R2*%
X40245276Y-107977500D02*
X40754724Y-107977500D01*
X40245276Y-109022500D02*
X40754724Y-109022500D01*
%TO.C,R27*%
X40247936Y-183210000D02*
X40702064Y-183210000D01*
X40247936Y-181740000D02*
X40702064Y-181740000D01*
%TO.C,U5*%
X66500000Y-150560000D02*
X64550000Y-150560000D01*
X66500000Y-150560000D02*
X68450000Y-150560000D01*
X66500000Y-140440000D02*
X68450000Y-140440000D01*
X66500000Y-140440000D02*
X63050000Y-140440000D01*
%TO.C,J4*%
X37870000Y-171930000D02*
X31130000Y-171930000D01*
X30890000Y-171690000D02*
X30890000Y-172090000D01*
X31130000Y-171930000D02*
X31130000Y-177710000D01*
X37870000Y-177710000D02*
X31130000Y-177710000D01*
X31530000Y-171690000D02*
X30890000Y-171690000D01*
X36750000Y-171930000D02*
X36750000Y-177710000D01*
X37870000Y-171930000D02*
X37870000Y-177710000D01*
X31650000Y-171930000D02*
X31650000Y-177710000D01*
%TO.C,R9*%
X40245276Y-126522500D02*
X40754724Y-126522500D01*
X40245276Y-125477500D02*
X40754724Y-125477500D01*
%TO.C,R23*%
X40272936Y-169735000D02*
X40727064Y-169735000D01*
X40272936Y-168265000D02*
X40727064Y-168265000D01*
%TO.C,R14*%
X40245276Y-139977500D02*
X40754724Y-139977500D01*
X40245276Y-141022500D02*
X40754724Y-141022500D01*
%TO.C,C11*%
X51265000Y-153761252D02*
X51265000Y-153238748D01*
X52735000Y-153761252D02*
X52735000Y-153238748D01*
%TO.C,R6*%
X40245276Y-117477500D02*
X40754724Y-117477500D01*
X40245276Y-118522500D02*
X40754724Y-118522500D01*
%TO.C,J12*%
X56245000Y-115542500D02*
X56245000Y-106422500D01*
X70445000Y-114232500D02*
X66045000Y-114232500D01*
X61955000Y-116932500D02*
X61455000Y-115932500D01*
X56245000Y-106422500D02*
X71745000Y-106422500D01*
X57545000Y-107732500D02*
X70445000Y-107732500D01*
X61455000Y-115932500D02*
X60955000Y-116932500D01*
X66045000Y-114232500D02*
X66045000Y-115542500D01*
X60955000Y-116932500D02*
X61955000Y-116932500D01*
X57545000Y-114232500D02*
X57545000Y-107732500D01*
X66045000Y-114232500D02*
X66045000Y-114232500D01*
X71745000Y-115542500D02*
X56245000Y-115542500D01*
X61945000Y-115542500D02*
X61945000Y-114232500D01*
X70445000Y-107732500D02*
X70445000Y-114232500D01*
X61945000Y-114232500D02*
X57545000Y-114232500D01*
X71745000Y-106422500D02*
X71745000Y-115542500D01*
%TO.C,J10*%
X30890000Y-138297800D02*
X30890000Y-138697800D01*
X37870000Y-138537800D02*
X37870000Y-144317800D01*
X31530000Y-138297800D02*
X30890000Y-138297800D01*
X31130000Y-138537800D02*
X31130000Y-144317800D01*
X37870000Y-138537800D02*
X31130000Y-138537800D01*
X37870000Y-144317800D02*
X31130000Y-144317800D01*
X31650000Y-138537800D02*
X31650000Y-144317800D01*
X36750000Y-138537800D02*
X36750000Y-144317800D01*
%TO.C,J9*%
X36750000Y-130623300D02*
X36750000Y-136403300D01*
X37870000Y-130623300D02*
X37870000Y-136403300D01*
X30890000Y-130383300D02*
X30890000Y-130783300D01*
X31130000Y-130623300D02*
X31130000Y-136403300D01*
X31650000Y-130623300D02*
X31650000Y-136403300D01*
X31530000Y-130383300D02*
X30890000Y-130383300D01*
X37870000Y-130623300D02*
X31130000Y-130623300D01*
X37870000Y-136403300D02*
X31130000Y-136403300D01*
%TO.C,R17*%
X40245276Y-149022500D02*
X40754724Y-149022500D01*
X40245276Y-147977500D02*
X40754724Y-147977500D01*
%TO.C,J6*%
X31130000Y-106880000D02*
X31130000Y-112660000D01*
X30890000Y-106640000D02*
X30890000Y-107040000D01*
X37870000Y-106880000D02*
X31130000Y-106880000D01*
X36750000Y-106880000D02*
X36750000Y-112660000D01*
X37870000Y-106880000D02*
X37870000Y-112660000D01*
X37870000Y-112660000D02*
X31130000Y-112660000D01*
X31530000Y-106640000D02*
X30890000Y-106640000D01*
X31650000Y-106880000D02*
X31650000Y-112660000D01*
%TO.C,C5*%
X40201248Y-127265000D02*
X40723752Y-127265000D01*
X40201248Y-128735000D02*
X40723752Y-128735000D01*
%TO.C,J27*%
X81470000Y-171040000D02*
X82110000Y-171040000D01*
X81870000Y-170800000D02*
X81870000Y-165020000D01*
X82110000Y-171040000D02*
X82110000Y-170640000D01*
X75130000Y-170800000D02*
X75130000Y-165020000D01*
X75130000Y-165020000D02*
X81870000Y-165020000D01*
X76250000Y-170800000D02*
X76250000Y-165020000D01*
X81350000Y-170800000D02*
X81350000Y-165020000D01*
X75130000Y-170800000D02*
X81870000Y-170800000D01*
%TO.C,C1*%
X61265000Y-171298752D02*
X61265000Y-170776248D01*
X62735000Y-171298752D02*
X62735000Y-170776248D01*
%TO.C,R8*%
X40245276Y-123977500D02*
X40754724Y-123977500D01*
X40245276Y-125022500D02*
X40754724Y-125022500D01*
%TO.C,R24*%
X40272936Y-160735000D02*
X40727064Y-160735000D01*
X40272936Y-159265000D02*
X40727064Y-159265000D01*
%TO.C,J17*%
X81470000Y-119900000D02*
X82110000Y-119900000D01*
X75130000Y-119660000D02*
X75130000Y-113880000D01*
X81350000Y-119660000D02*
X81350000Y-113880000D01*
X81870000Y-119660000D02*
X81870000Y-113880000D01*
X76250000Y-119660000D02*
X76250000Y-113880000D01*
X82110000Y-119900000D02*
X82110000Y-119500000D01*
X75130000Y-113880000D02*
X81870000Y-113880000D01*
X75130000Y-119660000D02*
X81870000Y-119660000D01*
%TO.C,J7*%
X30890000Y-114554400D02*
X30890000Y-114954400D01*
X36750000Y-114794400D02*
X36750000Y-120574400D01*
X37870000Y-114794400D02*
X37870000Y-120574400D01*
X37870000Y-114794400D02*
X31130000Y-114794400D01*
X31530000Y-114554400D02*
X30890000Y-114554400D01*
X31650000Y-114794400D02*
X31650000Y-120574400D01*
X37870000Y-120574400D02*
X31130000Y-120574400D01*
X31130000Y-114794400D02*
X31130000Y-120574400D01*
D10*
%TO.C,U4*%
X55625000Y-149125000D02*
X55300000Y-149125000D01*
X48375000Y-141875000D02*
X48700000Y-141875000D01*
X48375000Y-149125000D02*
X48700000Y-149125000D01*
X55400000Y-141875000D02*
X55400000Y-140450000D01*
X55625000Y-149125000D02*
X55625000Y-148800000D01*
X55625000Y-141875000D02*
X55625000Y-142200000D01*
X48375000Y-141875000D02*
X48375000Y-142200000D01*
X55625000Y-141875000D02*
X55400000Y-141875000D01*
X48375000Y-149125000D02*
X48375000Y-148800000D01*
D11*
%TO.C,R22*%
X40272936Y-162735000D02*
X40727064Y-162735000D01*
X40272936Y-161265000D02*
X40727064Y-161265000D01*
%TO.C,R20*%
X48022500Y-153245276D02*
X48022500Y-153754724D01*
X46977500Y-153245276D02*
X46977500Y-153754724D01*
%TO.C,R28*%
X40272936Y-174735000D02*
X40727064Y-174735000D01*
X40272936Y-173265000D02*
X40727064Y-173265000D01*
%TO.C,C3*%
X40238748Y-111265000D02*
X40761252Y-111265000D01*
X40238748Y-112735000D02*
X40761252Y-112735000D01*
%TO.C,D2*%
X48540000Y-152500000D02*
X48540000Y-155360000D01*
X50460000Y-155360000D02*
X50460000Y-152500000D01*
X48540000Y-155360000D02*
X50460000Y-155360000D01*
%TO.C,R12*%
X40245276Y-133477500D02*
X40754724Y-133477500D01*
X40245276Y-134522500D02*
X40754724Y-134522500D01*
%TO.C,R1*%
X40245276Y-107522500D02*
X40754724Y-107522500D01*
X40245276Y-106477500D02*
X40754724Y-106477500D01*
%TO.C,C12*%
X47235000Y-122738748D02*
X47235000Y-123261252D01*
X45765000Y-122738748D02*
X45765000Y-123261252D01*
%TO.C,R21*%
X55977500Y-153245276D02*
X55977500Y-153754724D01*
X57022500Y-153245276D02*
X57022500Y-153754724D01*
%TO.C,Q2*%
X71000000Y-165926700D02*
X69325000Y-165926700D01*
X71000000Y-165926700D02*
X71650000Y-165926700D01*
X71000000Y-169046700D02*
X70350000Y-169046700D01*
X71000000Y-169046700D02*
X71650000Y-169046700D01*
%TO.C,U2*%
X50800000Y-124160000D02*
X52200000Y-124160000D01*
X52200000Y-121840000D02*
X50300000Y-121840000D01*
%TO.C,D3*%
X53540000Y-152475000D02*
X53540000Y-155335000D01*
X53540000Y-155335000D02*
X55460000Y-155335000D01*
X55460000Y-155335000D02*
X55460000Y-152475000D01*
%TO.C,R19*%
X47977500Y-177245276D02*
X47977500Y-177754724D01*
X49022500Y-177245276D02*
X49022500Y-177754724D01*
%TO.C,J18*%
X75130000Y-120873300D02*
X81870000Y-120873300D01*
X76250000Y-126653300D02*
X76250000Y-120873300D01*
X75130000Y-126653300D02*
X75130000Y-120873300D01*
X75130000Y-126653300D02*
X81870000Y-126653300D01*
X81470000Y-126893300D02*
X82110000Y-126893300D01*
X82110000Y-126893300D02*
X82110000Y-126493300D01*
X81870000Y-126653300D02*
X81870000Y-120873300D01*
X81350000Y-126653300D02*
X81350000Y-120873300D01*
%TO.C,J5*%
X31650000Y-178840000D02*
X31650000Y-184620000D01*
X30890000Y-178600000D02*
X30890000Y-179000000D01*
X37870000Y-178840000D02*
X37870000Y-184620000D01*
X37870000Y-184620000D02*
X31130000Y-184620000D01*
X31530000Y-178600000D02*
X30890000Y-178600000D01*
X31130000Y-178840000D02*
X31130000Y-184620000D01*
X37870000Y-178840000D02*
X31130000Y-178840000D01*
X36750000Y-178840000D02*
X36750000Y-184620000D01*
%TO.C,R29*%
X40247936Y-181210000D02*
X40702064Y-181210000D01*
X40247936Y-179740000D02*
X40702064Y-179740000D01*
%TO.C,J26*%
X81350000Y-163890000D02*
X81350000Y-158110000D01*
X82110000Y-164130000D02*
X82110000Y-163730000D01*
X81870000Y-163890000D02*
X81870000Y-158110000D01*
X75130000Y-163890000D02*
X81870000Y-163890000D01*
X75130000Y-158110000D02*
X81870000Y-158110000D01*
X75130000Y-163890000D02*
X75130000Y-158110000D01*
X76250000Y-163890000D02*
X76250000Y-158110000D01*
X81470000Y-164130000D02*
X82110000Y-164130000D01*
%TO.C,R11*%
X40245276Y-131977500D02*
X40754724Y-131977500D01*
X40245276Y-133022500D02*
X40754724Y-133022500D01*
%TO.C,U1*%
X53090000Y-166590000D02*
X54350000Y-166590000D01*
X59910000Y-170350000D02*
X59910000Y-166590000D01*
X59910000Y-166590000D02*
X58650000Y-166590000D01*
X53090000Y-172600000D02*
X53090000Y-166590000D01*
%TO.C,J2*%
X37870000Y-158110000D02*
X37870000Y-163890000D01*
X37870000Y-163890000D02*
X31130000Y-163890000D01*
X31530000Y-157870000D02*
X30890000Y-157870000D01*
X37870000Y-158110000D02*
X31130000Y-158110000D01*
X31650000Y-158110000D02*
X31650000Y-163890000D01*
X31130000Y-158110000D02*
X31130000Y-163890000D01*
X30890000Y-157870000D02*
X30890000Y-158270000D01*
X36750000Y-158110000D02*
X36750000Y-163890000D01*
%TO.C,J20*%
X75130000Y-140640000D02*
X75130000Y-134860000D01*
X75130000Y-140640000D02*
X81870000Y-140640000D01*
X75130000Y-134860000D02*
X81870000Y-134860000D01*
X81470000Y-140880000D02*
X82110000Y-140880000D01*
X76250000Y-140640000D02*
X76250000Y-134860000D01*
X81870000Y-140640000D02*
X81870000Y-134860000D01*
X82110000Y-140880000D02*
X82110000Y-140480000D01*
X81350000Y-140640000D02*
X81350000Y-134860000D01*
%TO.C,J28*%
X82110000Y-177950000D02*
X82110000Y-177550000D01*
X81470000Y-177950000D02*
X82110000Y-177950000D01*
X75130000Y-177710000D02*
X75130000Y-171930000D01*
X81350000Y-177710000D02*
X81350000Y-171930000D01*
X75130000Y-177710000D02*
X81870000Y-177710000D01*
X81870000Y-177710000D02*
X81870000Y-171930000D01*
X76250000Y-177710000D02*
X76250000Y-171930000D01*
X75130000Y-171930000D02*
X81870000Y-171930000D01*
%TO.C,R15*%
X40245276Y-142522500D02*
X40754724Y-142522500D01*
X40245276Y-141477500D02*
X40754724Y-141477500D01*
%TO.C,Q1*%
X71000000Y-159170000D02*
X69325000Y-159170000D01*
X71000000Y-162290000D02*
X71650000Y-162290000D01*
X71000000Y-159170000D02*
X71650000Y-159170000D01*
X71000000Y-162290000D02*
X70350000Y-162290000D01*
%TO.C,Rshunt1*%
X57090000Y-123727064D02*
X57090000Y-122272936D01*
X58910000Y-123727064D02*
X58910000Y-122272936D01*
%TO.C,J16*%
X82110000Y-112860000D02*
X82110000Y-112460000D01*
X81350000Y-112620000D02*
X81350000Y-106840000D01*
X81470000Y-112860000D02*
X82110000Y-112860000D01*
X75130000Y-112620000D02*
X81870000Y-112620000D01*
X76250000Y-112620000D02*
X76250000Y-106840000D01*
X75130000Y-106840000D02*
X81870000Y-106840000D01*
X81870000Y-112620000D02*
X81870000Y-106840000D01*
X75130000Y-112620000D02*
X75130000Y-106840000D01*
%TO.C,C2*%
X51735000Y-166738748D02*
X51735000Y-167261252D01*
X50265000Y-166738748D02*
X50265000Y-167261252D01*
%TO.C,R18*%
X40245276Y-149477500D02*
X40754724Y-149477500D01*
X40245276Y-150522500D02*
X40754724Y-150522500D01*
%TO.C,R4*%
X40245276Y-115522500D02*
X40754724Y-115522500D01*
X40245276Y-114477500D02*
X40754724Y-114477500D01*
%TO.C,R25*%
X40272936Y-167735000D02*
X40727064Y-167735000D01*
X40272936Y-166265000D02*
X40727064Y-166265000D01*
%TO.C,R10*%
X40245276Y-130477500D02*
X40754724Y-130477500D01*
X40245276Y-131522500D02*
X40754724Y-131522500D01*
%TO.C,R26*%
X40272936Y-176735000D02*
X40727064Y-176735000D01*
X40272936Y-175265000D02*
X40727064Y-175265000D01*
%TO.C,R16*%
X40245276Y-147522500D02*
X40754724Y-147522500D01*
X40245276Y-146477500D02*
X40754724Y-146477500D01*
%TO.C,Rshunt2*%
X58910000Y-129227064D02*
X58910000Y-127772936D01*
X57090000Y-129227064D02*
X57090000Y-127772936D01*
%TO.C,C9*%
X62735000Y-166738748D02*
X62735000Y-167261252D01*
X61265000Y-166738748D02*
X61265000Y-167261252D01*
%TO.C,C13*%
X45765000Y-127738748D02*
X45765000Y-128261252D01*
X47235000Y-127738748D02*
X47235000Y-128261252D01*
%TO.C,C7*%
X40238748Y-143265000D02*
X40761252Y-143265000D01*
X40238748Y-144735000D02*
X40761252Y-144735000D01*
%TO.C,SW1*%
X63440000Y-156850000D02*
X63440000Y-153150000D01*
X63440000Y-153150000D02*
X69560000Y-153150000D01*
X69560000Y-156850000D02*
X63440000Y-156850000D01*
X69560000Y-153150000D02*
X69560000Y-156850000D01*
%TO.C,R5*%
X40245276Y-117022500D02*
X40754724Y-117022500D01*
X40245276Y-115977500D02*
X40754724Y-115977500D01*
%TO.C,J24*%
X45620000Y-111455000D02*
X45620000Y-110125000D01*
X48220000Y-111455000D02*
X48220000Y-108795000D01*
X46950000Y-111455000D02*
X45620000Y-111455000D01*
X53360000Y-111455000D02*
X53360000Y-108795000D01*
X48220000Y-111455000D02*
X53360000Y-111455000D01*
X48220000Y-108795000D02*
X53360000Y-108795000D01*
%TO.C,J21*%
X76250000Y-147633300D02*
X76250000Y-141853300D01*
X81350000Y-147633300D02*
X81350000Y-141853300D01*
X81870000Y-147633300D02*
X81870000Y-141853300D01*
X75130000Y-147633300D02*
X75130000Y-141853300D01*
X75130000Y-141853300D02*
X81870000Y-141853300D01*
X75130000Y-147633300D02*
X81870000Y-147633300D01*
X82110000Y-147873300D02*
X82110000Y-147473300D01*
X81470000Y-147873300D02*
X82110000Y-147873300D01*
%TO.C,J22*%
X75130000Y-148840000D02*
X81870000Y-148840000D01*
X75130000Y-154620000D02*
X81870000Y-154620000D01*
X81350000Y-154620000D02*
X81350000Y-148840000D01*
X81470000Y-154860000D02*
X82110000Y-154860000D01*
X75130000Y-154620000D02*
X75130000Y-148840000D01*
X81870000Y-154620000D02*
X81870000Y-148840000D01*
X76250000Y-154620000D02*
X76250000Y-148840000D01*
X82110000Y-154860000D02*
X82110000Y-154460000D01*
%TO.C,J3*%
X37870000Y-170800000D02*
X31130000Y-170800000D01*
X31650000Y-165020000D02*
X31650000Y-170800000D01*
X37870000Y-165020000D02*
X31130000Y-165020000D01*
X30890000Y-164780000D02*
X30890000Y-165180000D01*
X31530000Y-164780000D02*
X30890000Y-164780000D01*
X36750000Y-165020000D02*
X36750000Y-170800000D01*
X31130000Y-165020000D02*
X31130000Y-170800000D01*
X37870000Y-165020000D02*
X37870000Y-170800000D01*
%TO.C,R13*%
X40245276Y-138477500D02*
X40754724Y-138477500D01*
X40245276Y-139522500D02*
X40754724Y-139522500D01*
%TO.C,J11*%
X37870000Y-146452200D02*
X31130000Y-146452200D01*
X37870000Y-146452200D02*
X37870000Y-152232200D01*
X37870000Y-152232200D02*
X31130000Y-152232200D01*
X31130000Y-146452200D02*
X31130000Y-152232200D01*
X31650000Y-146452200D02*
X31650000Y-152232200D01*
X30890000Y-146212200D02*
X30890000Y-146612200D01*
X31530000Y-146212200D02*
X30890000Y-146212200D01*
X36750000Y-146452200D02*
X36750000Y-152232200D01*
%TO.C,C4*%
X40201248Y-120735000D02*
X40723752Y-120735000D01*
X40201248Y-119265000D02*
X40723752Y-119265000D01*
%TO.C,R3*%
X40245276Y-109477500D02*
X40754724Y-109477500D01*
X40245276Y-110522500D02*
X40754724Y-110522500D01*
%TO.C,R7*%
X40245276Y-123522500D02*
X40754724Y-123522500D01*
X40245276Y-122477500D02*
X40754724Y-122477500D01*
%TO.C,J19*%
X81470000Y-133886700D02*
X82110000Y-133886700D01*
X75130000Y-133646700D02*
X75130000Y-127866700D01*
X75130000Y-127866700D02*
X81870000Y-127866700D01*
X76250000Y-133646700D02*
X76250000Y-127866700D01*
X81870000Y-133646700D02*
X81870000Y-127866700D01*
X81350000Y-133646700D02*
X81350000Y-127866700D01*
X82110000Y-133886700D02*
X82110000Y-133486700D01*
X75130000Y-133646700D02*
X81870000Y-133646700D01*
%TO.C,U3*%
X52200000Y-126340000D02*
X50300000Y-126340000D01*
X50800000Y-128660000D02*
X52200000Y-128660000D01*
%TO.C,C10*%
X51735000Y-171261252D02*
X51735000Y-170738748D01*
X50265000Y-171261252D02*
X50265000Y-170738748D01*
%TD*%
M02*
