%TF.GenerationSoftware,KiCad,Pcbnew,6.0.7-f9a2dced07~116~ubuntu20.04.1*%
%TF.CreationDate,2022-08-30T20:59:11+02:00*%
%TF.ProjectId,mc unit,6d632075-6e69-4742-9e6b-696361645f70,rev?*%
%TF.SameCoordinates,Original*%
%TF.FileFunction,Copper,L1,Top*%
%TF.FilePolarity,Positive*%
%FSLAX46Y46*%
G04 Gerber Fmt 4.6, Leading zero omitted, Abs format (unit mm)*
G04 Created by KiCad (PCBNEW 6.0.7-f9a2dced07~116~ubuntu20.04.1) date 2022-08-30 20:59:11*
%MOMM*%
%LPD*%
G01*
G04 APERTURE LIST*
G04 Aperture macros list*
%AMRoundRect*
0 Rectangle with rounded corners*
0 $1 Rounding radius*
0 $2 $3 $4 $5 $6 $7 $8 $9 X,Y pos of 4 corners*
0 Add a 4 corners polygon primitive as box body*
4,1,4,$2,$3,$4,$5,$6,$7,$8,$9,$2,$3,0*
0 Add four circle primitives for the rounded corners*
1,1,$1+$1,$2,$3*
1,1,$1+$1,$4,$5*
1,1,$1+$1,$6,$7*
1,1,$1+$1,$8,$9*
0 Add four rect primitives between the rounded corners*
20,1,$1+$1,$2,$3,$4,$5,0*
20,1,$1+$1,$4,$5,$6,$7,0*
20,1,$1+$1,$6,$7,$8,$9,0*
20,1,$1+$1,$8,$9,$2,$3,0*%
G04 Aperture macros list end*
%ADD10C,0.300000*%
%TA.AperFunction,NonConductor*%
%ADD11C,0.300000*%
%TD*%
%TA.AperFunction,NonConductor*%
%ADD12C,0.200000*%
%TD*%
%TA.AperFunction,SMDPad,CuDef*%
%ADD13RoundRect,0.250000X-0.325000X-0.650000X0.325000X-0.650000X0.325000X0.650000X-0.325000X0.650000X0*%
%TD*%
%TA.AperFunction,ComponentPad*%
%ADD14R,2.600000X2.600000*%
%TD*%
%TA.AperFunction,ComponentPad*%
%ADD15C,2.600000*%
%TD*%
%TA.AperFunction,SMDPad,CuDef*%
%ADD16RoundRect,0.250000X-0.312500X-0.625000X0.312500X-0.625000X0.312500X0.625000X-0.312500X0.625000X0*%
%TD*%
%TA.AperFunction,SMDPad,CuDef*%
%ADD17R,0.550000X1.600000*%
%TD*%
%TA.AperFunction,SMDPad,CuDef*%
%ADD18R,1.600000X0.550000*%
%TD*%
%TA.AperFunction,ComponentPad*%
%ADD19R,2.200000X2.200000*%
%TD*%
%TA.AperFunction,ComponentPad*%
%ADD20C,2.200000*%
%TD*%
%TA.AperFunction,ComponentPad*%
%ADD21RoundRect,0.250000X-0.600000X0.600000X-0.600000X-0.600000X0.600000X-0.600000X0.600000X0.600000X0*%
%TD*%
%TA.AperFunction,ComponentPad*%
%ADD22C,1.700000*%
%TD*%
%TA.AperFunction,ComponentPad*%
%ADD23C,2.400000*%
%TD*%
%TA.AperFunction,ComponentPad*%
%ADD24R,1.905000X2.000000*%
%TD*%
%TA.AperFunction,ComponentPad*%
%ADD25O,1.905000X2.000000*%
%TD*%
%TA.AperFunction,SMDPad,CuDef*%
%ADD26RoundRect,0.150000X-0.837500X-0.150000X0.837500X-0.150000X0.837500X0.150000X-0.837500X0.150000X0*%
%TD*%
%TA.AperFunction,SMDPad,CuDef*%
%ADD27R,1.500000X2.000000*%
%TD*%
%TA.AperFunction,SMDPad,CuDef*%
%ADD28R,3.800000X2.000000*%
%TD*%
%TA.AperFunction,SMDPad,CuDef*%
%ADD29RoundRect,0.250000X0.625000X-0.312500X0.625000X0.312500X-0.625000X0.312500X-0.625000X-0.312500X0*%
%TD*%
%TA.AperFunction,SMDPad,CuDef*%
%ADD30RoundRect,0.150000X-0.825000X-0.150000X0.825000X-0.150000X0.825000X0.150000X-0.825000X0.150000X0*%
%TD*%
%TA.AperFunction,ViaPad*%
%ADD31C,0.800000*%
%TD*%
%TA.AperFunction,Conductor*%
%ADD32C,0.250000*%
%TD*%
%TA.AperFunction,Conductor*%
%ADD33C,3.000000*%
%TD*%
%TA.AperFunction,Conductor*%
%ADD34C,2.200000*%
%TD*%
%TA.AperFunction,Conductor*%
%ADD35C,2.500000*%
%TD*%
G04 APERTURE END LIST*
D10*
D11*
X22521401Y-153142857D02*
X22449973Y-153285714D01*
X22378544Y-153357142D01*
X22235687Y-153428571D01*
X22164258Y-153428571D01*
X22021401Y-153357142D01*
X21949973Y-153285714D01*
X21878544Y-153142857D01*
X21878544Y-152857142D01*
X21949973Y-152714285D01*
X22021401Y-152642857D01*
X22164258Y-152571428D01*
X22235687Y-152571428D01*
X22378544Y-152642857D01*
X22449973Y-152714285D01*
X22521401Y-152857142D01*
X22521401Y-153142857D01*
X22592830Y-153285714D01*
X22664258Y-153357142D01*
X22807115Y-153428571D01*
X23092830Y-153428571D01*
X23235687Y-153357142D01*
X23307115Y-153285714D01*
X23378544Y-153142857D01*
X23378544Y-152857142D01*
X23307115Y-152714285D01*
X23235687Y-152642857D01*
X23092830Y-152571428D01*
X22807115Y-152571428D01*
X22664258Y-152642857D01*
X22592830Y-152714285D01*
X22521401Y-152857142D01*
X22021401Y-152000000D02*
X21949973Y-151928571D01*
X21878544Y-151785714D01*
X21878544Y-151428571D01*
X21949973Y-151285714D01*
X22021401Y-151214285D01*
X22164258Y-151142857D01*
X22307115Y-151142857D01*
X22521401Y-151214285D01*
X23378544Y-152071428D01*
X23378544Y-151142857D01*
X23307115Y-150428571D02*
X23378544Y-150428571D01*
X23521401Y-150500000D01*
X23592830Y-150571428D01*
X21878544Y-149500000D02*
X21878544Y-149357142D01*
X21949973Y-149214285D01*
X22021401Y-149142857D01*
X22164258Y-149071428D01*
X22449973Y-149000000D01*
X22807115Y-149000000D01*
X23092830Y-149071428D01*
X23235687Y-149142857D01*
X23307115Y-149214285D01*
X23378544Y-149357142D01*
X23378544Y-149500000D01*
X23307115Y-149642857D01*
X23235687Y-149714285D01*
X23092830Y-149785714D01*
X22807115Y-149857142D01*
X22449973Y-149857142D01*
X22164258Y-149785714D01*
X22021401Y-149714285D01*
X21949973Y-149642857D01*
X21878544Y-149500000D01*
X21878544Y-148071428D02*
X21878544Y-147928571D01*
X21949973Y-147785714D01*
X22021401Y-147714285D01*
X22164258Y-147642857D01*
X22449973Y-147571428D01*
X22807115Y-147571428D01*
X23092830Y-147642857D01*
X23235687Y-147714285D01*
X23307115Y-147785714D01*
X23378544Y-147928571D01*
X23378544Y-148071428D01*
X23307115Y-148214285D01*
X23235687Y-148285714D01*
X23092830Y-148357142D01*
X22807115Y-148428571D01*
X22449973Y-148428571D01*
X22164258Y-148357142D01*
X22021401Y-148285714D01*
X21949973Y-148214285D01*
X21878544Y-148071428D01*
X21878544Y-146642857D02*
X21878544Y-146500000D01*
X21949973Y-146357142D01*
X22021401Y-146285714D01*
X22164258Y-146214285D01*
X22449973Y-146142857D01*
X22807115Y-146142857D01*
X23092830Y-146214285D01*
X23235687Y-146285714D01*
X23307115Y-146357142D01*
X23378544Y-146500000D01*
X23378544Y-146642857D01*
X23307115Y-146785714D01*
X23235687Y-146857142D01*
X23092830Y-146928571D01*
X22807115Y-147000000D01*
X22449973Y-147000000D01*
X22164258Y-146928571D01*
X22021401Y-146857142D01*
X21949973Y-146785714D01*
X21878544Y-146642857D01*
X21878544Y-145214285D02*
X21878544Y-145071428D01*
X21949973Y-144928571D01*
X22021401Y-144857142D01*
X22164258Y-144785714D01*
X22449973Y-144714285D01*
X22807115Y-144714285D01*
X23092830Y-144785714D01*
X23235687Y-144857142D01*
X23307115Y-144928571D01*
X23378544Y-145071428D01*
X23378544Y-145214285D01*
X23307115Y-145357142D01*
X23235687Y-145428571D01*
X23092830Y-145500000D01*
X22807115Y-145571428D01*
X22449973Y-145571428D01*
X22164258Y-145500000D01*
X22021401Y-145428571D01*
X21949973Y-145357142D01*
X21878544Y-145214285D01*
X23378544Y-142928571D02*
X22378544Y-142928571D01*
X22521401Y-142928571D02*
X22449973Y-142857142D01*
X22378544Y-142714285D01*
X22378544Y-142500000D01*
X22449973Y-142357142D01*
X22592830Y-142285714D01*
X23378544Y-142285714D01*
X22592830Y-142285714D02*
X22449973Y-142214285D01*
X22378544Y-142071428D01*
X22378544Y-141857142D01*
X22449973Y-141714285D01*
X22592830Y-141642857D01*
X23378544Y-141642857D01*
X23378544Y-140928571D02*
X22378544Y-140928571D01*
X22521401Y-140928571D02*
X22449973Y-140857142D01*
X22378544Y-140714285D01*
X22378544Y-140500000D01*
X22449973Y-140357142D01*
X22592830Y-140285714D01*
X23378544Y-140285714D01*
X22592830Y-140285714D02*
X22449973Y-140214285D01*
X22378544Y-140071428D01*
X22378544Y-139857142D01*
X22449973Y-139714285D01*
X22592830Y-139642857D01*
X23378544Y-139642857D01*
D12*
X27000000Y-105500000D02*
X23913553Y-105500000D01*
X27000000Y-187500000D02*
X23913553Y-187500000D01*
X24499973Y-105500000D02*
X24499973Y-187500000D01*
X24499973Y-105500000D02*
X24499973Y-187500000D01*
X24499973Y-105500000D02*
X23913552Y-106626504D01*
X24499973Y-105500000D02*
X25086394Y-106626504D01*
X24499973Y-187500000D02*
X25086394Y-186373496D01*
X24499973Y-187500000D02*
X23913552Y-186373496D01*
D13*
%TO.P,C8,1*%
%TO.N,+5V*%
X38525000Y-131500000D03*
%TO.P,C8,2*%
%TO.N,COUT*%
X41475000Y-131500000D03*
%TD*%
%TO.P,C6,1*%
%TO.N,Net-(C6-Pad1)*%
X38525000Y-137500000D03*
%TO.P,C6,2*%
%TO.N,COUT*%
X41475000Y-137500000D03*
%TD*%
D14*
%TO.P,J1,1,Pin_1*%
%TO.N,COUT*%
X53955000Y-178805000D03*
D15*
%TO.P,J1,2,Pin_2*%
%TO.N,+12V*%
X59035000Y-178805000D03*
%TD*%
D16*
%TO.P,R12,1*%
%TO.N,Net-(R12-Pad1)*%
X70537500Y-138030000D03*
%TO.P,R12,2*%
%TO.N,COUT*%
X73462500Y-138030000D03*
%TD*%
D17*
%TO.P,U3,1,PD3*%
%TO.N,fuel in*%
X51800000Y-132250000D03*
%TO.P,U3,2,PD4*%
%TO.N,General 1 in*%
X51000000Y-132250000D03*
%TO.P,U3,3,GND*%
%TO.N,COUT*%
X50200000Y-132250000D03*
%TO.P,U3,4,VCC*%
%TO.N,+5V*%
X49400000Y-132250000D03*
%TO.P,U3,5,GND*%
%TO.N,COUT*%
X48600000Y-132250000D03*
%TO.P,U3,6,VCC*%
%TO.N,+5V*%
X47800000Y-132250000D03*
%TO.P,U3,7,PB6/XTAL1*%
%TO.N,unconnected-(U3-Pad7)*%
X47000000Y-132250000D03*
%TO.P,U3,8,PB7/XTAL2*%
%TO.N,unconnected-(U3-Pad8)*%
X46200000Y-132250000D03*
D18*
%TO.P,U3,9,PD5*%
%TO.N,General 2 in*%
X44750000Y-133700000D03*
%TO.P,U3,10,PD6*%
%TO.N,unconnected-(U3-Pad10)*%
X44750000Y-134500000D03*
%TO.P,U3,11,PD7*%
%TO.N,unconnected-(U3-Pad11)*%
X44750000Y-135300000D03*
%TO.P,U3,12,PB0*%
%TO.N,/Fuel out*%
X44750000Y-136100000D03*
%TO.P,U3,13,PB1*%
%TO.N,/Blink 1 out*%
X44750000Y-136900000D03*
%TO.P,U3,14,PB2*%
%TO.N,/Blink 2 out*%
X44750000Y-137700000D03*
%TO.P,U3,15,PB3*%
%TO.N,/Oil out*%
X44750000Y-138500000D03*
%TO.P,U3,16,PB4*%
%TO.N,/General 1 out*%
X44750000Y-139300000D03*
D17*
%TO.P,U3,17,PB5*%
%TO.N,/General 2 out*%
X46200000Y-140750000D03*
%TO.P,U3,18,AVCC*%
%TO.N,+5V*%
X47000000Y-140750000D03*
%TO.P,U3,19,ADC6*%
%TO.N,unconnected-(U3-Pad19)*%
X47800000Y-140750000D03*
%TO.P,U3,20,AREF*%
%TO.N,unconnected-(U3-Pad20)*%
X48600000Y-140750000D03*
%TO.P,U3,21,AGND*%
%TO.N,COUT*%
X49400000Y-140750000D03*
%TO.P,U3,22,ADC7*%
%TO.N,unconnected-(U3-Pad22)*%
X50200000Y-140750000D03*
%TO.P,U3,23,PC0*%
%TO.N,Blink 1 ctrl*%
X51000000Y-140750000D03*
%TO.P,U3,24,PC1*%
%TO.N,Blink 2 ctrl*%
X51800000Y-140750000D03*
D18*
%TO.P,U3,25,PC2*%
%TO.N,unconnected-(U3-Pad25)*%
X53250000Y-139300000D03*
%TO.P,U3,26,PC3*%
%TO.N,unconnected-(U3-Pad26)*%
X53250000Y-138500000D03*
%TO.P,U3,27,PC4*%
%TO.N,unconnected-(U3-Pad27)*%
X53250000Y-137700000D03*
%TO.P,U3,28,PC5*%
%TO.N,unconnected-(U3-Pad28)*%
X53250000Y-136900000D03*
%TO.P,U3,29,PC6/~{RESET}*%
%TO.N,RST*%
X53250000Y-136100000D03*
%TO.P,U3,30,PD0*%
%TO.N,B1 in*%
X53250000Y-135300000D03*
%TO.P,U3,31,PD1*%
%TO.N,B2 in*%
X53250000Y-134500000D03*
%TO.P,U3,32,PD2*%
%TO.N,Oil in*%
X53250000Y-133700000D03*
%TD*%
D19*
%TO.P,J13,1,Pin_1*%
%TO.N,Net-(J13-Pad1)*%
X80500000Y-148470000D03*
D20*
%TO.P,J13,2,Pin_2*%
%TO.N,COUT*%
X80500000Y-145930000D03*
%TO.P,J13,3,Pin_3*%
%TO.N,Net-(J13-Pad3)*%
X80500000Y-143390000D03*
%TO.P,J13,4,Pin_4*%
%TO.N,B1 Shunt*%
X80500000Y-140850000D03*
%TO.P,J13,5,Pin_5*%
%TO.N,Net-(J13-Pad5)*%
X80500000Y-138310000D03*
%TO.P,J13,6,Pin_6*%
%TO.N,B2 shunt*%
X80500000Y-135770000D03*
%TO.P,J13,7,Pin_7*%
%TO.N,Net-(J13-Pad7)*%
X80500000Y-133230000D03*
%TO.P,J13,8,Pin_8*%
%TO.N,COUT*%
X80500000Y-130690000D03*
%TO.P,J13,9,Pin_9*%
%TO.N,Net-(J13-Pad9)*%
X80500000Y-128150000D03*
%TO.P,J13,10,Pin_10*%
%TO.N,COUT*%
X80500000Y-125610000D03*
%TO.P,J13,11,Pin_11*%
%TO.N,Net-(J13-Pad11)*%
X80500000Y-123070000D03*
%TO.P,J13,12,Pin_12*%
%TO.N,COUT*%
X80500000Y-120530000D03*
%TD*%
D16*
%TO.P,R3,1*%
%TO.N,Net-(C4-Pad1)*%
X38537500Y-164500000D03*
%TO.P,R3,2*%
%TO.N,+5V*%
X41462500Y-164500000D03*
%TD*%
D21*
%TO.P,J8,1,MISO*%
%TO.N,/General 1 out*%
X58045000Y-110747500D03*
D22*
%TO.P,J8,2,VCC*%
%TO.N,+5V*%
X58045000Y-113287500D03*
%TO.P,J8,3,SCK*%
%TO.N,/General 2 out*%
X55505000Y-110747500D03*
%TO.P,J8,4,MOSI*%
%TO.N,/Oil out*%
X55505000Y-113287500D03*
%TO.P,J8,5,~{RST}*%
%TO.N,RST*%
X52965000Y-110747500D03*
%TO.P,J8,6,GND*%
%TO.N,COUT*%
X52965000Y-113287500D03*
%TD*%
D23*
%TO.P,J11,1,Pin_1*%
%TO.N,+12V*%
X82500000Y-170475000D03*
%TD*%
D24*
%TO.P,Q1,1,G*%
%TO.N,i28*%
X62925000Y-152000000D03*
D25*
%TO.P,Q1,2,D*%
%TO.N,Net-(J5-Pad1)*%
X65465000Y-152000000D03*
%TO.P,Q1,3,S*%
%TO.N,COUT*%
X68005000Y-152000000D03*
%TD*%
D16*
%TO.P,R10,1*%
%TO.N,i29*%
X60537500Y-143500000D03*
%TO.P,R10,2*%
%TO.N,COUT*%
X63462500Y-143500000D03*
%TD*%
D13*
%TO.P,C5,1*%
%TO.N,Net-(C5-Pad1)*%
X38525000Y-140500000D03*
%TO.P,C5,2*%
%TO.N,COUT*%
X41475000Y-140500000D03*
%TD*%
%TO.P,C1,1*%
%TO.N,+12V*%
X38525000Y-152500000D03*
%TO.P,C1,2*%
%TO.N,COUT*%
X41475000Y-152500000D03*
%TD*%
D16*
%TO.P,R2,1*%
%TO.N,Net-(C3-Pad1)*%
X38537500Y-167500000D03*
%TO.P,R2,2*%
%TO.N,+5V*%
X41462500Y-167500000D03*
%TD*%
D23*
%TO.P,J10,1,Pin_1*%
%TO.N,Net-(J10-Pad1)*%
X76500000Y-164983300D03*
%TD*%
D16*
%TO.P,R7,1*%
%TO.N,i28*%
X44037500Y-143500000D03*
%TO.P,R7,2*%
%TO.N,COUT*%
X46962500Y-143500000D03*
%TD*%
D13*
%TO.P,C10,1*%
%TO.N,Blink 1 ctrl*%
X70525000Y-123050000D03*
%TO.P,C10,2*%
%TO.N,COUT*%
X73475000Y-123050000D03*
%TD*%
%TO.P,C3,1*%
%TO.N,Net-(C3-Pad1)*%
X38525000Y-146500000D03*
%TO.P,C3,2*%
%TO.N,COUT*%
X41475000Y-146500000D03*
%TD*%
D16*
%TO.P,R6,1*%
%TO.N,Net-(C7-Pad1)*%
X38537500Y-155500000D03*
%TO.P,R6,2*%
%TO.N,+5V*%
X41462500Y-155500000D03*
%TD*%
%TO.P,R8,1*%
%TO.N,i26*%
X49537500Y-143500000D03*
%TO.P,R8,2*%
%TO.N,COUT*%
X52462500Y-143500000D03*
%TD*%
D26*
%TO.P,U1,1*%
%TO.N,Net-(C2-Pad1)*%
X39537500Y-120390000D03*
%TO.P,U1,2*%
%TO.N,B1 in*%
X39537500Y-121660000D03*
%TO.P,U1,3*%
%TO.N,Net-(C3-Pad1)*%
X39537500Y-122930000D03*
%TO.P,U1,4*%
%TO.N,B2 in*%
X39537500Y-124200000D03*
%TO.P,U1,5*%
%TO.N,Net-(C4-Pad1)*%
X39537500Y-125470000D03*
%TO.P,U1,6*%
%TO.N,fuel in*%
X39537500Y-126740000D03*
%TO.P,U1,7,GND*%
%TO.N,COUT*%
X39537500Y-128010000D03*
%TO.P,U1,8*%
%TO.N,Oil in*%
X46462500Y-128010000D03*
%TO.P,U1,9*%
%TO.N,Net-(C5-Pad1)*%
X46462500Y-126740000D03*
%TO.P,U1,10*%
%TO.N,General 1 in*%
X46462500Y-125470000D03*
%TO.P,U1,11*%
%TO.N,Net-(C6-Pad1)*%
X46462500Y-124200000D03*
%TO.P,U1,12*%
%TO.N,General 2 in*%
X46462500Y-122930000D03*
%TO.P,U1,13*%
%TO.N,Net-(C7-Pad1)*%
X46462500Y-121660000D03*
%TO.P,U1,14,VCC*%
%TO.N,+5V*%
X46462500Y-120390000D03*
%TD*%
D23*
%TO.P,J6,1,Pin_1*%
%TO.N,+12V*%
X82500000Y-159491700D03*
%TD*%
D16*
%TO.P,R17,1*%
%TO.N,Net-(R17-Pad1)*%
X70537500Y-135040000D03*
%TO.P,R17,2*%
%TO.N,Blink 2 ctrl*%
X73462500Y-135040000D03*
%TD*%
%TO.P,R5,1*%
%TO.N,Net-(C6-Pad1)*%
X38537500Y-158500000D03*
%TO.P,R5,2*%
%TO.N,+5V*%
X41462500Y-158500000D03*
%TD*%
D27*
%TO.P,U2,1,ADJ*%
%TO.N,COUT*%
X50700000Y-126400000D03*
D28*
%TO.P,U2,2,VO*%
%TO.N,+5V*%
X53000000Y-120100000D03*
D27*
X53000000Y-126400000D03*
%TO.P,U2,3,VI*%
%TO.N,+12V*%
X55300000Y-126400000D03*
%TD*%
D19*
%TO.P,J2,1,Pin_1*%
%TO.N,COUT*%
X34000000Y-120570000D03*
D20*
%TO.P,J2,2,Pin_2*%
%TO.N,Net-(C6-Pad1)*%
X34000000Y-123110000D03*
%TO.P,J2,3,Pin_3*%
%TO.N,COUT*%
X34000000Y-125650000D03*
%TO.P,J2,4,Pin_4*%
%TO.N,Net-(C5-Pad1)*%
X34000000Y-128190000D03*
%TO.P,J2,5,Pin_5*%
%TO.N,COUT*%
X34000000Y-130730000D03*
%TO.P,J2,6,Pin_6*%
%TO.N,Net-(C4-Pad1)*%
X34000000Y-133270000D03*
%TO.P,J2,7,Pin_7*%
%TO.N,COUT*%
X34000000Y-135810000D03*
%TO.P,J2,8,Pin_8*%
%TO.N,Net-(C3-Pad1)*%
X34000000Y-138350000D03*
%TO.P,J2,9,Pin_9*%
%TO.N,COUT*%
X34000000Y-140890000D03*
%TO.P,J2,10,Pin_10*%
%TO.N,Net-(C2-Pad1)*%
X34000000Y-143430000D03*
%TD*%
D24*
%TO.P,Q2,1,G*%
%TO.N,i26*%
X48900000Y-152000000D03*
D25*
%TO.P,Q2,2,D*%
%TO.N,Net-(J7-Pad1)*%
X51440000Y-152000000D03*
%TO.P,Q2,3,S*%
%TO.N,COUT*%
X53980000Y-152000000D03*
%TD*%
D23*
%TO.P,J7,1,Pin_1*%
%TO.N,Net-(J7-Pad1)*%
X76500000Y-159491700D03*
%TD*%
D16*
%TO.P,R11,1*%
%TO.N,Net-(R11-Pad1)*%
X70537500Y-147000000D03*
%TO.P,R11,2*%
%TO.N,B2 shunt*%
X73462500Y-147000000D03*
%TD*%
D23*
%TO.P,J5,1,Pin_1*%
%TO.N,Net-(J5-Pad1)*%
X76500000Y-154000000D03*
%TD*%
D13*
%TO.P,C9,1*%
%TO.N,Blink 2 ctrl*%
X70525000Y-120000000D03*
%TO.P,C9,2*%
%TO.N,COUT*%
X73475000Y-120000000D03*
%TD*%
D29*
%TO.P,Rshunt1,1*%
%TO.N,B1 Shunt*%
X59000000Y-128962500D03*
%TO.P,Rshunt1,2*%
%TO.N,COUT*%
X59000000Y-126037500D03*
%TD*%
D23*
%TO.P,J12,1,Pin_1*%
%TO.N,Net-(J12-Pad1)*%
X76500000Y-170475000D03*
%TD*%
D13*
%TO.P,C2,1*%
%TO.N,Net-(C2-Pad1)*%
X38525000Y-149500000D03*
%TO.P,C2,2*%
%TO.N,COUT*%
X41475000Y-149500000D03*
%TD*%
D16*
%TO.P,R4,1*%
%TO.N,Net-(C5-Pad1)*%
X38537500Y-161500000D03*
%TO.P,R4,2*%
%TO.N,+5V*%
X41462500Y-161500000D03*
%TD*%
D30*
%TO.P,U4,1,I1*%
%TO.N,/Fuel out*%
X58025000Y-132055000D03*
%TO.P,U4,2,I2*%
%TO.N,/Blink 1 out*%
X58025000Y-133325000D03*
%TO.P,U4,3,I3*%
%TO.N,/Blink 2 out*%
X58025000Y-134595000D03*
%TO.P,U4,4,I4*%
%TO.N,/Oil out*%
X58025000Y-135865000D03*
%TO.P,U4,5,I5*%
%TO.N,/General 1 out*%
X58025000Y-137135000D03*
%TO.P,U4,6,I6*%
%TO.N,/General 2 out*%
X58025000Y-138405000D03*
%TO.P,U4,7,I7*%
%TO.N,unconnected-(U4-Pad7)*%
X58025000Y-139675000D03*
%TO.P,U4,8,GND*%
%TO.N,COUT*%
X58025000Y-140945000D03*
%TO.P,U4,9,COM*%
X62975000Y-140945000D03*
%TO.P,U4,10,O7*%
%TO.N,unconnected-(U4-Pad10)*%
X62975000Y-139675000D03*
%TO.P,U4,11,O6*%
%TO.N,Net-(J13-Pad11)*%
X62975000Y-138405000D03*
%TO.P,U4,12,O5*%
%TO.N,Net-(J13-Pad9)*%
X62975000Y-137135000D03*
%TO.P,U4,13,O4*%
%TO.N,Net-(J13-Pad7)*%
X62975000Y-135865000D03*
%TO.P,U4,14,O3*%
%TO.N,Net-(J13-Pad5)*%
X62975000Y-134595000D03*
%TO.P,U4,15,O2*%
%TO.N,Net-(J13-Pad3)*%
X62975000Y-133325000D03*
%TO.P,U4,16,O1*%
%TO.N,Net-(J13-Pad1)*%
X62975000Y-132055000D03*
%TD*%
D24*
%TO.P,Q3,1,G*%
%TO.N,i24*%
X49075000Y-168000000D03*
D25*
%TO.P,Q3,2,D*%
%TO.N,Net-(J10-Pad1)*%
X51615000Y-168000000D03*
%TO.P,Q3,3,S*%
%TO.N,COUT*%
X54155000Y-168000000D03*
%TD*%
D16*
%TO.P,R9,1*%
%TO.N,i24*%
X55037500Y-143500000D03*
%TO.P,R9,2*%
%TO.N,COUT*%
X57962500Y-143500000D03*
%TD*%
D24*
%TO.P,Q4,1,G*%
%TO.N,i29*%
X63100000Y-168000000D03*
D25*
%TO.P,Q4,2,D*%
%TO.N,Net-(J12-Pad1)*%
X65640000Y-168000000D03*
%TO.P,Q4,3,S*%
%TO.N,COUT*%
X68180000Y-168000000D03*
%TD*%
D29*
%TO.P,Rshunt2,1*%
%TO.N,B2 shunt*%
X63500000Y-128962500D03*
%TO.P,Rshunt2,2*%
%TO.N,COUT*%
X63500000Y-126037500D03*
%TD*%
D23*
%TO.P,J9,1,Pin_1*%
%TO.N,+12V*%
X82500000Y-164983300D03*
%TD*%
D16*
%TO.P,R15,1*%
%TO.N,unconnected-(R15-Pad1)*%
X70537500Y-141020000D03*
%TO.P,R15,2*%
%TO.N,Net-(R12-Pad1)*%
X73462500Y-141020000D03*
%TD*%
D13*
%TO.P,C7,1*%
%TO.N,Net-(C7-Pad1)*%
X38525000Y-134500000D03*
%TO.P,C7,2*%
%TO.N,COUT*%
X41475000Y-134500000D03*
%TD*%
D16*
%TO.P,R16,1*%
%TO.N,unconnected-(R16-Pad1)*%
X70537500Y-126070000D03*
%TO.P,R16,2*%
%TO.N,Net-(R14-Pad1)*%
X73462500Y-126070000D03*
%TD*%
%TO.P,R18,1*%
%TO.N,Net-(R18-Pad1)*%
X70537500Y-144010000D03*
%TO.P,R18,2*%
%TO.N,Blink 1 ctrl*%
X73462500Y-144010000D03*
%TD*%
D19*
%TO.P,J3,1,Pin_1*%
%TO.N,Net-(C7-Pad1)*%
X34000000Y-146570000D03*
D20*
%TO.P,J3,2,Pin_2*%
%TO.N,COUT*%
X34000000Y-149110000D03*
%TO.P,J3,3,Pin_3*%
X34000000Y-151650000D03*
%TO.P,J3,4,Pin_4*%
%TO.N,i24*%
X34000000Y-154190000D03*
%TO.P,J3,5,Pin_5*%
%TO.N,COUT*%
X34000000Y-156730000D03*
%TO.P,J3,6,Pin_6*%
%TO.N,i26*%
X34000000Y-159270000D03*
%TO.P,J3,7,Pin_7*%
%TO.N,COUT*%
X34000000Y-161810000D03*
%TO.P,J3,8,Pin_8*%
%TO.N,i28*%
X34000000Y-164350000D03*
%TO.P,J3,9,Pin_9*%
%TO.N,i29*%
X34000000Y-166890000D03*
%TO.P,J3,10,Pin_10*%
%TO.N,COUT*%
X34000000Y-169430000D03*
%TD*%
D16*
%TO.P,R13,1*%
%TO.N,Net-(R13-Pad1)*%
X70537500Y-129060000D03*
%TO.P,R13,2*%
%TO.N,B1 Shunt*%
X73462500Y-129060000D03*
%TD*%
D30*
%TO.P,U5,1*%
%TO.N,Net-(R18-Pad1)*%
X61025000Y-119645000D03*
%TO.P,U5,2,-*%
%TO.N,Net-(R14-Pad1)*%
X61025000Y-120915000D03*
%TO.P,U5,3,+*%
%TO.N,Net-(R13-Pad1)*%
X61025000Y-122185000D03*
%TO.P,U5,4,V-*%
%TO.N,COUT*%
X61025000Y-123455000D03*
%TO.P,U5,5,+*%
%TO.N,Net-(R11-Pad1)*%
X65975000Y-123455000D03*
%TO.P,U5,6,-*%
%TO.N,Net-(R12-Pad1)*%
X65975000Y-122185000D03*
%TO.P,U5,7*%
%TO.N,Net-(R17-Pad1)*%
X65975000Y-120915000D03*
%TO.P,U5,8,V+*%
%TO.N,+5V*%
X65975000Y-119645000D03*
%TD*%
D13*
%TO.P,C4,1*%
%TO.N,Net-(C4-Pad1)*%
X38525000Y-143500000D03*
%TO.P,C4,2*%
%TO.N,COUT*%
X41475000Y-143500000D03*
%TD*%
D16*
%TO.P,R1,1*%
%TO.N,Net-(C2-Pad1)*%
X38537500Y-170500000D03*
%TO.P,R1,2*%
%TO.N,+5V*%
X41462500Y-170500000D03*
%TD*%
D23*
%TO.P,J4,1,Pin_1*%
%TO.N,+12V*%
X82500000Y-154000000D03*
%TD*%
D16*
%TO.P,R14,1*%
%TO.N,Net-(R14-Pad1)*%
X70537500Y-132050000D03*
%TO.P,R14,2*%
%TO.N,COUT*%
X73462500Y-132050000D03*
%TD*%
D31*
%TO.N,+12V*%
X55531500Y-128886400D03*
X38525000Y-154012500D03*
%TO.N,Net-(C4-Pad1)*%
X36349600Y-149966100D03*
%TO.N,Net-(C5-Pad1)*%
X44836500Y-126827800D03*
%TO.N,Net-(C6-Pad1)*%
X44867000Y-125146000D03*
%TO.N,Net-(C7-Pad1)*%
X40166700Y-135022300D03*
%TO.N,+5V*%
X55175500Y-118497300D03*
%TO.N,/General 1 out*%
X56263600Y-136720900D03*
X47654300Y-137782500D03*
%TO.N,/General 2 out*%
X55314200Y-138307300D03*
X47442500Y-138782900D03*
%TO.N,/Oil out*%
X47984200Y-135498700D03*
%TO.N,RST*%
X50620300Y-134239800D03*
%TO.N,COUT*%
X65671300Y-127867000D03*
%TO.N,Net-(J13-Pad1)*%
X64411500Y-132662600D03*
%TO.N,B2 shunt*%
X67276700Y-135396700D03*
%TO.N,B1 Shunt*%
X64816000Y-131529900D03*
%TO.N,i28*%
X44242200Y-149949800D03*
%TO.N,Net-(J13-Pad3)*%
X64626300Y-133711600D03*
%TO.N,Net-(J13-Pad5)*%
X67111600Y-136397100D03*
%TO.N,Net-(J13-Pad7)*%
X65826000Y-135111500D03*
%TO.N,Net-(J13-Pad9)*%
X64551300Y-137232900D03*
%TO.N,Oil in*%
X46756000Y-129199300D03*
X51511500Y-133700000D03*
%TO.N,/Fuel out*%
X57088900Y-131151600D03*
X42548000Y-139072900D03*
%TO.N,/Blink 1 out*%
X43337700Y-136900000D03*
X54674800Y-136177800D03*
%TO.N,/Blink 2 out*%
X55846800Y-135490300D03*
X46642000Y-136156500D03*
%TO.N,i24*%
X45228700Y-153326200D03*
%TO.N,Blink 2 ctrl*%
X59464500Y-136508400D03*
X72286700Y-126732300D03*
%TO.N,Net-(J13-Pad11)*%
X61032600Y-131959800D03*
%TD*%
D32*
%TO.N,COUT*%
X53955000Y-178805000D02*
X55780000Y-180630000D01*
X55780000Y-180630000D02*
X77370000Y-180630000D01*
X77370000Y-180630000D02*
X84325000Y-173675000D01*
X84325000Y-173675000D02*
X84325000Y-149445000D01*
X84325000Y-149445000D02*
X80810000Y-145930000D01*
X80810000Y-145930000D02*
X80500000Y-145930000D01*
%TO.N,+12V*%
X55300000Y-128654900D02*
X55300000Y-126400000D01*
D33*
X74170000Y-178805000D02*
X82500000Y-170475000D01*
X82500000Y-170475000D02*
X82500000Y-164983300D01*
D32*
X55531500Y-128886400D02*
X55300000Y-128654900D01*
X38525000Y-152500000D02*
X38525000Y-154012500D01*
D33*
X59035000Y-178805000D02*
X74170000Y-178805000D01*
X82500000Y-164983300D02*
X82500000Y-159491700D01*
X82500000Y-159491700D02*
X82500000Y-154000000D01*
D32*
%TO.N,Net-(C2-Pad1)*%
X34203900Y-143430000D02*
X36946300Y-146172400D01*
X37683400Y-171354100D02*
X33166700Y-171354100D01*
X31183700Y-140711400D02*
X31183700Y-119406400D01*
X31631700Y-145629038D02*
X33830738Y-143430000D01*
X33166700Y-171354100D02*
X31631700Y-169819100D01*
X33902300Y-143430000D02*
X34000000Y-143430000D01*
X38537500Y-170500000D02*
X37683400Y-171354100D01*
X33902300Y-143430000D02*
X31183700Y-140711400D01*
X31631700Y-169819100D02*
X31631700Y-145629038D01*
X33830738Y-143430000D02*
X34000000Y-143430000D01*
X32379300Y-118210800D02*
X37358300Y-118210800D01*
X36946300Y-146172400D02*
X36946300Y-147921300D01*
X36946300Y-147921300D02*
X38525000Y-149500000D01*
X34000000Y-143430000D02*
X34203900Y-143430000D01*
X31183700Y-119406400D02*
X32379300Y-118210800D01*
X37358300Y-118210800D02*
X39537500Y-120390000D01*
%TO.N,Net-(C3-Pad1)*%
X36441400Y-146304400D02*
X36441400Y-148302800D01*
X32124100Y-169626200D02*
X32124100Y-145773034D01*
X37000000Y-122000000D02*
X37930000Y-122930000D01*
X35140800Y-170896700D02*
X33394600Y-170896700D01*
X33394600Y-170896700D02*
X32124100Y-169626200D01*
X35425400Y-143400400D02*
X35425400Y-139775400D01*
X37569100Y-150341000D02*
X38003400Y-150775300D01*
X39052000Y-150775300D02*
X39426400Y-150400900D01*
X36188100Y-118688100D02*
X37000000Y-119500000D01*
X38003400Y-150775300D02*
X39052000Y-150775300D01*
X38537500Y-167500000D02*
X35140800Y-170896700D01*
X35425400Y-139775400D02*
X34000000Y-138350000D01*
X35281600Y-145144600D02*
X36441400Y-146304400D01*
X32555300Y-118688100D02*
X36188100Y-118688100D01*
X31671600Y-136021600D02*
X31671600Y-119571800D01*
X32124100Y-145773034D02*
X32752534Y-145144600D01*
X36441400Y-148302800D02*
X37569100Y-149430500D01*
X37569100Y-149430500D02*
X37569100Y-150341000D01*
X37000000Y-119500000D02*
X37000000Y-122000000D01*
X39426400Y-147401400D02*
X38525000Y-146500000D01*
X39426400Y-150400900D02*
X39426400Y-147401400D01*
X37930000Y-122930000D02*
X39537500Y-122930000D01*
X32752534Y-145144600D02*
X35281600Y-145144600D01*
X38525000Y-146500000D02*
X35425400Y-143400400D01*
X34000000Y-138350000D02*
X31671600Y-136021600D01*
X31671600Y-119571800D02*
X32555300Y-118688100D01*
%TO.N,Net-(C4-Pad1)*%
X38525000Y-143500000D02*
X35941900Y-140916900D01*
X35667900Y-121991100D02*
X35667900Y-119167900D01*
X36349600Y-162312100D02*
X36349600Y-149966100D01*
X35941900Y-140916900D02*
X35941900Y-135211900D01*
X35638100Y-119138100D02*
X34034600Y-119138100D01*
X39146800Y-125470000D02*
X35667900Y-121991100D01*
X32122000Y-131392000D02*
X34000000Y-133270000D01*
X32122000Y-119766900D02*
X32122000Y-131392000D01*
X35667900Y-119167900D02*
X35638100Y-119138100D01*
X35941900Y-135211900D02*
X34000000Y-133270000D01*
X32744300Y-119144600D02*
X32122000Y-119766900D01*
X34028100Y-119144600D02*
X32744300Y-119144600D01*
X38537500Y-164500000D02*
X36349600Y-162312100D01*
X39537500Y-125470000D02*
X39146800Y-125470000D01*
X34034600Y-119138100D02*
X34028100Y-119144600D01*
%TO.N,Net-(C5-Pad1)*%
X37500000Y-160462500D02*
X38537500Y-161500000D01*
X37500000Y-157500000D02*
X37500000Y-160462500D01*
X38525000Y-140500000D02*
X36617200Y-138592200D01*
X39876900Y-150861800D02*
X39426600Y-151312100D01*
X44836500Y-126827800D02*
X46374700Y-126827800D01*
X36167000Y-133234900D02*
X36167000Y-130357000D01*
X36617200Y-133685100D02*
X36167000Y-133234900D01*
X39876900Y-141851900D02*
X39876900Y-150861800D01*
X38000000Y-157000000D02*
X37500000Y-157500000D01*
X39426600Y-156573400D02*
X39000000Y-157000000D01*
X36617200Y-138592200D02*
X36617200Y-133685100D01*
X39000000Y-157000000D02*
X38000000Y-157000000D01*
X39426600Y-151312100D02*
X39426600Y-156573400D01*
X36167000Y-130357000D02*
X34000000Y-128190000D01*
X46374700Y-126827800D02*
X46462500Y-126740000D01*
X38525000Y-140500000D02*
X39876900Y-141851900D01*
%TO.N,Net-(C6-Pad1)*%
X37067600Y-133498600D02*
X36659900Y-133090900D01*
X40327300Y-151273600D02*
X40327300Y-139302300D01*
X38525000Y-137500000D02*
X37067600Y-136042600D01*
X40036000Y-157001500D02*
X40036000Y-151564900D01*
X44867000Y-125146000D02*
X45813000Y-124200000D01*
X37067600Y-136042600D02*
X37067600Y-133498600D01*
X40327300Y-139302300D02*
X38525000Y-137500000D01*
X38537500Y-158500000D02*
X40036000Y-157001500D01*
X36659900Y-133090900D02*
X36659900Y-125769900D01*
X36659900Y-125769900D02*
X34000000Y-123110000D01*
X40036000Y-151564900D02*
X40327300Y-151273600D01*
X45813000Y-124200000D02*
X46462500Y-124200000D01*
%TO.N,Net-(C7-Pad1)*%
X45947500Y-121660000D02*
X46462500Y-121660000D01*
X40166700Y-131018300D02*
X42810000Y-128375000D01*
X38525000Y-134500000D02*
X40166700Y-134500000D01*
X34000000Y-146570000D02*
X37111900Y-149681900D01*
X40166700Y-134500000D02*
X40166700Y-131018300D01*
X40166700Y-134500000D02*
X40166700Y-135022300D01*
X42810000Y-128375000D02*
X42810000Y-124797500D01*
X37111900Y-149681900D02*
X37111900Y-154074400D01*
X42810000Y-124797500D02*
X45947500Y-121660000D01*
X37111900Y-154074400D02*
X38537500Y-155500000D01*
%TO.N,+5V*%
X41462500Y-158500000D02*
X41462500Y-161500000D01*
X41462500Y-164500000D02*
X41462500Y-161500000D01*
X44073600Y-127542600D02*
X47655700Y-131124700D01*
X48186800Y-133375300D02*
X47800000Y-133375300D01*
X48793400Y-133981900D02*
X48186800Y-133375300D01*
X45500000Y-151462500D02*
X41462500Y-155500000D01*
X47776000Y-121299100D02*
X46866900Y-120390000D01*
X42315400Y-124140200D02*
X42315400Y-127709600D01*
X47665000Y-139624700D02*
X48793400Y-138496300D01*
X47776000Y-123275751D02*
X47486751Y-123565000D01*
X45500000Y-143000000D02*
X45500000Y-151462500D01*
X49575600Y-121299100D02*
X50774700Y-120100000D01*
X46462500Y-120390000D02*
X46065600Y-120390000D01*
X55225300Y-118547100D02*
X55175500Y-118497300D01*
X49400000Y-132250000D02*
X49400000Y-133375300D01*
X47486751Y-123565000D02*
X45406200Y-123565000D01*
X46866900Y-120390000D02*
X46462500Y-120390000D01*
X47000000Y-139624700D02*
X47665000Y-139624700D01*
X47800000Y-132250000D02*
X47800000Y-133375300D01*
X53000000Y-120100000D02*
X55225300Y-120100000D01*
X46624700Y-141875300D02*
X45500000Y-143000000D01*
X47776000Y-121299100D02*
X47776000Y-123275751D01*
X47776000Y-121299100D02*
X49575600Y-121299100D01*
X53000000Y-120100000D02*
X50774700Y-120100000D01*
X58045000Y-113287500D02*
X59617500Y-113287500D01*
X47655700Y-131124700D02*
X47800000Y-131124700D01*
X53000000Y-126400000D02*
X53000000Y-125074700D01*
X48793400Y-138496300D02*
X48793400Y-133981900D01*
X41462500Y-170500000D02*
X41462500Y-167500000D01*
X41462500Y-167500000D02*
X41462500Y-164500000D01*
X49575600Y-121650300D02*
X53000000Y-125074700D01*
X45406200Y-123565000D02*
X44073600Y-124897600D01*
X48793400Y-133981900D02*
X49400000Y-133375300D01*
X59617500Y-113287500D02*
X65975000Y-119645000D01*
X46065600Y-120390000D02*
X42315400Y-124140200D01*
X49575600Y-121299100D02*
X49575600Y-121650300D01*
X41462500Y-158500000D02*
X41462500Y-155500000D01*
X47800000Y-131124700D02*
X47800000Y-132250000D01*
X44073600Y-124897600D02*
X44073600Y-127542600D01*
X55225300Y-120100000D02*
X55225300Y-118547100D01*
X47000000Y-140750000D02*
X47000000Y-139624700D01*
X42315400Y-127709600D02*
X38525000Y-131500000D01*
X47000000Y-140750000D02*
X47000000Y-141875300D01*
X47000000Y-141875300D02*
X46624700Y-141875300D01*
%TO.N,/General 1 out*%
X45875300Y-139300000D02*
X47392800Y-137782500D01*
X56263600Y-136763600D02*
X56635000Y-137135000D01*
X56263600Y-136720900D02*
X56263600Y-136763600D01*
X44750000Y-139300000D02*
X45875300Y-139300000D01*
X47392800Y-137782500D02*
X47654300Y-137782500D01*
X56635000Y-137135000D02*
X58025000Y-137135000D01*
%TO.N,/General 2 out*%
X47041800Y-138782900D02*
X47442500Y-138782900D01*
X46200000Y-140750000D02*
X46200000Y-139624700D01*
X58025000Y-138405000D02*
X55411900Y-138405000D01*
X46200000Y-139624700D02*
X47041800Y-138782900D01*
X55411900Y-138405000D02*
X55314200Y-138307300D01*
%TO.N,/Oil out*%
X45875300Y-138500000D02*
X47984200Y-136391100D01*
X59333100Y-131712100D02*
X57329500Y-129708500D01*
X58409200Y-135865000D02*
X59333100Y-134941100D01*
X57329500Y-129708500D02*
X57329500Y-115112000D01*
X58025000Y-135865000D02*
X58409200Y-135865000D01*
X57329500Y-115112000D02*
X55505000Y-113287500D01*
X59333100Y-134941100D02*
X59333100Y-131712100D01*
X47984200Y-136391100D02*
X47984200Y-135498700D01*
X44750000Y-138500000D02*
X45875300Y-138500000D01*
%TO.N,RST*%
X53250000Y-136100000D02*
X52124700Y-136100000D01*
X50620300Y-134595600D02*
X50620300Y-134239800D01*
X52124700Y-136100000D02*
X50620300Y-134595600D01*
%TO.N,COUT*%
X73462500Y-131076100D02*
X73462500Y-132050000D01*
X62584400Y-140945000D02*
X62975000Y-140945000D01*
X63500000Y-126037500D02*
X59000000Y-126037500D01*
X73462500Y-132050000D02*
X74363600Y-132951100D01*
X60189900Y-138550500D02*
X62584400Y-140945000D01*
X74363600Y-132951100D02*
X74363600Y-137128900D01*
X57779500Y-129521500D02*
X60189900Y-131931900D01*
X78545000Y-127854600D02*
X78545000Y-128735000D01*
X57779500Y-127220500D02*
X57779500Y-129521500D01*
X81954900Y-121984900D02*
X80500000Y-120530000D01*
X72500000Y-128256400D02*
X72500000Y-130113600D01*
X80500000Y-125610000D02*
X81954900Y-124155100D01*
X60189900Y-131931900D02*
X60189900Y-138550500D01*
X57964100Y-127035900D02*
X57779500Y-127220500D01*
X77642800Y-143072800D02*
X77642800Y-142210300D01*
X58001600Y-127035900D02*
X57964100Y-127035900D01*
X72500000Y-130113600D02*
X73462500Y-131076100D01*
X72901800Y-127854600D02*
X72500000Y-128256400D01*
X65671300Y-127867000D02*
X65329500Y-127867000D01*
X78545000Y-127854600D02*
X72901800Y-127854600D01*
X81954900Y-124155100D02*
X81954900Y-121984900D01*
X77642800Y-142210300D02*
X73462500Y-138030000D01*
X78545000Y-127565000D02*
X80500000Y-125610000D01*
X78545000Y-127854600D02*
X78545000Y-127565000D01*
X74363600Y-137128900D02*
X73462500Y-138030000D01*
X80500000Y-145930000D02*
X77642800Y-143072800D01*
X59000000Y-126037500D02*
X58001600Y-127035900D01*
X65329500Y-127867000D02*
X63500000Y-126037500D01*
X78545000Y-128735000D02*
X80500000Y-130690000D01*
%TO.N,Net-(J13-Pad1)*%
X62975000Y-132055000D02*
X63803900Y-132055000D01*
X63803900Y-132055000D02*
X64411500Y-132662600D01*
%TO.N,B2 shunt*%
X67276700Y-135396700D02*
X67103300Y-135396700D01*
X72261100Y-148201400D02*
X69986400Y-148201400D01*
X66973800Y-132436300D02*
X63500000Y-128962500D01*
X66974304Y-134596600D02*
X67276700Y-134898996D01*
X67276700Y-134898996D02*
X67276700Y-135396700D01*
X67836900Y-135956900D02*
X67276700Y-135396700D01*
X73462500Y-147000000D02*
X72261100Y-148201400D01*
X66973800Y-134596600D02*
X66973800Y-132436300D01*
X66973800Y-134596600D02*
X66974304Y-134596600D01*
X69986400Y-148201400D02*
X67836900Y-146051900D01*
X67836900Y-146051900D02*
X67836900Y-135956900D01*
%TO.N,B1 Shunt*%
X75165600Y-135515600D02*
X75165600Y-130763100D01*
X64816000Y-131529900D02*
X64485700Y-131199600D01*
X64485700Y-131199600D02*
X61237100Y-131199600D01*
X61237100Y-131199600D02*
X59000000Y-128962500D01*
X80500000Y-140850000D02*
X75165600Y-135515600D01*
X75165600Y-130763100D02*
X73462500Y-129060000D01*
%TO.N,i28*%
X35355000Y-165705000D02*
X34000000Y-164350000D01*
X40530000Y-164188400D02*
X40530000Y-154670600D01*
X40530000Y-164258173D02*
X39088173Y-165700000D01*
X40530000Y-164188400D02*
X40530000Y-164258173D01*
X39013400Y-165705000D02*
X35355000Y-165705000D01*
X39013400Y-165700000D02*
X39013400Y-165705000D01*
X44037500Y-149949800D02*
X44037500Y-143500000D01*
X41251400Y-153949200D02*
X41866600Y-153949200D01*
X41866600Y-153949200D02*
X44037500Y-151778300D01*
X39088173Y-165700000D02*
X39013400Y-165700000D01*
X44037500Y-151778300D02*
X44037500Y-149949800D01*
X40530000Y-154670600D02*
X41251400Y-153949200D01*
X44037500Y-149949800D02*
X44242200Y-149949800D01*
%TO.N,Net-(J13-Pad3)*%
X62975000Y-133325000D02*
X63361600Y-133711600D01*
X63361600Y-133711600D02*
X64626300Y-133711600D01*
%TO.N,Net-(J13-Pad5)*%
X64977500Y-134386200D02*
X66126500Y-134386200D01*
X66126500Y-134386200D02*
X66551300Y-134811000D01*
X66551300Y-134811000D02*
X66551300Y-135836800D01*
X64768700Y-134595000D02*
X64977500Y-134386200D01*
X62975000Y-134595000D02*
X64768700Y-134595000D01*
X66551300Y-135836800D02*
X67111600Y-136397100D01*
%TO.N,Net-(J13-Pad7)*%
X65072500Y-135865000D02*
X65826000Y-135111500D01*
X62975000Y-135865000D02*
X65072500Y-135865000D01*
%TO.N,Net-(J13-Pad9)*%
X64453400Y-137135000D02*
X64551300Y-137232900D01*
X62975000Y-137135000D02*
X64453400Y-137135000D01*
%TO.N,B1 in*%
X56879200Y-117901400D02*
X55812500Y-116834700D01*
X54375300Y-135138400D02*
X54868300Y-134645400D01*
X54868300Y-134645400D02*
X54868300Y-131436300D01*
X53250000Y-135300000D02*
X54375300Y-135300000D01*
X39969000Y-121660000D02*
X39537500Y-121660000D01*
X44794300Y-116834700D02*
X39969000Y-121660000D01*
X55812500Y-116834700D02*
X44794300Y-116834700D01*
X54868300Y-131436300D02*
X56879200Y-129425400D01*
X54375300Y-135300000D02*
X54375300Y-135138400D01*
X56879200Y-129425400D02*
X56879200Y-117901400D01*
%TO.N,B2 in*%
X54375300Y-134500000D02*
X54375300Y-131134600D01*
X56378700Y-118037800D02*
X55625900Y-117285000D01*
X54375300Y-131134600D02*
X56378700Y-129131200D01*
X56378700Y-129131200D02*
X56378700Y-118037800D01*
X46880200Y-117285000D02*
X39965200Y-124200000D01*
X55625900Y-117285000D02*
X46880200Y-117285000D01*
X53250000Y-134500000D02*
X54375300Y-134500000D01*
X39965200Y-124200000D02*
X39537500Y-124200000D01*
%TO.N,fuel in*%
X47420400Y-117735300D02*
X41095000Y-124060700D01*
X51800000Y-131124700D02*
X54224600Y-128700100D01*
X41095000Y-125593000D02*
X39948000Y-126740000D01*
X51800000Y-132250000D02*
X51800000Y-131124700D01*
X55439300Y-117735300D02*
X47420400Y-117735300D01*
X54224600Y-123250000D02*
X55900800Y-121573800D01*
X41095000Y-124060700D02*
X41095000Y-125593000D01*
X54224600Y-128700100D02*
X54224600Y-123250000D01*
X55900800Y-121573800D02*
X55900800Y-118196800D01*
X55900800Y-118196800D02*
X55439300Y-117735300D01*
X39948000Y-126740000D02*
X39537500Y-126740000D01*
%TO.N,Oil in*%
X46756000Y-128303500D02*
X46756000Y-129199300D01*
X52124700Y-133700000D02*
X51511500Y-133700000D01*
X46462500Y-128010000D02*
X46756000Y-128303500D01*
X53250000Y-133700000D02*
X52124700Y-133700000D01*
%TO.N,General 1 in*%
X51623800Y-125074600D02*
X51775400Y-125226200D01*
X46857900Y-125074600D02*
X51623800Y-125074600D01*
X51000000Y-129624600D02*
X51000000Y-132250000D01*
X51775400Y-125226200D02*
X51775400Y-128849200D01*
X46462500Y-125470000D02*
X46857900Y-125074600D01*
X51775400Y-128849200D02*
X51000000Y-129624600D01*
%TO.N,General 2 in*%
X46462500Y-122930000D02*
X45387800Y-122930000D01*
X45387800Y-122930000D02*
X43623200Y-124694600D01*
X43623200Y-133698500D02*
X43624700Y-133700000D01*
X43623200Y-124694600D02*
X43623200Y-133698500D01*
X44750000Y-133700000D02*
X43624700Y-133700000D01*
%TO.N,/Fuel out*%
X43624700Y-136100000D02*
X43077400Y-136100000D01*
X58025000Y-132055000D02*
X57992300Y-132055000D01*
X42548000Y-136629400D02*
X42548000Y-139072900D01*
X57992300Y-132055000D02*
X57088900Y-131151600D01*
X43077400Y-136100000D02*
X42548000Y-136629400D01*
X44750000Y-136100000D02*
X43624700Y-136100000D01*
%TO.N,/Blink 1 out*%
X44750000Y-136900000D02*
X43624700Y-136900000D01*
X56986400Y-133325000D02*
X55121500Y-135189900D01*
X43624700Y-136900000D02*
X43337700Y-136900000D01*
X55121500Y-135731100D02*
X54674800Y-136177800D01*
X58025000Y-133325000D02*
X56986400Y-133325000D01*
X55121500Y-135189900D02*
X55121500Y-135731100D01*
%TO.N,/Blink 2 out*%
X56742100Y-134595000D02*
X55846800Y-135490300D01*
X45875300Y-137700000D02*
X46642000Y-136933300D01*
X46642000Y-136933300D02*
X46642000Y-136156500D01*
X44750000Y-137700000D02*
X45875300Y-137700000D01*
X58025000Y-134595000D02*
X56742100Y-134595000D01*
%TO.N,i26*%
X48900000Y-152000000D02*
X55931800Y-144968200D01*
X55551600Y-142259300D02*
X54439700Y-142259300D01*
X53909300Y-143805700D02*
X52992600Y-144722400D01*
X52992600Y-144722400D02*
X50759900Y-144722400D01*
X54439700Y-142259300D02*
X53909300Y-142789700D01*
X50759900Y-144722400D02*
X49537500Y-143500000D01*
X53909300Y-142789700D02*
X53909300Y-143805700D01*
X55931800Y-144968200D02*
X55931800Y-142639500D01*
X55931800Y-142639500D02*
X55551600Y-142259300D01*
%TO.N,i24*%
X47622100Y-150857600D02*
X54979700Y-143500000D01*
X47622100Y-167824900D02*
X47797200Y-168000000D01*
X54979700Y-143500000D02*
X55037500Y-143500000D01*
X45228700Y-153326200D02*
X47622100Y-153326200D01*
X47622100Y-153326200D02*
X47622100Y-167824900D01*
X49075000Y-168000000D02*
X47797200Y-168000000D01*
X47622100Y-153326200D02*
X47622100Y-150857600D01*
%TO.N,Blink 1 ctrl*%
X51000000Y-140750000D02*
X51000000Y-141875300D01*
X65271600Y-142635204D02*
X65271600Y-144165100D01*
X74380900Y-144928400D02*
X73462500Y-144010000D01*
X61125300Y-141619100D02*
X64255496Y-141619100D01*
X71549400Y-124655200D02*
X71549400Y-130436800D01*
X69798300Y-148691800D02*
X73808200Y-148691800D01*
X70525000Y-123630800D02*
X71549400Y-124655200D01*
X71999700Y-130887100D02*
X71999700Y-138351500D01*
X73711300Y-139494200D02*
X74381600Y-140164500D01*
X71999700Y-138351500D02*
X73142400Y-139494200D01*
X74381600Y-143090900D02*
X73462500Y-144010000D01*
X53450300Y-141875300D02*
X55015600Y-140310000D01*
X65271600Y-144165100D02*
X69798300Y-148691800D01*
X70525000Y-123050000D02*
X70525000Y-123630800D01*
X74381600Y-140164500D02*
X74381600Y-143090900D01*
X73142400Y-139494200D02*
X73711300Y-139494200D01*
X59816200Y-140310000D02*
X61125300Y-141619100D01*
X71549400Y-130436800D02*
X71999700Y-130887100D01*
X74380900Y-148119100D02*
X74380900Y-144928400D01*
X55015600Y-140310000D02*
X59816200Y-140310000D01*
X73808200Y-148691800D02*
X74380900Y-148119100D01*
X64255496Y-141619100D02*
X65271600Y-142635204D01*
X51000000Y-141875300D02*
X53450300Y-141875300D01*
%TO.N,Blink 2 ctrl*%
X72000000Y-130251004D02*
X72000000Y-127019000D01*
X72232396Y-130483400D02*
X72000000Y-130251004D01*
X70525000Y-120000000D02*
X71836400Y-121311400D01*
X71836400Y-121311400D02*
X71836400Y-124305300D01*
X72232900Y-130483400D02*
X72232396Y-130483400D01*
X53891600Y-140750000D02*
X55601600Y-139040000D01*
X73462500Y-135040000D02*
X72450000Y-134027500D01*
X72286700Y-124755600D02*
X72286700Y-126732300D01*
X72450000Y-134027500D02*
X72450000Y-130700500D01*
X59464500Y-138623800D02*
X59464500Y-136508400D01*
X59048300Y-139040000D02*
X59464500Y-138623800D01*
X55601600Y-139040000D02*
X59048300Y-139040000D01*
X71836400Y-124305300D02*
X72286700Y-124755600D01*
X51800000Y-140750000D02*
X53891600Y-140750000D01*
X72450000Y-130700500D02*
X72232900Y-130483400D01*
X72000000Y-127019000D02*
X72286700Y-126732300D01*
%TO.N,Net-(R11-Pad1)*%
X67122200Y-124602200D02*
X67122200Y-130162600D01*
X65975000Y-123455000D02*
X67122200Y-124602200D01*
X71443300Y-146094200D02*
X70537500Y-147000000D01*
X68737500Y-140980600D02*
X70241100Y-142484200D01*
X67874400Y-130914800D02*
X67874400Y-134223400D01*
X68737500Y-135086500D02*
X68737500Y-140980600D01*
X67122200Y-130162600D02*
X67874400Y-130914800D01*
X71443300Y-143165127D02*
X71443300Y-146094200D01*
X70762373Y-142484200D02*
X71443300Y-143165127D01*
X70241100Y-142484200D02*
X70762373Y-142484200D01*
X67874400Y-134223400D02*
X68737500Y-135086500D01*
%TO.N,Net-(R12-Pad1)*%
X69187800Y-134899900D02*
X69187800Y-136680300D01*
X65975000Y-122185000D02*
X66404800Y-122185000D01*
X66404800Y-122185000D02*
X67572500Y-123352700D01*
X68324700Y-134036800D02*
X69187800Y-134899900D01*
X73462500Y-141020000D02*
X70537500Y-138095000D01*
X68324700Y-130728200D02*
X68324700Y-134036800D01*
X69187800Y-136680300D02*
X70537500Y-138030000D01*
X67572500Y-123352700D02*
X67572500Y-129976000D01*
X67572500Y-129976000D02*
X68324700Y-130728200D01*
X70537500Y-138095000D02*
X70537500Y-138030000D01*
%TO.N,Net-(R13-Pad1)*%
X71436800Y-135929400D02*
X71436800Y-131186400D01*
X69638100Y-135900600D02*
X70003200Y-136265700D01*
X70003200Y-136265700D02*
X71100500Y-136265700D01*
X68022800Y-122571400D02*
X68022800Y-129789400D01*
X68775000Y-130541600D02*
X68775000Y-133850200D01*
X69638100Y-134713300D02*
X69638100Y-135900600D01*
X70537500Y-130287100D02*
X70537500Y-129060000D01*
X71436800Y-131186400D02*
X70537500Y-130287100D01*
X68022800Y-129789400D02*
X68775000Y-130541600D01*
X66994700Y-121543300D02*
X68022800Y-122571400D01*
X61666700Y-121543300D02*
X66994700Y-121543300D01*
X61025000Y-122185000D02*
X61666700Y-121543300D01*
X71100500Y-136265700D02*
X71436800Y-135929400D01*
X68775000Y-133850200D02*
X69638100Y-134713300D01*
%TO.N,Net-(R14-Pad1)*%
X72511800Y-124118500D02*
X73462500Y-125069200D01*
X67565600Y-120271000D02*
X61669000Y-120271000D01*
X70537500Y-131030300D02*
X69582600Y-130075400D01*
X61669000Y-120271000D02*
X61025000Y-120915000D01*
X70537500Y-132050000D02*
X70537500Y-131030300D01*
X71088173Y-118775000D02*
X72511800Y-120198627D01*
X70622500Y-118775000D02*
X71088173Y-118775000D01*
X69582600Y-130075400D02*
X69582600Y-122288000D01*
X73462500Y-125069200D02*
X73462500Y-126070000D01*
X68002200Y-120707500D02*
X69943400Y-118766300D01*
X68002200Y-120707500D02*
X67565600Y-120271000D01*
X69943400Y-118766300D02*
X70622500Y-118766300D01*
X70622500Y-118766300D02*
X70622500Y-118775000D01*
X69582600Y-122288000D02*
X68002200Y-120707500D01*
X72511800Y-120198627D02*
X72511800Y-124118500D01*
%TO.N,Net-(R17-Pad1)*%
X70537500Y-134975800D02*
X70537500Y-135040000D01*
X68473100Y-122384700D02*
X68473100Y-129602800D01*
X69225300Y-133663600D02*
X70537500Y-134975800D01*
X65975000Y-120915000D02*
X67003400Y-120915000D01*
X68473100Y-129602800D02*
X69225300Y-130355000D01*
X67003400Y-120915000D02*
X68473100Y-122384700D01*
X69225300Y-130355000D02*
X69225300Y-133663600D01*
%TO.N,Net-(R18-Pad1)*%
X67424100Y-134410000D02*
X67424100Y-131101400D01*
X67424100Y-131101400D02*
X66671900Y-130349200D01*
X66671900Y-130349200D02*
X66671900Y-127435300D01*
X60004900Y-122827100D02*
X59722200Y-122544400D01*
X59722200Y-120493400D02*
X60570600Y-119645000D01*
X66671900Y-127435300D02*
X62063700Y-122827100D01*
X70537500Y-144010000D02*
X68287200Y-141759700D01*
X59722200Y-122544400D02*
X59722200Y-120493400D01*
X62063700Y-122827100D02*
X60004900Y-122827100D01*
X68287200Y-141759700D02*
X68287200Y-135273100D01*
X60570600Y-119645000D02*
X61025000Y-119645000D01*
X68287200Y-135273100D02*
X67424100Y-134410000D01*
%TO.N,COUT*%
X57962500Y-141769700D02*
X54192800Y-141769700D01*
X49400000Y-140750000D02*
X49400000Y-141875300D01*
X62860800Y-148000000D02*
X63462500Y-147398300D01*
X32574700Y-127075300D02*
X34000000Y-125650000D01*
D34*
X68180000Y-152175000D02*
X68005000Y-152000000D01*
D32*
X49400000Y-140299900D02*
X49400000Y-140750000D01*
X57962500Y-141769700D02*
X57962500Y-143500000D01*
X59967800Y-123455000D02*
X61025000Y-123455000D01*
X50200000Y-132571800D02*
X50200000Y-132250000D01*
X56742800Y-113742800D02*
X58233200Y-115233200D01*
D35*
X62860800Y-148000000D02*
X66000000Y-148000000D01*
D32*
X41475000Y-135766800D02*
X37936700Y-135766800D01*
X32574600Y-158155400D02*
X34000000Y-156730000D01*
X41475000Y-137500000D02*
X41475000Y-135766800D01*
X33996700Y-121078300D02*
X33996800Y-121078300D01*
X50200000Y-131124700D02*
X48600000Y-131124700D01*
X41475000Y-140500000D02*
X41475000Y-137500000D01*
X58025000Y-141707200D02*
X57962500Y-141769700D01*
X49400000Y-140299900D02*
X49400000Y-139624700D01*
X50200000Y-132250000D02*
X50200000Y-131124700D01*
X37164800Y-126069600D02*
X39105200Y-128010000D01*
X32574700Y-122500400D02*
X32574700Y-124224700D01*
X52462500Y-143296900D02*
X51547900Y-143296900D01*
D35*
X53980000Y-152000000D02*
X57980000Y-148000000D01*
D32*
X39105200Y-128010000D02*
X39537500Y-128010000D01*
X54192800Y-141769700D02*
X52665600Y-143296900D01*
X37164800Y-124246400D02*
X37164800Y-126069600D01*
X34000000Y-149110000D02*
X34000000Y-151650000D01*
X50700000Y-127725300D02*
X50200000Y-128225300D01*
X41475000Y-134500000D02*
X41475000Y-131500000D01*
X33996800Y-121078300D02*
X32574700Y-122500400D01*
X32574700Y-124224700D02*
X34000000Y-125650000D01*
X63462500Y-147398300D02*
X63462500Y-143500000D01*
D34*
X68180000Y-168000000D02*
X68180000Y-152175000D01*
D32*
X41475000Y-146500000D02*
X41475000Y-149500000D01*
X48600000Y-132250000D02*
X48600000Y-131124700D01*
X37611900Y-129503300D02*
X39105200Y-128010000D01*
X50700000Y-126400000D02*
X50700000Y-127725300D01*
X41475000Y-149500000D02*
X41475000Y-152500000D01*
X32574500Y-168004500D02*
X34000000Y-169430000D01*
X41475000Y-143500000D02*
X41475000Y-146500000D01*
D35*
X54155000Y-178605000D02*
X54155000Y-168000000D01*
X54155000Y-152175000D02*
X53980000Y-152000000D01*
D32*
X52462500Y-143296900D02*
X52462500Y-143500000D01*
X73475000Y-120000000D02*
X65587100Y-112112100D01*
X37611900Y-135442000D02*
X37611900Y-129503300D01*
X52965000Y-113287500D02*
X54140400Y-112112100D01*
X37936700Y-135766800D02*
X37611900Y-135442000D01*
X34000000Y-120960100D02*
X33996700Y-120963400D01*
X34000000Y-161810000D02*
X32574500Y-163235500D01*
X32574600Y-153075400D02*
X32574600Y-155304600D01*
X52665600Y-143296900D02*
X52462500Y-143296900D01*
X48587200Y-141875300D02*
X46962500Y-143500000D01*
X50126300Y-141875300D02*
X49400000Y-141875300D01*
X32574500Y-163235500D02*
X32574500Y-168004500D01*
X34000000Y-151650000D02*
X32574600Y-153075400D01*
X33996700Y-120963400D02*
X33996700Y-121078300D01*
X73475000Y-123050000D02*
X73475000Y-120000000D01*
X50200000Y-133375300D02*
X49400000Y-134175300D01*
X54140400Y-112112100D02*
X55994500Y-112112100D01*
X49400000Y-141875300D02*
X48587200Y-141875300D01*
X51547900Y-143296900D02*
X50126300Y-141875300D01*
X58025000Y-140945000D02*
X58025000Y-141707200D01*
X58733200Y-122220400D02*
X59967800Y-123455000D01*
X32574600Y-160384600D02*
X32574600Y-158155400D01*
X65587100Y-112112100D02*
X57491100Y-112112100D01*
D35*
X57980000Y-148000000D02*
X62860800Y-148000000D01*
D32*
X32574600Y-155304600D02*
X34000000Y-156730000D01*
D35*
X54155000Y-168000000D02*
X54155000Y-152175000D01*
D32*
X57980000Y-143517500D02*
X57980000Y-148000000D01*
D35*
X53955000Y-178805000D02*
X54155000Y-178605000D01*
D32*
X58233200Y-115233200D02*
X58733200Y-115233200D01*
X34000000Y-120570000D02*
X34000000Y-120960100D01*
X32574700Y-129304700D02*
X32574700Y-127075300D01*
X33996800Y-121078300D02*
X37164800Y-124246400D01*
X50200000Y-132571800D02*
X50200000Y-133375300D01*
X41475000Y-135766800D02*
X41475000Y-134500000D01*
X57491100Y-112112100D02*
X56742800Y-112860400D01*
X57962500Y-143500000D02*
X57980000Y-143517500D01*
X49400000Y-134175300D02*
X49400000Y-139624700D01*
X56742800Y-112860400D02*
X56742800Y-113742800D01*
X58733200Y-115233200D02*
X58733200Y-122220400D01*
X34000000Y-130730000D02*
X32574700Y-129304700D01*
D35*
X68005000Y-150005000D02*
X68005000Y-152000000D01*
D32*
X41475000Y-143500000D02*
X41475000Y-140500000D01*
X55994500Y-112112100D02*
X56742800Y-112860400D01*
X34000000Y-161810000D02*
X32574600Y-160384600D01*
X50200000Y-128225300D02*
X50200000Y-131124700D01*
D35*
X66000000Y-148000000D02*
X68005000Y-150005000D01*
D32*
%TO.N,i29*%
X63100000Y-170683100D02*
X63100000Y-168000000D01*
X61930900Y-142069100D02*
X64069100Y-142069100D01*
X64359300Y-144131400D02*
X78063600Y-157835700D01*
X78063600Y-157835700D02*
X78063600Y-171086100D01*
X61065000Y-142935000D02*
X61930900Y-142069100D01*
X67848500Y-175431600D02*
X63100000Y-170683100D01*
X78063600Y-171086100D02*
X73718100Y-175431600D01*
X73718100Y-175431600D02*
X67848500Y-175431600D01*
X60537500Y-143500000D02*
X61065000Y-142972500D01*
X64359300Y-142359300D02*
X64359300Y-144131400D01*
X64069100Y-142069100D02*
X64359300Y-142359300D01*
X61065000Y-142972500D02*
X61065000Y-142935000D01*
%TO.N,Net-(J13-Pad11)*%
X62568400Y-138405000D02*
X61032600Y-136869200D01*
X61032600Y-136869200D02*
X61032600Y-131959800D01*
X62975000Y-138405000D02*
X62568400Y-138405000D01*
D34*
%TO.N,Net-(J12-Pad1)*%
X65640000Y-171140000D02*
X65640000Y-168000000D01*
X72975000Y-174000000D02*
X68500000Y-174000000D01*
X68500000Y-174000000D02*
X65640000Y-171140000D01*
X76500000Y-170475000D02*
X72975000Y-174000000D01*
%TD*%
M02*
