%TF.GenerationSoftware,KiCad,Pcbnew,6.0.7-f9a2dced07~116~ubuntu20.04.1*%
%TF.CreationDate,2022-08-30T20:59:12+02:00*%
%TF.ProjectId,mc unit,6d632075-6e69-4742-9e6b-696361645f70,rev?*%
%TF.SameCoordinates,Original*%
%TF.FileFunction,Soldermask,Top*%
%TF.FilePolarity,Negative*%
%FSLAX46Y46*%
G04 Gerber Fmt 4.6, Leading zero omitted, Abs format (unit mm)*
G04 Created by KiCad (PCBNEW 6.0.7-f9a2dced07~116~ubuntu20.04.1) date 2022-08-30 20:59:12*
%MOMM*%
%LPD*%
G01*
G04 APERTURE LIST*
G04 Aperture macros list*
%AMRoundRect*
0 Rectangle with rounded corners*
0 $1 Rounding radius*
0 $2 $3 $4 $5 $6 $7 $8 $9 X,Y pos of 4 corners*
0 Add a 4 corners polygon primitive as box body*
4,1,4,$2,$3,$4,$5,$6,$7,$8,$9,$2,$3,0*
0 Add four circle primitives for the rounded corners*
1,1,$1+$1,$2,$3*
1,1,$1+$1,$4,$5*
1,1,$1+$1,$6,$7*
1,1,$1+$1,$8,$9*
0 Add four rect primitives between the rounded corners*
20,1,$1+$1,$2,$3,$4,$5,0*
20,1,$1+$1,$4,$5,$6,$7,0*
20,1,$1+$1,$6,$7,$8,$9,0*
20,1,$1+$1,$8,$9,$2,$3,0*%
G04 Aperture macros list end*
%ADD10C,4.300000*%
%ADD11RoundRect,0.250000X-0.325000X-0.650000X0.325000X-0.650000X0.325000X0.650000X-0.325000X0.650000X0*%
%ADD12R,2.600000X2.600000*%
%ADD13C,2.600000*%
%ADD14RoundRect,0.250000X-0.312500X-0.625000X0.312500X-0.625000X0.312500X0.625000X-0.312500X0.625000X0*%
%ADD15R,0.550000X1.600000*%
%ADD16R,1.600000X0.550000*%
%ADD17R,2.200000X2.200000*%
%ADD18C,2.200000*%
%ADD19RoundRect,0.250000X-0.600000X0.600000X-0.600000X-0.600000X0.600000X-0.600000X0.600000X0.600000X0*%
%ADD20C,1.700000*%
%ADD21C,2.400000*%
%ADD22R,1.905000X2.000000*%
%ADD23O,1.905000X2.000000*%
%ADD24RoundRect,0.150000X-0.837500X-0.150000X0.837500X-0.150000X0.837500X0.150000X-0.837500X0.150000X0*%
%ADD25R,1.500000X2.000000*%
%ADD26R,3.800000X2.000000*%
%ADD27RoundRect,0.250000X0.625000X-0.312500X0.625000X0.312500X-0.625000X0.312500X-0.625000X-0.312500X0*%
%ADD28RoundRect,0.150000X-0.825000X-0.150000X0.825000X-0.150000X0.825000X0.150000X-0.825000X0.150000X0*%
G04 APERTURE END LIST*
D10*
%TO.C,H1*%
X80000000Y-111500000D03*
%TD*%
%TO.C,H2*%
X34000000Y-179000000D03*
%TD*%
D11*
%TO.C,C8*%
X38525000Y-131500000D03*
X41475000Y-131500000D03*
%TD*%
%TO.C,C6*%
X38525000Y-137500000D03*
X41475000Y-137500000D03*
%TD*%
D12*
%TO.C,J1*%
X53955000Y-178805000D03*
D13*
X59035000Y-178805000D03*
%TD*%
D14*
%TO.C,R12*%
X70537500Y-138030000D03*
X73462500Y-138030000D03*
%TD*%
D15*
%TO.C,U3*%
X51800000Y-132250000D03*
X51000000Y-132250000D03*
X50200000Y-132250000D03*
X49400000Y-132250000D03*
X48600000Y-132250000D03*
X47800000Y-132250000D03*
X47000000Y-132250000D03*
X46200000Y-132250000D03*
D16*
X44750000Y-133700000D03*
X44750000Y-134500000D03*
X44750000Y-135300000D03*
X44750000Y-136100000D03*
X44750000Y-136900000D03*
X44750000Y-137700000D03*
X44750000Y-138500000D03*
X44750000Y-139300000D03*
D15*
X46200000Y-140750000D03*
X47000000Y-140750000D03*
X47800000Y-140750000D03*
X48600000Y-140750000D03*
X49400000Y-140750000D03*
X50200000Y-140750000D03*
X51000000Y-140750000D03*
X51800000Y-140750000D03*
D16*
X53250000Y-139300000D03*
X53250000Y-138500000D03*
X53250000Y-137700000D03*
X53250000Y-136900000D03*
X53250000Y-136100000D03*
X53250000Y-135300000D03*
X53250000Y-134500000D03*
X53250000Y-133700000D03*
%TD*%
D17*
%TO.C,J13*%
X80500000Y-148470000D03*
D18*
X80500000Y-145930000D03*
X80500000Y-143390000D03*
X80500000Y-140850000D03*
X80500000Y-138310000D03*
X80500000Y-135770000D03*
X80500000Y-133230000D03*
X80500000Y-130690000D03*
X80500000Y-128150000D03*
X80500000Y-125610000D03*
X80500000Y-123070000D03*
X80500000Y-120530000D03*
%TD*%
D14*
%TO.C,R3*%
X38537500Y-164500000D03*
X41462500Y-164500000D03*
%TD*%
D19*
%TO.C,J8*%
X58045000Y-110747500D03*
D20*
X58045000Y-113287500D03*
X55505000Y-110747500D03*
X55505000Y-113287500D03*
X52965000Y-110747500D03*
X52965000Y-113287500D03*
%TD*%
D21*
%TO.C,J11*%
X82500000Y-170475000D03*
%TD*%
D22*
%TO.C,Q1*%
X62925000Y-152000000D03*
D23*
X65465000Y-152000000D03*
X68005000Y-152000000D03*
%TD*%
D14*
%TO.C,R10*%
X60537500Y-143500000D03*
X63462500Y-143500000D03*
%TD*%
D11*
%TO.C,C5*%
X38525000Y-140500000D03*
X41475000Y-140500000D03*
%TD*%
%TO.C,C1*%
X38525000Y-152500000D03*
X41475000Y-152500000D03*
%TD*%
D14*
%TO.C,R2*%
X38537500Y-167500000D03*
X41462500Y-167500000D03*
%TD*%
D21*
%TO.C,J10*%
X76500000Y-164983300D03*
%TD*%
D14*
%TO.C,R7*%
X44037500Y-143500000D03*
X46962500Y-143500000D03*
%TD*%
D11*
%TO.C,C10*%
X70525000Y-123050000D03*
X73475000Y-123050000D03*
%TD*%
%TO.C,C3*%
X38525000Y-146500000D03*
X41475000Y-146500000D03*
%TD*%
D14*
%TO.C,R6*%
X38537500Y-155500000D03*
X41462500Y-155500000D03*
%TD*%
%TO.C,R8*%
X49537500Y-143500000D03*
X52462500Y-143500000D03*
%TD*%
D24*
%TO.C,U1*%
X39537500Y-120390000D03*
X39537500Y-121660000D03*
X39537500Y-122930000D03*
X39537500Y-124200000D03*
X39537500Y-125470000D03*
X39537500Y-126740000D03*
X39537500Y-128010000D03*
X46462500Y-128010000D03*
X46462500Y-126740000D03*
X46462500Y-125470000D03*
X46462500Y-124200000D03*
X46462500Y-122930000D03*
X46462500Y-121660000D03*
X46462500Y-120390000D03*
%TD*%
D21*
%TO.C,J6*%
X82500000Y-159491700D03*
%TD*%
D14*
%TO.C,R17*%
X70537500Y-135040000D03*
X73462500Y-135040000D03*
%TD*%
%TO.C,R5*%
X38537500Y-158500000D03*
X41462500Y-158500000D03*
%TD*%
D25*
%TO.C,U2*%
X50700000Y-126400000D03*
D26*
X53000000Y-120100000D03*
D25*
X53000000Y-126400000D03*
X55300000Y-126400000D03*
%TD*%
D17*
%TO.C,J2*%
X34000000Y-120570000D03*
D18*
X34000000Y-123110000D03*
X34000000Y-125650000D03*
X34000000Y-128190000D03*
X34000000Y-130730000D03*
X34000000Y-133270000D03*
X34000000Y-135810000D03*
X34000000Y-138350000D03*
X34000000Y-140890000D03*
X34000000Y-143430000D03*
%TD*%
D22*
%TO.C,Q2*%
X48900000Y-152000000D03*
D23*
X51440000Y-152000000D03*
X53980000Y-152000000D03*
%TD*%
D21*
%TO.C,J7*%
X76500000Y-159491700D03*
%TD*%
D14*
%TO.C,R11*%
X70537500Y-147000000D03*
X73462500Y-147000000D03*
%TD*%
D21*
%TO.C,J5*%
X76500000Y-154000000D03*
%TD*%
D11*
%TO.C,C9*%
X70525000Y-120000000D03*
X73475000Y-120000000D03*
%TD*%
D27*
%TO.C,Rshunt1*%
X59000000Y-128962500D03*
X59000000Y-126037500D03*
%TD*%
D21*
%TO.C,J12*%
X76500000Y-170475000D03*
%TD*%
D11*
%TO.C,C2*%
X38525000Y-149500000D03*
X41475000Y-149500000D03*
%TD*%
D14*
%TO.C,R4*%
X38537500Y-161500000D03*
X41462500Y-161500000D03*
%TD*%
D28*
%TO.C,U4*%
X58025000Y-132055000D03*
X58025000Y-133325000D03*
X58025000Y-134595000D03*
X58025000Y-135865000D03*
X58025000Y-137135000D03*
X58025000Y-138405000D03*
X58025000Y-139675000D03*
X58025000Y-140945000D03*
X62975000Y-140945000D03*
X62975000Y-139675000D03*
X62975000Y-138405000D03*
X62975000Y-137135000D03*
X62975000Y-135865000D03*
X62975000Y-134595000D03*
X62975000Y-133325000D03*
X62975000Y-132055000D03*
%TD*%
D22*
%TO.C,Q3*%
X49075000Y-168000000D03*
D23*
X51615000Y-168000000D03*
X54155000Y-168000000D03*
%TD*%
D14*
%TO.C,R9*%
X55037500Y-143500000D03*
X57962500Y-143500000D03*
%TD*%
D22*
%TO.C,Q4*%
X63100000Y-168000000D03*
D23*
X65640000Y-168000000D03*
X68180000Y-168000000D03*
%TD*%
D27*
%TO.C,Rshunt2*%
X63500000Y-128962500D03*
X63500000Y-126037500D03*
%TD*%
D21*
%TO.C,J9*%
X82500000Y-164983300D03*
%TD*%
D14*
%TO.C,R15*%
X70537500Y-141020000D03*
X73462500Y-141020000D03*
%TD*%
D11*
%TO.C,C7*%
X38525000Y-134500000D03*
X41475000Y-134500000D03*
%TD*%
D14*
%TO.C,R16*%
X70537500Y-126070000D03*
X73462500Y-126070000D03*
%TD*%
%TO.C,R18*%
X70537500Y-144010000D03*
X73462500Y-144010000D03*
%TD*%
D17*
%TO.C,J3*%
X34000000Y-146570000D03*
D18*
X34000000Y-149110000D03*
X34000000Y-151650000D03*
X34000000Y-154190000D03*
X34000000Y-156730000D03*
X34000000Y-159270000D03*
X34000000Y-161810000D03*
X34000000Y-164350000D03*
X34000000Y-166890000D03*
X34000000Y-169430000D03*
%TD*%
D14*
%TO.C,R13*%
X70537500Y-129060000D03*
X73462500Y-129060000D03*
%TD*%
D28*
%TO.C,U5*%
X61025000Y-119645000D03*
X61025000Y-120915000D03*
X61025000Y-122185000D03*
X61025000Y-123455000D03*
X65975000Y-123455000D03*
X65975000Y-122185000D03*
X65975000Y-120915000D03*
X65975000Y-119645000D03*
%TD*%
D11*
%TO.C,C4*%
X38525000Y-143500000D03*
X41475000Y-143500000D03*
%TD*%
D14*
%TO.C,R1*%
X38537500Y-170500000D03*
X41462500Y-170500000D03*
%TD*%
D21*
%TO.C,J4*%
X82500000Y-154000000D03*
%TD*%
D14*
%TO.C,R14*%
X70537500Y-132050000D03*
X73462500Y-132050000D03*
%TD*%
M02*
