%TF.GenerationSoftware,KiCad,Pcbnew,6.0.7-f9a2dced07~116~ubuntu20.04.1*%
%TF.CreationDate,2022-08-30T20:59:11+02:00*%
%TF.ProjectId,mc unit,6d632075-6e69-4742-9e6b-696361645f70,rev?*%
%TF.SameCoordinates,Original*%
%TF.FileFunction,Legend,Top*%
%TF.FilePolarity,Positive*%
%FSLAX46Y46*%
G04 Gerber Fmt 4.6, Leading zero omitted, Abs format (unit mm)*
G04 Created by KiCad (PCBNEW 6.0.7-f9a2dced07~116~ubuntu20.04.1) date 2022-08-30 20:59:11*
%MOMM*%
%LPD*%
G01*
G04 APERTURE LIST*
%ADD10C,0.150000*%
%ADD11C,0.120000*%
G04 APERTURE END LIST*
D10*
X47857142Y-181000000D02*
X47761904Y-180952380D01*
X47619047Y-180952380D01*
X47476190Y-181000000D01*
X47380952Y-181095238D01*
X47333333Y-181190476D01*
X47285714Y-181380952D01*
X47285714Y-181523809D01*
X47333333Y-181714285D01*
X47380952Y-181809523D01*
X47476190Y-181904761D01*
X47619047Y-181952380D01*
X47714285Y-181952380D01*
X47857142Y-181904761D01*
X47904761Y-181857142D01*
X47904761Y-181523809D01*
X47714285Y-181523809D01*
X48333333Y-181285714D02*
X48333333Y-181952380D01*
X48333333Y-181380952D02*
X48380952Y-181333333D01*
X48476190Y-181285714D01*
X48619047Y-181285714D01*
X48714285Y-181333333D01*
X48761904Y-181428571D01*
X48761904Y-181952380D01*
X49666666Y-181952380D02*
X49666666Y-180952380D01*
X49666666Y-181904761D02*
X49571428Y-181952380D01*
X49380952Y-181952380D01*
X49285714Y-181904761D01*
X49238095Y-181857142D01*
X49190476Y-181761904D01*
X49190476Y-181476190D01*
X49238095Y-181380952D01*
X49285714Y-181333333D01*
X49380952Y-181285714D01*
X49571428Y-181285714D01*
X49666666Y-181333333D01*
X63285714Y-181571428D02*
X64047619Y-181571428D01*
X63666666Y-181952380D02*
X63666666Y-181190476D01*
X65047619Y-181952380D02*
X64476190Y-181952380D01*
X64761904Y-181952380D02*
X64761904Y-180952380D01*
X64666666Y-181095238D01*
X64571428Y-181190476D01*
X64476190Y-181238095D01*
X65428571Y-181047619D02*
X65476190Y-181000000D01*
X65571428Y-180952380D01*
X65809523Y-180952380D01*
X65904761Y-181000000D01*
X65952380Y-181047619D01*
X66000000Y-181142857D01*
X66000000Y-181238095D01*
X65952380Y-181380952D01*
X65380952Y-181952380D01*
X66000000Y-181952380D01*
X66333333Y-181285714D02*
X66571428Y-181952380D01*
X66809523Y-181285714D01*
X51904761Y-194802380D02*
X51428571Y-194802380D01*
X51380952Y-195278571D01*
X51428571Y-195230952D01*
X51523809Y-195183333D01*
X51761904Y-195183333D01*
X51857142Y-195230952D01*
X51904761Y-195278571D01*
X51952380Y-195373809D01*
X51952380Y-195611904D01*
X51904761Y-195707142D01*
X51857142Y-195754761D01*
X51761904Y-195802380D01*
X51523809Y-195802380D01*
X51428571Y-195754761D01*
X51380952Y-195707142D01*
X52285714Y-194802380D02*
X52904761Y-194802380D01*
X52571428Y-195183333D01*
X52714285Y-195183333D01*
X52809523Y-195230952D01*
X52857142Y-195278571D01*
X52904761Y-195373809D01*
X52904761Y-195611904D01*
X52857142Y-195707142D01*
X52809523Y-195754761D01*
X52714285Y-195802380D01*
X52428571Y-195802380D01*
X52333333Y-195754761D01*
X52285714Y-195707142D01*
X53380952Y-195754761D02*
X53380952Y-195802380D01*
X53333333Y-195897619D01*
X53285714Y-195945238D01*
X53999999Y-194802380D02*
X54095238Y-194802380D01*
X54190476Y-194850000D01*
X54238095Y-194897619D01*
X54285714Y-194992857D01*
X54333333Y-195183333D01*
X54333333Y-195421428D01*
X54285714Y-195611904D01*
X54238095Y-195707142D01*
X54190476Y-195754761D01*
X54095238Y-195802380D01*
X53999999Y-195802380D01*
X53904761Y-195754761D01*
X53857142Y-195707142D01*
X53809523Y-195611904D01*
X53761904Y-195421428D01*
X53761904Y-195183333D01*
X53809523Y-194992857D01*
X53857142Y-194897619D01*
X53904761Y-194850000D01*
X53999999Y-194802380D01*
X54952380Y-194802380D02*
X55047619Y-194802380D01*
X55142857Y-194850000D01*
X55190476Y-194897619D01*
X55238095Y-194992857D01*
X55285714Y-195183333D01*
X55285714Y-195421428D01*
X55238095Y-195611904D01*
X55190476Y-195707142D01*
X55142857Y-195754761D01*
X55047619Y-195802380D01*
X54952380Y-195802380D01*
X54857142Y-195754761D01*
X54809523Y-195707142D01*
X54761904Y-195611904D01*
X54714285Y-195421428D01*
X54714285Y-195183333D01*
X54761904Y-194992857D01*
X54809523Y-194897619D01*
X54857142Y-194850000D01*
X54952380Y-194802380D01*
X55904761Y-194802380D02*
X55999999Y-194802380D01*
X56095238Y-194850000D01*
X56142857Y-194897619D01*
X56190476Y-194992857D01*
X56238095Y-195183333D01*
X56238095Y-195421428D01*
X56190476Y-195611904D01*
X56142857Y-195707142D01*
X56095238Y-195754761D01*
X55999999Y-195802380D01*
X55904761Y-195802380D01*
X55809523Y-195754761D01*
X55761904Y-195707142D01*
X55714285Y-195611904D01*
X55666666Y-195421428D01*
X55666666Y-195183333D01*
X55714285Y-194992857D01*
X55761904Y-194897619D01*
X55809523Y-194850000D01*
X55904761Y-194802380D01*
X56857142Y-194802380D02*
X56952380Y-194802380D01*
X57047619Y-194850000D01*
X57095238Y-194897619D01*
X57142857Y-194992857D01*
X57190476Y-195183333D01*
X57190476Y-195421428D01*
X57142857Y-195611904D01*
X57095238Y-195707142D01*
X57047619Y-195754761D01*
X56952380Y-195802380D01*
X56857142Y-195802380D01*
X56761904Y-195754761D01*
X56714285Y-195707142D01*
X56666666Y-195611904D01*
X56619047Y-195421428D01*
X56619047Y-195183333D01*
X56666666Y-194992857D01*
X56714285Y-194897619D01*
X56761904Y-194850000D01*
X56857142Y-194802380D01*
X58380952Y-195802380D02*
X58380952Y-195135714D01*
X58380952Y-195230952D02*
X58428571Y-195183333D01*
X58523809Y-195135714D01*
X58666666Y-195135714D01*
X58761904Y-195183333D01*
X58809523Y-195278571D01*
X58809523Y-195802380D01*
X58809523Y-195278571D02*
X58857142Y-195183333D01*
X58952380Y-195135714D01*
X59095238Y-195135714D01*
X59190476Y-195183333D01*
X59238095Y-195278571D01*
X59238095Y-195802380D01*
X59714285Y-195802380D02*
X59714285Y-195135714D01*
X59714285Y-195230952D02*
X59761904Y-195183333D01*
X59857142Y-195135714D01*
X60000000Y-195135714D01*
X60095238Y-195183333D01*
X60142857Y-195278571D01*
X60142857Y-195802380D01*
X60142857Y-195278571D02*
X60190476Y-195183333D01*
X60285714Y-195135714D01*
X60428571Y-195135714D01*
X60523809Y-195183333D01*
X60571428Y-195278571D01*
X60571428Y-195802380D01*
X29500000Y-193500000D02*
X29500000Y-197086420D01*
X82500000Y-193500000D02*
X82500000Y-197086420D01*
X29500000Y-196500000D02*
X82500000Y-196500000D01*
X29500000Y-196500000D02*
X82500000Y-196500000D01*
X29500000Y-196500000D02*
X30626504Y-197086421D01*
X29500000Y-196500000D02*
X30626504Y-195913579D01*
X82500000Y-196500000D02*
X81373496Y-195913579D01*
X82500000Y-196500000D02*
X81373496Y-197086421D01*
%TO.C,H1*%
X79238095Y-106652380D02*
X79238095Y-105652380D01*
X79238095Y-106128571D02*
X79809523Y-106128571D01*
X79809523Y-106652380D02*
X79809523Y-105652380D01*
X80809523Y-106652380D02*
X80238095Y-106652380D01*
X80523809Y-106652380D02*
X80523809Y-105652380D01*
X80428571Y-105795238D01*
X80333333Y-105890476D01*
X80238095Y-105938095D01*
%TO.C,H2*%
X33238095Y-174152380D02*
X33238095Y-173152380D01*
X33238095Y-173628571D02*
X33809523Y-173628571D01*
X33809523Y-174152380D02*
X33809523Y-173152380D01*
X34238095Y-173247619D02*
X34285714Y-173200000D01*
X34380952Y-173152380D01*
X34619047Y-173152380D01*
X34714285Y-173200000D01*
X34761904Y-173247619D01*
X34809523Y-173342857D01*
X34809523Y-173438095D01*
X34761904Y-173580952D01*
X34190476Y-174152380D01*
X34809523Y-174152380D01*
%TO.C,C8*%
X39833333Y-131857142D02*
X39785714Y-131904761D01*
X39642857Y-131952380D01*
X39547619Y-131952380D01*
X39404761Y-131904761D01*
X39309523Y-131809523D01*
X39261904Y-131714285D01*
X39214285Y-131523809D01*
X39214285Y-131380952D01*
X39261904Y-131190476D01*
X39309523Y-131095238D01*
X39404761Y-131000000D01*
X39547619Y-130952380D01*
X39642857Y-130952380D01*
X39785714Y-131000000D01*
X39833333Y-131047619D01*
X40404761Y-131380952D02*
X40309523Y-131333333D01*
X40261904Y-131285714D01*
X40214285Y-131190476D01*
X40214285Y-131142857D01*
X40261904Y-131047619D01*
X40309523Y-131000000D01*
X40404761Y-130952380D01*
X40595238Y-130952380D01*
X40690476Y-131000000D01*
X40738095Y-131047619D01*
X40785714Y-131142857D01*
X40785714Y-131190476D01*
X40738095Y-131285714D01*
X40690476Y-131333333D01*
X40595238Y-131380952D01*
X40404761Y-131380952D01*
X40309523Y-131428571D01*
X40261904Y-131476190D01*
X40214285Y-131571428D01*
X40214285Y-131761904D01*
X40261904Y-131857142D01*
X40309523Y-131904761D01*
X40404761Y-131952380D01*
X40595238Y-131952380D01*
X40690476Y-131904761D01*
X40738095Y-131857142D01*
X40785714Y-131761904D01*
X40785714Y-131571428D01*
X40738095Y-131476190D01*
X40690476Y-131428571D01*
X40595238Y-131380952D01*
%TO.C,C6*%
X39833333Y-137857142D02*
X39785714Y-137904761D01*
X39642857Y-137952380D01*
X39547619Y-137952380D01*
X39404761Y-137904761D01*
X39309523Y-137809523D01*
X39261904Y-137714285D01*
X39214285Y-137523809D01*
X39214285Y-137380952D01*
X39261904Y-137190476D01*
X39309523Y-137095238D01*
X39404761Y-137000000D01*
X39547619Y-136952380D01*
X39642857Y-136952380D01*
X39785714Y-137000000D01*
X39833333Y-137047619D01*
X40690476Y-136952380D02*
X40500000Y-136952380D01*
X40404761Y-137000000D01*
X40357142Y-137047619D01*
X40261904Y-137190476D01*
X40214285Y-137380952D01*
X40214285Y-137761904D01*
X40261904Y-137857142D01*
X40309523Y-137904761D01*
X40404761Y-137952380D01*
X40595238Y-137952380D01*
X40690476Y-137904761D01*
X40738095Y-137857142D01*
X40785714Y-137761904D01*
X40785714Y-137523809D01*
X40738095Y-137428571D01*
X40690476Y-137380952D01*
X40595238Y-137333333D01*
X40404761Y-137333333D01*
X40309523Y-137380952D01*
X40261904Y-137428571D01*
X40214285Y-137523809D01*
%TO.C,J1*%
X56161666Y-171997380D02*
X56161666Y-172711666D01*
X56114047Y-172854523D01*
X56018809Y-172949761D01*
X55875952Y-172997380D01*
X55780714Y-172997380D01*
X57161666Y-172997380D02*
X56590238Y-172997380D01*
X56875952Y-172997380D02*
X56875952Y-171997380D01*
X56780714Y-172140238D01*
X56685476Y-172235476D01*
X56590238Y-172283095D01*
%TO.C,R12*%
X74857142Y-138452380D02*
X74523809Y-137976190D01*
X74285714Y-138452380D02*
X74285714Y-137452380D01*
X74666666Y-137452380D01*
X74761904Y-137500000D01*
X74809523Y-137547619D01*
X74857142Y-137642857D01*
X74857142Y-137785714D01*
X74809523Y-137880952D01*
X74761904Y-137928571D01*
X74666666Y-137976190D01*
X74285714Y-137976190D01*
X75809523Y-138452380D02*
X75238095Y-138452380D01*
X75523809Y-138452380D02*
X75523809Y-137452380D01*
X75428571Y-137595238D01*
X75333333Y-137690476D01*
X75238095Y-137738095D01*
X76190476Y-137547619D02*
X76238095Y-137500000D01*
X76333333Y-137452380D01*
X76571428Y-137452380D01*
X76666666Y-137500000D01*
X76714285Y-137547619D01*
X76761904Y-137642857D01*
X76761904Y-137738095D01*
X76714285Y-137880952D01*
X76142857Y-138452380D01*
X76761904Y-138452380D01*
%TO.C,U3*%
X48452380Y-137261904D02*
X49261904Y-137261904D01*
X49357142Y-137214285D01*
X49404761Y-137166666D01*
X49452380Y-137071428D01*
X49452380Y-136880952D01*
X49404761Y-136785714D01*
X49357142Y-136738095D01*
X49261904Y-136690476D01*
X48452380Y-136690476D01*
X48452380Y-136309523D02*
X48452380Y-135690476D01*
X48833333Y-136023809D01*
X48833333Y-135880952D01*
X48880952Y-135785714D01*
X48928571Y-135738095D01*
X49023809Y-135690476D01*
X49261904Y-135690476D01*
X49357142Y-135738095D01*
X49404761Y-135785714D01*
X49452380Y-135880952D01*
X49452380Y-136166666D01*
X49404761Y-136261904D01*
X49357142Y-136309523D01*
%TO.C,J13*%
X84452380Y-135309023D02*
X85166666Y-135309023D01*
X85309523Y-135356642D01*
X85404761Y-135451880D01*
X85452380Y-135594738D01*
X85452380Y-135689976D01*
X85452380Y-134309023D02*
X85452380Y-134880452D01*
X85452380Y-134594738D02*
X84452380Y-134594738D01*
X84595238Y-134689976D01*
X84690476Y-134785214D01*
X84738095Y-134880452D01*
X84452380Y-133975690D02*
X84452380Y-133356642D01*
X84833333Y-133689976D01*
X84833333Y-133547119D01*
X84880952Y-133451880D01*
X84928571Y-133404261D01*
X85023809Y-133356642D01*
X85261904Y-133356642D01*
X85357142Y-133404261D01*
X85404761Y-133451880D01*
X85452380Y-133547119D01*
X85452380Y-133832833D01*
X85404761Y-133928071D01*
X85357142Y-133975690D01*
%TO.C,R3*%
X39833333Y-164952380D02*
X39500000Y-164476190D01*
X39261904Y-164952380D02*
X39261904Y-163952380D01*
X39642857Y-163952380D01*
X39738095Y-164000000D01*
X39785714Y-164047619D01*
X39833333Y-164142857D01*
X39833333Y-164285714D01*
X39785714Y-164380952D01*
X39738095Y-164428571D01*
X39642857Y-164476190D01*
X39261904Y-164476190D01*
X40166666Y-163952380D02*
X40785714Y-163952380D01*
X40452380Y-164333333D01*
X40595238Y-164333333D01*
X40690476Y-164380952D01*
X40738095Y-164428571D01*
X40785714Y-164523809D01*
X40785714Y-164761904D01*
X40738095Y-164857142D01*
X40690476Y-164904761D01*
X40595238Y-164952380D01*
X40309523Y-164952380D01*
X40214285Y-164904761D01*
X40166666Y-164857142D01*
%TO.C,J8*%
X59952380Y-112350833D02*
X60666666Y-112350833D01*
X60809523Y-112398452D01*
X60904761Y-112493690D01*
X60952380Y-112636547D01*
X60952380Y-112731785D01*
X60380952Y-111731785D02*
X60333333Y-111827023D01*
X60285714Y-111874642D01*
X60190476Y-111922261D01*
X60142857Y-111922261D01*
X60047619Y-111874642D01*
X60000000Y-111827023D01*
X59952380Y-111731785D01*
X59952380Y-111541309D01*
X60000000Y-111446071D01*
X60047619Y-111398452D01*
X60142857Y-111350833D01*
X60190476Y-111350833D01*
X60285714Y-111398452D01*
X60333333Y-111446071D01*
X60380952Y-111541309D01*
X60380952Y-111731785D01*
X60428571Y-111827023D01*
X60476190Y-111874642D01*
X60571428Y-111922261D01*
X60761904Y-111922261D01*
X60857142Y-111874642D01*
X60904761Y-111827023D01*
X60952380Y-111731785D01*
X60952380Y-111541309D01*
X60904761Y-111446071D01*
X60857142Y-111398452D01*
X60761904Y-111350833D01*
X60571428Y-111350833D01*
X60476190Y-111398452D01*
X60428571Y-111446071D01*
X60380952Y-111541309D01*
%TO.C,J11*%
X81690476Y-167677380D02*
X81690476Y-168391666D01*
X81642857Y-168534523D01*
X81547619Y-168629761D01*
X81404761Y-168677380D01*
X81309523Y-168677380D01*
X82690476Y-168677380D02*
X82119047Y-168677380D01*
X82404761Y-168677380D02*
X82404761Y-167677380D01*
X82309523Y-167820238D01*
X82214285Y-167915476D01*
X82119047Y-167963095D01*
X83642857Y-168677380D02*
X83071428Y-168677380D01*
X83357142Y-168677380D02*
X83357142Y-167677380D01*
X83261904Y-167820238D01*
X83166666Y-167915476D01*
X83071428Y-167963095D01*
%TO.C,Q1*%
X65369761Y-148277619D02*
X65274523Y-148230000D01*
X65179285Y-148134761D01*
X65036428Y-147991904D01*
X64941190Y-147944285D01*
X64845952Y-147944285D01*
X64893571Y-148182380D02*
X64798333Y-148134761D01*
X64703095Y-148039523D01*
X64655476Y-147849047D01*
X64655476Y-147515714D01*
X64703095Y-147325238D01*
X64798333Y-147230000D01*
X64893571Y-147182380D01*
X65084047Y-147182380D01*
X65179285Y-147230000D01*
X65274523Y-147325238D01*
X65322142Y-147515714D01*
X65322142Y-147849047D01*
X65274523Y-148039523D01*
X65179285Y-148134761D01*
X65084047Y-148182380D01*
X64893571Y-148182380D01*
X66274523Y-148182380D02*
X65703095Y-148182380D01*
X65988809Y-148182380D02*
X65988809Y-147182380D01*
X65893571Y-147325238D01*
X65798333Y-147420476D01*
X65703095Y-147468095D01*
%TO.C,R10*%
X61357142Y-145952380D02*
X61023809Y-145476190D01*
X60785714Y-145952380D02*
X60785714Y-144952380D01*
X61166666Y-144952380D01*
X61261904Y-145000000D01*
X61309523Y-145047619D01*
X61357142Y-145142857D01*
X61357142Y-145285714D01*
X61309523Y-145380952D01*
X61261904Y-145428571D01*
X61166666Y-145476190D01*
X60785714Y-145476190D01*
X62309523Y-145952380D02*
X61738095Y-145952380D01*
X62023809Y-145952380D02*
X62023809Y-144952380D01*
X61928571Y-145095238D01*
X61833333Y-145190476D01*
X61738095Y-145238095D01*
X62928571Y-144952380D02*
X63023809Y-144952380D01*
X63119047Y-145000000D01*
X63166666Y-145047619D01*
X63214285Y-145142857D01*
X63261904Y-145333333D01*
X63261904Y-145571428D01*
X63214285Y-145761904D01*
X63166666Y-145857142D01*
X63119047Y-145904761D01*
X63023809Y-145952380D01*
X62928571Y-145952380D01*
X62833333Y-145904761D01*
X62785714Y-145857142D01*
X62738095Y-145761904D01*
X62690476Y-145571428D01*
X62690476Y-145333333D01*
X62738095Y-145142857D01*
X62785714Y-145047619D01*
X62833333Y-145000000D01*
X62928571Y-144952380D01*
%TO.C,C5*%
X39833333Y-140857142D02*
X39785714Y-140904761D01*
X39642857Y-140952380D01*
X39547619Y-140952380D01*
X39404761Y-140904761D01*
X39309523Y-140809523D01*
X39261904Y-140714285D01*
X39214285Y-140523809D01*
X39214285Y-140380952D01*
X39261904Y-140190476D01*
X39309523Y-140095238D01*
X39404761Y-140000000D01*
X39547619Y-139952380D01*
X39642857Y-139952380D01*
X39785714Y-140000000D01*
X39833333Y-140047619D01*
X40738095Y-139952380D02*
X40261904Y-139952380D01*
X40214285Y-140428571D01*
X40261904Y-140380952D01*
X40357142Y-140333333D01*
X40595238Y-140333333D01*
X40690476Y-140380952D01*
X40738095Y-140428571D01*
X40785714Y-140523809D01*
X40785714Y-140761904D01*
X40738095Y-140857142D01*
X40690476Y-140904761D01*
X40595238Y-140952380D01*
X40357142Y-140952380D01*
X40261904Y-140904761D01*
X40214285Y-140857142D01*
%TO.C,C1*%
X39833333Y-152857142D02*
X39785714Y-152904761D01*
X39642857Y-152952380D01*
X39547619Y-152952380D01*
X39404761Y-152904761D01*
X39309523Y-152809523D01*
X39261904Y-152714285D01*
X39214285Y-152523809D01*
X39214285Y-152380952D01*
X39261904Y-152190476D01*
X39309523Y-152095238D01*
X39404761Y-152000000D01*
X39547619Y-151952380D01*
X39642857Y-151952380D01*
X39785714Y-152000000D01*
X39833333Y-152047619D01*
X40785714Y-152952380D02*
X40214285Y-152952380D01*
X40500000Y-152952380D02*
X40500000Y-151952380D01*
X40404761Y-152095238D01*
X40309523Y-152190476D01*
X40214285Y-152238095D01*
%TO.C,R2*%
X39833333Y-167952380D02*
X39500000Y-167476190D01*
X39261904Y-167952380D02*
X39261904Y-166952380D01*
X39642857Y-166952380D01*
X39738095Y-167000000D01*
X39785714Y-167047619D01*
X39833333Y-167142857D01*
X39833333Y-167285714D01*
X39785714Y-167380952D01*
X39738095Y-167428571D01*
X39642857Y-167476190D01*
X39261904Y-167476190D01*
X40214285Y-167047619D02*
X40261904Y-167000000D01*
X40357142Y-166952380D01*
X40595238Y-166952380D01*
X40690476Y-167000000D01*
X40738095Y-167047619D01*
X40785714Y-167142857D01*
X40785714Y-167238095D01*
X40738095Y-167380952D01*
X40166666Y-167952380D01*
X40785714Y-167952380D01*
%TO.C,J10*%
X75690476Y-162185680D02*
X75690476Y-162899966D01*
X75642857Y-163042823D01*
X75547619Y-163138061D01*
X75404761Y-163185680D01*
X75309523Y-163185680D01*
X76690476Y-163185680D02*
X76119047Y-163185680D01*
X76404761Y-163185680D02*
X76404761Y-162185680D01*
X76309523Y-162328538D01*
X76214285Y-162423776D01*
X76119047Y-162471395D01*
X77309523Y-162185680D02*
X77404761Y-162185680D01*
X77500000Y-162233300D01*
X77547619Y-162280919D01*
X77595238Y-162376157D01*
X77642857Y-162566633D01*
X77642857Y-162804728D01*
X77595238Y-162995204D01*
X77547619Y-163090442D01*
X77500000Y-163138061D01*
X77404761Y-163185680D01*
X77309523Y-163185680D01*
X77214285Y-163138061D01*
X77166666Y-163090442D01*
X77119047Y-162995204D01*
X77071428Y-162804728D01*
X77071428Y-162566633D01*
X77119047Y-162376157D01*
X77166666Y-162280919D01*
X77214285Y-162233300D01*
X77309523Y-162185680D01*
%TO.C,R7*%
X45333333Y-145952380D02*
X45000000Y-145476190D01*
X44761904Y-145952380D02*
X44761904Y-144952380D01*
X45142857Y-144952380D01*
X45238095Y-145000000D01*
X45285714Y-145047619D01*
X45333333Y-145142857D01*
X45333333Y-145285714D01*
X45285714Y-145380952D01*
X45238095Y-145428571D01*
X45142857Y-145476190D01*
X44761904Y-145476190D01*
X45666666Y-144952380D02*
X46333333Y-144952380D01*
X45904761Y-145952380D01*
%TO.C,C10*%
X74857142Y-123357142D02*
X74809523Y-123404761D01*
X74666666Y-123452380D01*
X74571428Y-123452380D01*
X74428571Y-123404761D01*
X74333333Y-123309523D01*
X74285714Y-123214285D01*
X74238095Y-123023809D01*
X74238095Y-122880952D01*
X74285714Y-122690476D01*
X74333333Y-122595238D01*
X74428571Y-122500000D01*
X74571428Y-122452380D01*
X74666666Y-122452380D01*
X74809523Y-122500000D01*
X74857142Y-122547619D01*
X75809523Y-123452380D02*
X75238095Y-123452380D01*
X75523809Y-123452380D02*
X75523809Y-122452380D01*
X75428571Y-122595238D01*
X75333333Y-122690476D01*
X75238095Y-122738095D01*
X76428571Y-122452380D02*
X76523809Y-122452380D01*
X76619047Y-122500000D01*
X76666666Y-122547619D01*
X76714285Y-122642857D01*
X76761904Y-122833333D01*
X76761904Y-123071428D01*
X76714285Y-123261904D01*
X76666666Y-123357142D01*
X76619047Y-123404761D01*
X76523809Y-123452380D01*
X76428571Y-123452380D01*
X76333333Y-123404761D01*
X76285714Y-123357142D01*
X76238095Y-123261904D01*
X76190476Y-123071428D01*
X76190476Y-122833333D01*
X76238095Y-122642857D01*
X76285714Y-122547619D01*
X76333333Y-122500000D01*
X76428571Y-122452380D01*
%TO.C,C3*%
X39833333Y-146857142D02*
X39785714Y-146904761D01*
X39642857Y-146952380D01*
X39547619Y-146952380D01*
X39404761Y-146904761D01*
X39309523Y-146809523D01*
X39261904Y-146714285D01*
X39214285Y-146523809D01*
X39214285Y-146380952D01*
X39261904Y-146190476D01*
X39309523Y-146095238D01*
X39404761Y-146000000D01*
X39547619Y-145952380D01*
X39642857Y-145952380D01*
X39785714Y-146000000D01*
X39833333Y-146047619D01*
X40166666Y-145952380D02*
X40785714Y-145952380D01*
X40452380Y-146333333D01*
X40595238Y-146333333D01*
X40690476Y-146380952D01*
X40738095Y-146428571D01*
X40785714Y-146523809D01*
X40785714Y-146761904D01*
X40738095Y-146857142D01*
X40690476Y-146904761D01*
X40595238Y-146952380D01*
X40309523Y-146952380D01*
X40214285Y-146904761D01*
X40166666Y-146857142D01*
%TO.C,R6*%
X39833333Y-155952380D02*
X39500000Y-155476190D01*
X39261904Y-155952380D02*
X39261904Y-154952380D01*
X39642857Y-154952380D01*
X39738095Y-155000000D01*
X39785714Y-155047619D01*
X39833333Y-155142857D01*
X39833333Y-155285714D01*
X39785714Y-155380952D01*
X39738095Y-155428571D01*
X39642857Y-155476190D01*
X39261904Y-155476190D01*
X40690476Y-154952380D02*
X40500000Y-154952380D01*
X40404761Y-155000000D01*
X40357142Y-155047619D01*
X40261904Y-155190476D01*
X40214285Y-155380952D01*
X40214285Y-155761904D01*
X40261904Y-155857142D01*
X40309523Y-155904761D01*
X40404761Y-155952380D01*
X40595238Y-155952380D01*
X40690476Y-155904761D01*
X40738095Y-155857142D01*
X40785714Y-155761904D01*
X40785714Y-155523809D01*
X40738095Y-155428571D01*
X40690476Y-155380952D01*
X40595238Y-155333333D01*
X40404761Y-155333333D01*
X40309523Y-155380952D01*
X40261904Y-155428571D01*
X40214285Y-155523809D01*
%TO.C,R8*%
X50833333Y-145952380D02*
X50500000Y-145476190D01*
X50261904Y-145952380D02*
X50261904Y-144952380D01*
X50642857Y-144952380D01*
X50738095Y-145000000D01*
X50785714Y-145047619D01*
X50833333Y-145142857D01*
X50833333Y-145285714D01*
X50785714Y-145380952D01*
X50738095Y-145428571D01*
X50642857Y-145476190D01*
X50261904Y-145476190D01*
X51404761Y-145380952D02*
X51309523Y-145333333D01*
X51261904Y-145285714D01*
X51214285Y-145190476D01*
X51214285Y-145142857D01*
X51261904Y-145047619D01*
X51309523Y-145000000D01*
X51404761Y-144952380D01*
X51595238Y-144952380D01*
X51690476Y-145000000D01*
X51738095Y-145047619D01*
X51785714Y-145142857D01*
X51785714Y-145190476D01*
X51738095Y-145285714D01*
X51690476Y-145333333D01*
X51595238Y-145380952D01*
X51404761Y-145380952D01*
X51309523Y-145428571D01*
X51261904Y-145476190D01*
X51214285Y-145571428D01*
X51214285Y-145761904D01*
X51261904Y-145857142D01*
X51309523Y-145904761D01*
X51404761Y-145952380D01*
X51595238Y-145952380D01*
X51690476Y-145904761D01*
X51738095Y-145857142D01*
X51785714Y-145761904D01*
X51785714Y-145571428D01*
X51738095Y-145476190D01*
X51690476Y-145428571D01*
X51595238Y-145380952D01*
%TO.C,U1*%
X42238095Y-123652380D02*
X42238095Y-124461904D01*
X42285714Y-124557142D01*
X42333333Y-124604761D01*
X42428571Y-124652380D01*
X42619047Y-124652380D01*
X42714285Y-124604761D01*
X42761904Y-124557142D01*
X42809523Y-124461904D01*
X42809523Y-123652380D01*
X43809523Y-124652380D02*
X43238095Y-124652380D01*
X43523809Y-124652380D02*
X43523809Y-123652380D01*
X43428571Y-123795238D01*
X43333333Y-123890476D01*
X43238095Y-123938095D01*
%TO.C,J6*%
X82166666Y-156452414D02*
X82166666Y-157166700D01*
X82119047Y-157309557D01*
X82023809Y-157404795D01*
X81880952Y-157452414D01*
X81785714Y-157452414D01*
X83071428Y-156452414D02*
X82880952Y-156452414D01*
X82785714Y-156500034D01*
X82738095Y-156547653D01*
X82642857Y-156690510D01*
X82595238Y-156880986D01*
X82595238Y-157261938D01*
X82642857Y-157357176D01*
X82690476Y-157404795D01*
X82785714Y-157452414D01*
X82976190Y-157452414D01*
X83071428Y-157404795D01*
X83119047Y-157357176D01*
X83166666Y-157261938D01*
X83166666Y-157023843D01*
X83119047Y-156928605D01*
X83071428Y-156880986D01*
X82976190Y-156833367D01*
X82785714Y-156833367D01*
X82690476Y-156880986D01*
X82642857Y-156928605D01*
X82595238Y-157023843D01*
%TO.C,R17*%
X74857142Y-135452380D02*
X74523809Y-134976190D01*
X74285714Y-135452380D02*
X74285714Y-134452380D01*
X74666666Y-134452380D01*
X74761904Y-134500000D01*
X74809523Y-134547619D01*
X74857142Y-134642857D01*
X74857142Y-134785714D01*
X74809523Y-134880952D01*
X74761904Y-134928571D01*
X74666666Y-134976190D01*
X74285714Y-134976190D01*
X75809523Y-135452380D02*
X75238095Y-135452380D01*
X75523809Y-135452380D02*
X75523809Y-134452380D01*
X75428571Y-134595238D01*
X75333333Y-134690476D01*
X75238095Y-134738095D01*
X76142857Y-134452380D02*
X76809523Y-134452380D01*
X76380952Y-135452380D01*
%TO.C,R5*%
X39833333Y-158952380D02*
X39500000Y-158476190D01*
X39261904Y-158952380D02*
X39261904Y-157952380D01*
X39642857Y-157952380D01*
X39738095Y-158000000D01*
X39785714Y-158047619D01*
X39833333Y-158142857D01*
X39833333Y-158285714D01*
X39785714Y-158380952D01*
X39738095Y-158428571D01*
X39642857Y-158476190D01*
X39261904Y-158476190D01*
X40738095Y-157952380D02*
X40261904Y-157952380D01*
X40214285Y-158428571D01*
X40261904Y-158380952D01*
X40357142Y-158333333D01*
X40595238Y-158333333D01*
X40690476Y-158380952D01*
X40738095Y-158428571D01*
X40785714Y-158523809D01*
X40785714Y-158761904D01*
X40738095Y-158857142D01*
X40690476Y-158904761D01*
X40595238Y-158952380D01*
X40357142Y-158952380D01*
X40261904Y-158904761D01*
X40214285Y-158857142D01*
%TO.C,U2*%
X52452380Y-124011904D02*
X53261904Y-124011904D01*
X53357142Y-123964285D01*
X53404761Y-123916666D01*
X53452380Y-123821428D01*
X53452380Y-123630952D01*
X53404761Y-123535714D01*
X53357142Y-123488095D01*
X53261904Y-123440476D01*
X52452380Y-123440476D01*
X52547619Y-123011904D02*
X52500000Y-122964285D01*
X52452380Y-122869047D01*
X52452380Y-122630952D01*
X52500000Y-122535714D01*
X52547619Y-122488095D01*
X52642857Y-122440476D01*
X52738095Y-122440476D01*
X52880952Y-122488095D01*
X53452380Y-123059523D01*
X53452380Y-122440476D01*
%TO.C,J2*%
X28952380Y-132333333D02*
X29666666Y-132333333D01*
X29809523Y-132380952D01*
X29904761Y-132476190D01*
X29952380Y-132619047D01*
X29952380Y-132714285D01*
X29047619Y-131904761D02*
X29000000Y-131857142D01*
X28952380Y-131761904D01*
X28952380Y-131523809D01*
X29000000Y-131428571D01*
X29047619Y-131380952D01*
X29142857Y-131333333D01*
X29238095Y-131333333D01*
X29380952Y-131380952D01*
X29952380Y-131952380D01*
X29952380Y-131333333D01*
%TO.C,Q2*%
X51344761Y-148277619D02*
X51249523Y-148230000D01*
X51154285Y-148134761D01*
X51011428Y-147991904D01*
X50916190Y-147944285D01*
X50820952Y-147944285D01*
X50868571Y-148182380D02*
X50773333Y-148134761D01*
X50678095Y-148039523D01*
X50630476Y-147849047D01*
X50630476Y-147515714D01*
X50678095Y-147325238D01*
X50773333Y-147230000D01*
X50868571Y-147182380D01*
X51059047Y-147182380D01*
X51154285Y-147230000D01*
X51249523Y-147325238D01*
X51297142Y-147515714D01*
X51297142Y-147849047D01*
X51249523Y-148039523D01*
X51154285Y-148134761D01*
X51059047Y-148182380D01*
X50868571Y-148182380D01*
X51678095Y-147277619D02*
X51725714Y-147230000D01*
X51820952Y-147182380D01*
X52059047Y-147182380D01*
X52154285Y-147230000D01*
X52201904Y-147277619D01*
X52249523Y-147372857D01*
X52249523Y-147468095D01*
X52201904Y-147610952D01*
X51630476Y-148182380D01*
X52249523Y-148182380D01*
%TO.C,J7*%
X76166666Y-156694080D02*
X76166666Y-157408366D01*
X76119047Y-157551223D01*
X76023809Y-157646461D01*
X75880952Y-157694080D01*
X75785714Y-157694080D01*
X76547619Y-156694080D02*
X77214285Y-156694080D01*
X76785714Y-157694080D01*
%TO.C,R11*%
X74857142Y-147452380D02*
X74523809Y-146976190D01*
X74285714Y-147452380D02*
X74285714Y-146452380D01*
X74666666Y-146452380D01*
X74761904Y-146500000D01*
X74809523Y-146547619D01*
X74857142Y-146642857D01*
X74857142Y-146785714D01*
X74809523Y-146880952D01*
X74761904Y-146928571D01*
X74666666Y-146976190D01*
X74285714Y-146976190D01*
X75809523Y-147452380D02*
X75238095Y-147452380D01*
X75523809Y-147452380D02*
X75523809Y-146452380D01*
X75428571Y-146595238D01*
X75333333Y-146690476D01*
X75238095Y-146738095D01*
X76761904Y-147452380D02*
X76190476Y-147452380D01*
X76476190Y-147452380D02*
X76476190Y-146452380D01*
X76380952Y-146595238D01*
X76285714Y-146690476D01*
X76190476Y-146738095D01*
%TO.C,J5*%
X76166666Y-151202380D02*
X76166666Y-151916666D01*
X76119047Y-152059523D01*
X76023809Y-152154761D01*
X75880952Y-152202380D01*
X75785714Y-152202380D01*
X77119047Y-151202380D02*
X76642857Y-151202380D01*
X76595238Y-151678571D01*
X76642857Y-151630952D01*
X76738095Y-151583333D01*
X76976190Y-151583333D01*
X77071428Y-151630952D01*
X77119047Y-151678571D01*
X77166666Y-151773809D01*
X77166666Y-152011904D01*
X77119047Y-152107142D01*
X77071428Y-152154761D01*
X76976190Y-152202380D01*
X76738095Y-152202380D01*
X76642857Y-152154761D01*
X76595238Y-152107142D01*
%TO.C,C9*%
X75333333Y-120357142D02*
X75285714Y-120404761D01*
X75142857Y-120452380D01*
X75047619Y-120452380D01*
X74904761Y-120404761D01*
X74809523Y-120309523D01*
X74761904Y-120214285D01*
X74714285Y-120023809D01*
X74714285Y-119880952D01*
X74761904Y-119690476D01*
X74809523Y-119595238D01*
X74904761Y-119500000D01*
X75047619Y-119452380D01*
X75142857Y-119452380D01*
X75285714Y-119500000D01*
X75333333Y-119547619D01*
X75809523Y-120452380D02*
X76000000Y-120452380D01*
X76095238Y-120404761D01*
X76142857Y-120357142D01*
X76238095Y-120214285D01*
X76285714Y-120023809D01*
X76285714Y-119642857D01*
X76238095Y-119547619D01*
X76190476Y-119500000D01*
X76095238Y-119452380D01*
X75904761Y-119452380D01*
X75809523Y-119500000D01*
X75761904Y-119547619D01*
X75714285Y-119642857D01*
X75714285Y-119880952D01*
X75761904Y-119976190D01*
X75809523Y-120023809D01*
X75904761Y-120071428D01*
X76095238Y-120071428D01*
X76190476Y-120023809D01*
X76238095Y-119976190D01*
X76285714Y-119880952D01*
%TO.C,Rshunt1*%
X57632380Y-129714285D02*
X57156190Y-130047619D01*
X57632380Y-130285714D02*
X56632380Y-130285714D01*
X56632380Y-129904761D01*
X56680000Y-129809523D01*
X56727619Y-129761904D01*
X56822857Y-129714285D01*
X56965714Y-129714285D01*
X57060952Y-129761904D01*
X57108571Y-129809523D01*
X57156190Y-129904761D01*
X57156190Y-130285714D01*
X57584761Y-129333333D02*
X57632380Y-129238095D01*
X57632380Y-129047619D01*
X57584761Y-128952380D01*
X57489523Y-128904761D01*
X57441904Y-128904761D01*
X57346666Y-128952380D01*
X57299047Y-129047619D01*
X57299047Y-129190476D01*
X57251428Y-129285714D01*
X57156190Y-129333333D01*
X57108571Y-129333333D01*
X57013333Y-129285714D01*
X56965714Y-129190476D01*
X56965714Y-129047619D01*
X57013333Y-128952380D01*
X57632380Y-128476190D02*
X56632380Y-128476190D01*
X57632380Y-128047619D02*
X57108571Y-128047619D01*
X57013333Y-128095238D01*
X56965714Y-128190476D01*
X56965714Y-128333333D01*
X57013333Y-128428571D01*
X57060952Y-128476190D01*
X56965714Y-127142857D02*
X57632380Y-127142857D01*
X56965714Y-127571428D02*
X57489523Y-127571428D01*
X57584761Y-127523809D01*
X57632380Y-127428571D01*
X57632380Y-127285714D01*
X57584761Y-127190476D01*
X57537142Y-127142857D01*
X56965714Y-126666666D02*
X57632380Y-126666666D01*
X57060952Y-126666666D02*
X57013333Y-126619047D01*
X56965714Y-126523809D01*
X56965714Y-126380952D01*
X57013333Y-126285714D01*
X57108571Y-126238095D01*
X57632380Y-126238095D01*
X56965714Y-125904761D02*
X56965714Y-125523809D01*
X56632380Y-125761904D02*
X57489523Y-125761904D01*
X57584761Y-125714285D01*
X57632380Y-125619047D01*
X57632380Y-125523809D01*
X57632380Y-124666666D02*
X57632380Y-125238095D01*
X57632380Y-124952380D02*
X56632380Y-124952380D01*
X56775238Y-125047619D01*
X56870476Y-125142857D01*
X56918095Y-125238095D01*
%TO.C,J12*%
X75690476Y-167677380D02*
X75690476Y-168391666D01*
X75642857Y-168534523D01*
X75547619Y-168629761D01*
X75404761Y-168677380D01*
X75309523Y-168677380D01*
X76690476Y-168677380D02*
X76119047Y-168677380D01*
X76404761Y-168677380D02*
X76404761Y-167677380D01*
X76309523Y-167820238D01*
X76214285Y-167915476D01*
X76119047Y-167963095D01*
X77071428Y-167772619D02*
X77119047Y-167725000D01*
X77214285Y-167677380D01*
X77452380Y-167677380D01*
X77547619Y-167725000D01*
X77595238Y-167772619D01*
X77642857Y-167867857D01*
X77642857Y-167963095D01*
X77595238Y-168105952D01*
X77023809Y-168677380D01*
X77642857Y-168677380D01*
%TO.C,C2*%
X39833333Y-149857142D02*
X39785714Y-149904761D01*
X39642857Y-149952380D01*
X39547619Y-149952380D01*
X39404761Y-149904761D01*
X39309523Y-149809523D01*
X39261904Y-149714285D01*
X39214285Y-149523809D01*
X39214285Y-149380952D01*
X39261904Y-149190476D01*
X39309523Y-149095238D01*
X39404761Y-149000000D01*
X39547619Y-148952380D01*
X39642857Y-148952380D01*
X39785714Y-149000000D01*
X39833333Y-149047619D01*
X40214285Y-149047619D02*
X40261904Y-149000000D01*
X40357142Y-148952380D01*
X40595238Y-148952380D01*
X40690476Y-149000000D01*
X40738095Y-149047619D01*
X40785714Y-149142857D01*
X40785714Y-149238095D01*
X40738095Y-149380952D01*
X40166666Y-149952380D01*
X40785714Y-149952380D01*
%TO.C,R4*%
X43333333Y-161952380D02*
X43000000Y-161476190D01*
X42761904Y-161952380D02*
X42761904Y-160952380D01*
X43142857Y-160952380D01*
X43238095Y-161000000D01*
X43285714Y-161047619D01*
X43333333Y-161142857D01*
X43333333Y-161285714D01*
X43285714Y-161380952D01*
X43238095Y-161428571D01*
X43142857Y-161476190D01*
X42761904Y-161476190D01*
X44190476Y-161285714D02*
X44190476Y-161952380D01*
X43952380Y-160904761D02*
X43714285Y-161619047D01*
X44333333Y-161619047D01*
%TO.C,U4*%
X59738095Y-135952380D02*
X59738095Y-136761904D01*
X59785714Y-136857142D01*
X59833333Y-136904761D01*
X59928571Y-136952380D01*
X60119047Y-136952380D01*
X60214285Y-136904761D01*
X60261904Y-136857142D01*
X60309523Y-136761904D01*
X60309523Y-135952380D01*
X61214285Y-136285714D02*
X61214285Y-136952380D01*
X60976190Y-135904761D02*
X60738095Y-136619047D01*
X61357142Y-136619047D01*
%TO.C,Q3*%
X51519761Y-164277619D02*
X51424523Y-164230000D01*
X51329285Y-164134761D01*
X51186428Y-163991904D01*
X51091190Y-163944285D01*
X50995952Y-163944285D01*
X51043571Y-164182380D02*
X50948333Y-164134761D01*
X50853095Y-164039523D01*
X50805476Y-163849047D01*
X50805476Y-163515714D01*
X50853095Y-163325238D01*
X50948333Y-163230000D01*
X51043571Y-163182380D01*
X51234047Y-163182380D01*
X51329285Y-163230000D01*
X51424523Y-163325238D01*
X51472142Y-163515714D01*
X51472142Y-163849047D01*
X51424523Y-164039523D01*
X51329285Y-164134761D01*
X51234047Y-164182380D01*
X51043571Y-164182380D01*
X51805476Y-163182380D02*
X52424523Y-163182380D01*
X52091190Y-163563333D01*
X52234047Y-163563333D01*
X52329285Y-163610952D01*
X52376904Y-163658571D01*
X52424523Y-163753809D01*
X52424523Y-163991904D01*
X52376904Y-164087142D01*
X52329285Y-164134761D01*
X52234047Y-164182380D01*
X51948333Y-164182380D01*
X51853095Y-164134761D01*
X51805476Y-164087142D01*
%TO.C,R9*%
X56333333Y-145952380D02*
X56000000Y-145476190D01*
X55761904Y-145952380D02*
X55761904Y-144952380D01*
X56142857Y-144952380D01*
X56238095Y-145000000D01*
X56285714Y-145047619D01*
X56333333Y-145142857D01*
X56333333Y-145285714D01*
X56285714Y-145380952D01*
X56238095Y-145428571D01*
X56142857Y-145476190D01*
X55761904Y-145476190D01*
X56809523Y-145952380D02*
X57000000Y-145952380D01*
X57095238Y-145904761D01*
X57142857Y-145857142D01*
X57238095Y-145714285D01*
X57285714Y-145523809D01*
X57285714Y-145142857D01*
X57238095Y-145047619D01*
X57190476Y-145000000D01*
X57095238Y-144952380D01*
X56904761Y-144952380D01*
X56809523Y-145000000D01*
X56761904Y-145047619D01*
X56714285Y-145142857D01*
X56714285Y-145380952D01*
X56761904Y-145476190D01*
X56809523Y-145523809D01*
X56904761Y-145571428D01*
X57095238Y-145571428D01*
X57190476Y-145523809D01*
X57238095Y-145476190D01*
X57285714Y-145380952D01*
%TO.C,Q4*%
X65544761Y-164277619D02*
X65449523Y-164230000D01*
X65354285Y-164134761D01*
X65211428Y-163991904D01*
X65116190Y-163944285D01*
X65020952Y-163944285D01*
X65068571Y-164182380D02*
X64973333Y-164134761D01*
X64878095Y-164039523D01*
X64830476Y-163849047D01*
X64830476Y-163515714D01*
X64878095Y-163325238D01*
X64973333Y-163230000D01*
X65068571Y-163182380D01*
X65259047Y-163182380D01*
X65354285Y-163230000D01*
X65449523Y-163325238D01*
X65497142Y-163515714D01*
X65497142Y-163849047D01*
X65449523Y-164039523D01*
X65354285Y-164134761D01*
X65259047Y-164182380D01*
X65068571Y-164182380D01*
X66354285Y-163515714D02*
X66354285Y-164182380D01*
X66116190Y-163134761D02*
X65878095Y-163849047D01*
X66497142Y-163849047D01*
%TO.C,Rshunt2*%
X65952380Y-129714285D02*
X65476190Y-130047619D01*
X65952380Y-130285714D02*
X64952380Y-130285714D01*
X64952380Y-129904761D01*
X65000000Y-129809523D01*
X65047619Y-129761904D01*
X65142857Y-129714285D01*
X65285714Y-129714285D01*
X65380952Y-129761904D01*
X65428571Y-129809523D01*
X65476190Y-129904761D01*
X65476190Y-130285714D01*
X65904761Y-129333333D02*
X65952380Y-129238095D01*
X65952380Y-129047619D01*
X65904761Y-128952380D01*
X65809523Y-128904761D01*
X65761904Y-128904761D01*
X65666666Y-128952380D01*
X65619047Y-129047619D01*
X65619047Y-129190476D01*
X65571428Y-129285714D01*
X65476190Y-129333333D01*
X65428571Y-129333333D01*
X65333333Y-129285714D01*
X65285714Y-129190476D01*
X65285714Y-129047619D01*
X65333333Y-128952380D01*
X65952380Y-128476190D02*
X64952380Y-128476190D01*
X65952380Y-128047619D02*
X65428571Y-128047619D01*
X65333333Y-128095238D01*
X65285714Y-128190476D01*
X65285714Y-128333333D01*
X65333333Y-128428571D01*
X65380952Y-128476190D01*
X65285714Y-127142857D02*
X65952380Y-127142857D01*
X65285714Y-127571428D02*
X65809523Y-127571428D01*
X65904761Y-127523809D01*
X65952380Y-127428571D01*
X65952380Y-127285714D01*
X65904761Y-127190476D01*
X65857142Y-127142857D01*
X65285714Y-126666666D02*
X65952380Y-126666666D01*
X65380952Y-126666666D02*
X65333333Y-126619047D01*
X65285714Y-126523809D01*
X65285714Y-126380952D01*
X65333333Y-126285714D01*
X65428571Y-126238095D01*
X65952380Y-126238095D01*
X65285714Y-125904761D02*
X65285714Y-125523809D01*
X64952380Y-125761904D02*
X65809523Y-125761904D01*
X65904761Y-125714285D01*
X65952380Y-125619047D01*
X65952380Y-125523809D01*
X65047619Y-125238095D02*
X65000000Y-125190476D01*
X64952380Y-125095238D01*
X64952380Y-124857142D01*
X65000000Y-124761904D01*
X65047619Y-124714285D01*
X65142857Y-124666666D01*
X65238095Y-124666666D01*
X65380952Y-124714285D01*
X65952380Y-125285714D01*
X65952380Y-124666666D01*
%TO.C,J9*%
X82166666Y-162185680D02*
X82166666Y-162899966D01*
X82119047Y-163042823D01*
X82023809Y-163138061D01*
X81880952Y-163185680D01*
X81785714Y-163185680D01*
X82690476Y-163185680D02*
X82880952Y-163185680D01*
X82976190Y-163138061D01*
X83023809Y-163090442D01*
X83119047Y-162947585D01*
X83166666Y-162757109D01*
X83166666Y-162376157D01*
X83119047Y-162280919D01*
X83071428Y-162233300D01*
X82976190Y-162185680D01*
X82785714Y-162185680D01*
X82690476Y-162233300D01*
X82642857Y-162280919D01*
X82595238Y-162376157D01*
X82595238Y-162614252D01*
X82642857Y-162709490D01*
X82690476Y-162757109D01*
X82785714Y-162804728D01*
X82976190Y-162804728D01*
X83071428Y-162757109D01*
X83119047Y-162709490D01*
X83166666Y-162614252D01*
%TO.C,R15*%
X74857142Y-141452380D02*
X74523809Y-140976190D01*
X74285714Y-141452380D02*
X74285714Y-140452380D01*
X74666666Y-140452380D01*
X74761904Y-140500000D01*
X74809523Y-140547619D01*
X74857142Y-140642857D01*
X74857142Y-140785714D01*
X74809523Y-140880952D01*
X74761904Y-140928571D01*
X74666666Y-140976190D01*
X74285714Y-140976190D01*
X75809523Y-141452380D02*
X75238095Y-141452380D01*
X75523809Y-141452380D02*
X75523809Y-140452380D01*
X75428571Y-140595238D01*
X75333333Y-140690476D01*
X75238095Y-140738095D01*
X76714285Y-140452380D02*
X76238095Y-140452380D01*
X76190476Y-140928571D01*
X76238095Y-140880952D01*
X76333333Y-140833333D01*
X76571428Y-140833333D01*
X76666666Y-140880952D01*
X76714285Y-140928571D01*
X76761904Y-141023809D01*
X76761904Y-141261904D01*
X76714285Y-141357142D01*
X76666666Y-141404761D01*
X76571428Y-141452380D01*
X76333333Y-141452380D01*
X76238095Y-141404761D01*
X76190476Y-141357142D01*
%TO.C,C7*%
X43357142Y-134666666D02*
X43404761Y-134714285D01*
X43452380Y-134857142D01*
X43452380Y-134952380D01*
X43404761Y-135095238D01*
X43309523Y-135190476D01*
X43214285Y-135238095D01*
X43023809Y-135285714D01*
X42880952Y-135285714D01*
X42690476Y-135238095D01*
X42595238Y-135190476D01*
X42500000Y-135095238D01*
X42452380Y-134952380D01*
X42452380Y-134857142D01*
X42500000Y-134714285D01*
X42547619Y-134666666D01*
X42452380Y-134333333D02*
X42452380Y-133666666D01*
X43452380Y-134095238D01*
%TO.C,R16*%
X74857142Y-126452380D02*
X74523809Y-125976190D01*
X74285714Y-126452380D02*
X74285714Y-125452380D01*
X74666666Y-125452380D01*
X74761904Y-125500000D01*
X74809523Y-125547619D01*
X74857142Y-125642857D01*
X74857142Y-125785714D01*
X74809523Y-125880952D01*
X74761904Y-125928571D01*
X74666666Y-125976190D01*
X74285714Y-125976190D01*
X75809523Y-126452380D02*
X75238095Y-126452380D01*
X75523809Y-126452380D02*
X75523809Y-125452380D01*
X75428571Y-125595238D01*
X75333333Y-125690476D01*
X75238095Y-125738095D01*
X76666666Y-125452380D02*
X76476190Y-125452380D01*
X76380952Y-125500000D01*
X76333333Y-125547619D01*
X76238095Y-125690476D01*
X76190476Y-125880952D01*
X76190476Y-126261904D01*
X76238095Y-126357142D01*
X76285714Y-126404761D01*
X76380952Y-126452380D01*
X76571428Y-126452380D01*
X76666666Y-126404761D01*
X76714285Y-126357142D01*
X76761904Y-126261904D01*
X76761904Y-126023809D01*
X76714285Y-125928571D01*
X76666666Y-125880952D01*
X76571428Y-125833333D01*
X76380952Y-125833333D01*
X76285714Y-125880952D01*
X76238095Y-125928571D01*
X76190476Y-126023809D01*
%TO.C,R18*%
X74857142Y-144452380D02*
X74523809Y-143976190D01*
X74285714Y-144452380D02*
X74285714Y-143452380D01*
X74666666Y-143452380D01*
X74761904Y-143500000D01*
X74809523Y-143547619D01*
X74857142Y-143642857D01*
X74857142Y-143785714D01*
X74809523Y-143880952D01*
X74761904Y-143928571D01*
X74666666Y-143976190D01*
X74285714Y-143976190D01*
X75809523Y-144452380D02*
X75238095Y-144452380D01*
X75523809Y-144452380D02*
X75523809Y-143452380D01*
X75428571Y-143595238D01*
X75333333Y-143690476D01*
X75238095Y-143738095D01*
X76380952Y-143880952D02*
X76285714Y-143833333D01*
X76238095Y-143785714D01*
X76190476Y-143690476D01*
X76190476Y-143642857D01*
X76238095Y-143547619D01*
X76285714Y-143500000D01*
X76380952Y-143452380D01*
X76571428Y-143452380D01*
X76666666Y-143500000D01*
X76714285Y-143547619D01*
X76761904Y-143642857D01*
X76761904Y-143690476D01*
X76714285Y-143785714D01*
X76666666Y-143833333D01*
X76571428Y-143880952D01*
X76380952Y-143880952D01*
X76285714Y-143928571D01*
X76238095Y-143976190D01*
X76190476Y-144071428D01*
X76190476Y-144261904D01*
X76238095Y-144357142D01*
X76285714Y-144404761D01*
X76380952Y-144452380D01*
X76571428Y-144452380D01*
X76666666Y-144404761D01*
X76714285Y-144357142D01*
X76761904Y-144261904D01*
X76761904Y-144071428D01*
X76714285Y-143976190D01*
X76666666Y-143928571D01*
X76571428Y-143880952D01*
%TO.C,J3*%
X29452380Y-158333333D02*
X30166666Y-158333333D01*
X30309523Y-158380952D01*
X30404761Y-158476190D01*
X30452380Y-158619047D01*
X30452380Y-158714285D01*
X29452380Y-157952380D02*
X29452380Y-157333333D01*
X29833333Y-157666666D01*
X29833333Y-157523809D01*
X29880952Y-157428571D01*
X29928571Y-157380952D01*
X30023809Y-157333333D01*
X30261904Y-157333333D01*
X30357142Y-157380952D01*
X30404761Y-157428571D01*
X30452380Y-157523809D01*
X30452380Y-157809523D01*
X30404761Y-157904761D01*
X30357142Y-157952380D01*
%TO.C,R13*%
X74857142Y-129452380D02*
X74523809Y-128976190D01*
X74285714Y-129452380D02*
X74285714Y-128452380D01*
X74666666Y-128452380D01*
X74761904Y-128500000D01*
X74809523Y-128547619D01*
X74857142Y-128642857D01*
X74857142Y-128785714D01*
X74809523Y-128880952D01*
X74761904Y-128928571D01*
X74666666Y-128976190D01*
X74285714Y-128976190D01*
X75809523Y-129452380D02*
X75238095Y-129452380D01*
X75523809Y-129452380D02*
X75523809Y-128452380D01*
X75428571Y-128595238D01*
X75333333Y-128690476D01*
X75238095Y-128738095D01*
X76142857Y-128452380D02*
X76761904Y-128452380D01*
X76428571Y-128833333D01*
X76571428Y-128833333D01*
X76666666Y-128880952D01*
X76714285Y-128928571D01*
X76761904Y-129023809D01*
X76761904Y-129261904D01*
X76714285Y-129357142D01*
X76666666Y-129404761D01*
X76571428Y-129452380D01*
X76285714Y-129452380D01*
X76190476Y-129404761D01*
X76142857Y-129357142D01*
%TO.C,U5*%
X62738095Y-121002380D02*
X62738095Y-121811904D01*
X62785714Y-121907142D01*
X62833333Y-121954761D01*
X62928571Y-122002380D01*
X63119047Y-122002380D01*
X63214285Y-121954761D01*
X63261904Y-121907142D01*
X63309523Y-121811904D01*
X63309523Y-121002380D01*
X64261904Y-121002380D02*
X63785714Y-121002380D01*
X63738095Y-121478571D01*
X63785714Y-121430952D01*
X63880952Y-121383333D01*
X64119047Y-121383333D01*
X64214285Y-121430952D01*
X64261904Y-121478571D01*
X64309523Y-121573809D01*
X64309523Y-121811904D01*
X64261904Y-121907142D01*
X64214285Y-121954761D01*
X64119047Y-122002380D01*
X63880952Y-122002380D01*
X63785714Y-121954761D01*
X63738095Y-121907142D01*
%TO.C,C4*%
X39833333Y-143857142D02*
X39785714Y-143904761D01*
X39642857Y-143952380D01*
X39547619Y-143952380D01*
X39404761Y-143904761D01*
X39309523Y-143809523D01*
X39261904Y-143714285D01*
X39214285Y-143523809D01*
X39214285Y-143380952D01*
X39261904Y-143190476D01*
X39309523Y-143095238D01*
X39404761Y-143000000D01*
X39547619Y-142952380D01*
X39642857Y-142952380D01*
X39785714Y-143000000D01*
X39833333Y-143047619D01*
X40690476Y-143285714D02*
X40690476Y-143952380D01*
X40452380Y-142904761D02*
X40214285Y-143619047D01*
X40833333Y-143619047D01*
%TO.C,R1*%
X39833333Y-170952380D02*
X39500000Y-170476190D01*
X39261904Y-170952380D02*
X39261904Y-169952380D01*
X39642857Y-169952380D01*
X39738095Y-170000000D01*
X39785714Y-170047619D01*
X39833333Y-170142857D01*
X39833333Y-170285714D01*
X39785714Y-170380952D01*
X39738095Y-170428571D01*
X39642857Y-170476190D01*
X39261904Y-170476190D01*
X40785714Y-170952380D02*
X40214285Y-170952380D01*
X40500000Y-170952380D02*
X40500000Y-169952380D01*
X40404761Y-170095238D01*
X40309523Y-170190476D01*
X40214285Y-170238095D01*
%TO.C,J4*%
X82166666Y-151202380D02*
X82166666Y-151916666D01*
X82119047Y-152059523D01*
X82023809Y-152154761D01*
X81880952Y-152202380D01*
X81785714Y-152202380D01*
X83071428Y-151535714D02*
X83071428Y-152202380D01*
X82833333Y-151154761D02*
X82595238Y-151869047D01*
X83214285Y-151869047D01*
%TO.C,R14*%
X74857142Y-132452380D02*
X74523809Y-131976190D01*
X74285714Y-132452380D02*
X74285714Y-131452380D01*
X74666666Y-131452380D01*
X74761904Y-131500000D01*
X74809523Y-131547619D01*
X74857142Y-131642857D01*
X74857142Y-131785714D01*
X74809523Y-131880952D01*
X74761904Y-131928571D01*
X74666666Y-131976190D01*
X74285714Y-131976190D01*
X75809523Y-132452380D02*
X75238095Y-132452380D01*
X75523809Y-132452380D02*
X75523809Y-131452380D01*
X75428571Y-131595238D01*
X75333333Y-131690476D01*
X75238095Y-131738095D01*
X76666666Y-131785714D02*
X76666666Y-132452380D01*
X76428571Y-131404761D02*
X76190476Y-132119047D01*
X76809523Y-132119047D01*
D11*
%TO.C,C8*%
X39288748Y-130590000D02*
X40711252Y-130590000D01*
X39288748Y-132410000D02*
X40711252Y-132410000D01*
%TO.C,C6*%
X39288748Y-138410000D02*
X40711252Y-138410000D01*
X39288748Y-136590000D02*
X40711252Y-136590000D01*
%TO.C,J1*%
X51355000Y-183465000D02*
X61635000Y-183465000D01*
X51355000Y-176504000D02*
X61635000Y-176504000D01*
X60105000Y-177530000D02*
X60070000Y-177566000D01*
X51355000Y-182905000D02*
X61635000Y-182905000D01*
X58001000Y-180044000D02*
X57966000Y-180079000D01*
X61635000Y-173544000D02*
X61635000Y-183465000D01*
X60310000Y-177736000D02*
X60263000Y-177782000D01*
X51355000Y-173544000D02*
X51355000Y-183465000D01*
X51355000Y-181405000D02*
X61635000Y-181405000D01*
X57808000Y-179828000D02*
X57761000Y-179874000D01*
X51115000Y-182965000D02*
X51115000Y-183705000D01*
X51355000Y-173544000D02*
X61635000Y-173544000D01*
X51115000Y-183705000D02*
X51615000Y-183705000D01*
X52420000Y-178121000D02*
G75*
G03*
X52419573Y-179488042I1534993J-684001D01*
G01*
X53955000Y-180485000D02*
G75*
G03*
X54638318Y-180339756I0J1680000D01*
G01*
X55490001Y-179489000D02*
G75*
G03*
X55490427Y-178121958I-1535001J684000D01*
G01*
X53271000Y-180340000D02*
G75*
G03*
X53983805Y-180485253I683999J1535001D01*
G01*
X54639000Y-177270000D02*
G75*
G03*
X53271958Y-177269573I-684001J-1534993D01*
G01*
X60715000Y-178805000D02*
G75*
G03*
X60715000Y-178805000I-1680000J0D01*
G01*
%TO.C,R12*%
X71272936Y-137120000D02*
X72727064Y-137120000D01*
X71272936Y-138940000D02*
X72727064Y-138940000D01*
D10*
%TO.C,U3*%
X52625000Y-132875000D02*
X52400000Y-132875000D01*
X45375000Y-140125000D02*
X45375000Y-139800000D01*
X45375000Y-132875000D02*
X45700000Y-132875000D01*
X52625000Y-132875000D02*
X52625000Y-133200000D01*
X52625000Y-140125000D02*
X52625000Y-139800000D01*
X45375000Y-132875000D02*
X45375000Y-133200000D01*
X52400000Y-132875000D02*
X52400000Y-131450000D01*
X45375000Y-140125000D02*
X45700000Y-140125000D01*
X52625000Y-140125000D02*
X52300000Y-140125000D01*
D11*
%TO.C,J13*%
X83160000Y-150270000D02*
X83900000Y-150270000D01*
X77340000Y-118969000D02*
X83660000Y-118969000D01*
X83100000Y-150030000D02*
X83100000Y-118969000D01*
X77340000Y-150030000D02*
X83660000Y-150030000D01*
X77340000Y-150030000D02*
X77340000Y-118969000D01*
X77800000Y-150030000D02*
X77800000Y-118969000D01*
X83900000Y-150270000D02*
X83900000Y-149770000D01*
X83660000Y-150030000D02*
X83660000Y-118969000D01*
%TO.C,R3*%
X39272936Y-165410000D02*
X40727064Y-165410000D01*
X39272936Y-163590000D02*
X40727064Y-163590000D01*
%TO.C,J8*%
X47755000Y-107457500D02*
X63255000Y-107457500D01*
X61955000Y-115267500D02*
X49055000Y-115267500D01*
X63255000Y-116577500D02*
X47755000Y-116577500D01*
X58045000Y-107067500D02*
X58545000Y-106067500D01*
X57555000Y-108767500D02*
X61955000Y-108767500D01*
X49055000Y-115267500D02*
X49055000Y-108767500D01*
X53455000Y-108767500D02*
X53455000Y-108767500D01*
X63255000Y-107457500D02*
X63255000Y-116577500D01*
X58545000Y-106067500D02*
X57545000Y-106067500D01*
X49055000Y-108767500D02*
X53455000Y-108767500D01*
X57545000Y-106067500D02*
X58045000Y-107067500D01*
X61955000Y-108767500D02*
X61955000Y-115267500D01*
X57555000Y-107457500D02*
X57555000Y-108767500D01*
X47755000Y-116577500D02*
X47755000Y-107457500D01*
X53455000Y-108767500D02*
X53455000Y-107457500D01*
%TO.C,J11*%
X84000833Y-170475000D02*
G75*
G03*
X84000833Y-170475000I-1500833J0D01*
G01*
%TO.C,Q1*%
X60345000Y-148730000D02*
X60345000Y-153371000D01*
X70585000Y-148730000D02*
X70585000Y-153371000D01*
X63615000Y-148730000D02*
X63615000Y-150240000D01*
X67316000Y-148730000D02*
X67316000Y-150240000D01*
X60345000Y-148730000D02*
X70585000Y-148730000D01*
X60345000Y-153371000D02*
X70585000Y-153371000D01*
X60345000Y-150240000D02*
X70585000Y-150240000D01*
%TO.C,R10*%
X61272936Y-144410000D02*
X62727064Y-144410000D01*
X61272936Y-142590000D02*
X62727064Y-142590000D01*
%TO.C,C5*%
X39288748Y-141410000D02*
X40711252Y-141410000D01*
X39288748Y-139590000D02*
X40711252Y-139590000D01*
%TO.C,C1*%
X39288748Y-151590000D02*
X40711252Y-151590000D01*
X39288748Y-153410000D02*
X40711252Y-153410000D01*
%TO.C,R2*%
X39272936Y-168410000D02*
X40727064Y-168410000D01*
X39272936Y-166590000D02*
X40727064Y-166590000D01*
%TO.C,J10*%
X78000833Y-164983300D02*
G75*
G03*
X78000833Y-164983300I-1500833J0D01*
G01*
%TO.C,R7*%
X44772936Y-144410000D02*
X46227064Y-144410000D01*
X44772936Y-142590000D02*
X46227064Y-142590000D01*
%TO.C,C10*%
X71288748Y-122140000D02*
X72711252Y-122140000D01*
X71288748Y-123960000D02*
X72711252Y-123960000D01*
%TO.C,C3*%
X39288748Y-147410000D02*
X40711252Y-147410000D01*
X39288748Y-145590000D02*
X40711252Y-145590000D01*
%TO.C,R6*%
X39272936Y-154590000D02*
X40727064Y-154590000D01*
X39272936Y-156410000D02*
X40727064Y-156410000D01*
%TO.C,R8*%
X50272936Y-142590000D02*
X51727064Y-142590000D01*
X50272936Y-144410000D02*
X51727064Y-144410000D01*
%TO.C,U1*%
X40240000Y-129410000D02*
X40240000Y-128570000D01*
X40240000Y-118990000D02*
X40240000Y-119830000D01*
X43000000Y-129410000D02*
X40240000Y-129410000D01*
X43000000Y-118990000D02*
X45760000Y-118990000D01*
X45760000Y-118990000D02*
X45760000Y-119830000D01*
X43000000Y-118990000D02*
X40240000Y-118990000D01*
X45760000Y-129410000D02*
X45760000Y-128570000D01*
X43000000Y-129410000D02*
X45760000Y-129410000D01*
X40240000Y-119830000D02*
X38550000Y-119830000D01*
%TO.C,J6*%
X84000833Y-159491700D02*
G75*
G03*
X84000833Y-159491700I-1500833J0D01*
G01*
%TO.C,R17*%
X71272936Y-135950000D02*
X72727064Y-135950000D01*
X71272936Y-134130000D02*
X72727064Y-134130000D01*
%TO.C,R5*%
X39272936Y-159410000D02*
X40727064Y-159410000D01*
X39272936Y-157590000D02*
X40727064Y-157590000D01*
%TO.C,U2*%
X56410000Y-125100000D02*
X56410000Y-121340000D01*
X56410000Y-121340000D02*
X55150000Y-121340000D01*
X49590000Y-127350000D02*
X49590000Y-121340000D01*
X49590000Y-121340000D02*
X50850000Y-121340000D01*
%TO.C,J2*%
X30600000Y-118770000D02*
X30600000Y-119270000D01*
X37160000Y-119010000D02*
X37160000Y-144990000D01*
X37160000Y-144990000D02*
X30840000Y-144990000D01*
X31400000Y-119010000D02*
X31400000Y-144990000D01*
X36700000Y-119010000D02*
X36700000Y-144990000D01*
X31340000Y-118770000D02*
X30600000Y-118770000D01*
X37160000Y-119010000D02*
X30840000Y-119010000D01*
X30840000Y-119010000D02*
X30840000Y-144990000D01*
%TO.C,Q2*%
X56560000Y-148730000D02*
X56560000Y-153371000D01*
X53291000Y-148730000D02*
X53291000Y-150240000D01*
X46320000Y-150240000D02*
X56560000Y-150240000D01*
X46320000Y-148730000D02*
X56560000Y-148730000D01*
X49590000Y-148730000D02*
X49590000Y-150240000D01*
X46320000Y-153371000D02*
X56560000Y-153371000D01*
X46320000Y-148730000D02*
X46320000Y-153371000D01*
%TO.C,J7*%
X78000833Y-159491700D02*
G75*
G03*
X78000833Y-159491700I-1500833J0D01*
G01*
%TO.C,R11*%
X71272936Y-147910000D02*
X72727064Y-147910000D01*
X71272936Y-146090000D02*
X72727064Y-146090000D01*
%TO.C,J5*%
X78000833Y-154000000D02*
G75*
G03*
X78000833Y-154000000I-1500833J0D01*
G01*
%TO.C,C9*%
X71288748Y-119090000D02*
X72711252Y-119090000D01*
X71288748Y-120910000D02*
X72711252Y-120910000D01*
%TO.C,Rshunt1*%
X58090000Y-128227064D02*
X58090000Y-126772936D01*
X59910000Y-128227064D02*
X59910000Y-126772936D01*
%TO.C,J12*%
X78000833Y-170475000D02*
G75*
G03*
X78000833Y-170475000I-1500833J0D01*
G01*
%TO.C,C2*%
X39288748Y-148590000D02*
X40711252Y-148590000D01*
X39288748Y-150410000D02*
X40711252Y-150410000D01*
%TO.C,R4*%
X39272936Y-160590000D02*
X40727064Y-160590000D01*
X39272936Y-162410000D02*
X40727064Y-162410000D01*
%TO.C,U4*%
X60500000Y-141560000D02*
X62450000Y-141560000D01*
X60500000Y-141560000D02*
X58550000Y-141560000D01*
X60500000Y-131440000D02*
X57050000Y-131440000D01*
X60500000Y-131440000D02*
X62450000Y-131440000D01*
%TO.C,Q3*%
X46495000Y-164730000D02*
X46495000Y-169371000D01*
X56735000Y-164730000D02*
X56735000Y-169371000D01*
X46495000Y-169371000D02*
X56735000Y-169371000D01*
X46495000Y-164730000D02*
X56735000Y-164730000D01*
X46495000Y-166240000D02*
X56735000Y-166240000D01*
X49765000Y-164730000D02*
X49765000Y-166240000D01*
X53466000Y-164730000D02*
X53466000Y-166240000D01*
%TO.C,R9*%
X55772936Y-142590000D02*
X57227064Y-142590000D01*
X55772936Y-144410000D02*
X57227064Y-144410000D01*
%TO.C,Q4*%
X60520000Y-164730000D02*
X60520000Y-169371000D01*
X63790000Y-164730000D02*
X63790000Y-166240000D01*
X70760000Y-164730000D02*
X70760000Y-169371000D01*
X60520000Y-169371000D02*
X70760000Y-169371000D01*
X60520000Y-164730000D02*
X70760000Y-164730000D01*
X60520000Y-166240000D02*
X70760000Y-166240000D01*
X67491000Y-164730000D02*
X67491000Y-166240000D01*
%TO.C,Rshunt2*%
X62590000Y-128227064D02*
X62590000Y-126772936D01*
X64410000Y-128227064D02*
X64410000Y-126772936D01*
%TO.C,J9*%
X84000833Y-164983300D02*
G75*
G03*
X84000833Y-164983300I-1500833J0D01*
G01*
%TO.C,R15*%
X71272936Y-140110000D02*
X72727064Y-140110000D01*
X71272936Y-141930000D02*
X72727064Y-141930000D01*
%TO.C,C7*%
X39288748Y-133590000D02*
X40711252Y-133590000D01*
X39288748Y-135410000D02*
X40711252Y-135410000D01*
%TO.C,R16*%
X71272936Y-125160000D02*
X72727064Y-125160000D01*
X71272936Y-126980000D02*
X72727064Y-126980000D01*
%TO.C,R18*%
X71272936Y-144920000D02*
X72727064Y-144920000D01*
X71272936Y-143100000D02*
X72727064Y-143100000D01*
%TO.C,J3*%
X36700000Y-145010000D02*
X36700000Y-170990000D01*
X31340000Y-144770000D02*
X30600000Y-144770000D01*
X37160000Y-170990000D02*
X30840000Y-170990000D01*
X30600000Y-144770000D02*
X30600000Y-145270000D01*
X31400000Y-145010000D02*
X31400000Y-170990000D01*
X30840000Y-145010000D02*
X30840000Y-170990000D01*
X37160000Y-145010000D02*
X30840000Y-145010000D01*
X37160000Y-145010000D02*
X37160000Y-170990000D01*
%TO.C,R13*%
X71272936Y-128150000D02*
X72727064Y-128150000D01*
X71272936Y-129970000D02*
X72727064Y-129970000D01*
%TO.C,U5*%
X63500000Y-118990000D02*
X60050000Y-118990000D01*
X63500000Y-124110000D02*
X61550000Y-124110000D01*
X63500000Y-118990000D02*
X65450000Y-118990000D01*
X63500000Y-124110000D02*
X65450000Y-124110000D01*
%TO.C,C4*%
X39288748Y-142590000D02*
X40711252Y-142590000D01*
X39288748Y-144410000D02*
X40711252Y-144410000D01*
%TO.C,R1*%
X39272936Y-171410000D02*
X40727064Y-171410000D01*
X39272936Y-169590000D02*
X40727064Y-169590000D01*
%TO.C,J4*%
X84000833Y-154000000D02*
G75*
G03*
X84000833Y-154000000I-1500833J0D01*
G01*
%TO.C,R14*%
X71272936Y-131140000D02*
X72727064Y-131140000D01*
X71272936Y-132960000D02*
X72727064Y-132960000D01*
%TD*%
M02*
